<svg width="8" height="15" viewBox="0 0 8 15" fill="none" xmlns="http://www.w3.org/2000/svg">
<path d="M1.10872 -9.53674e-07C1.41458 -9.53674e-07 1.67264 0.115062 1.88291 0.345187L7.60812 6.54812C7.87575 6.83054 8 7.13389 8 7.5C8 7.86611 7.87575 8.17992 7.61768 8.45188L1.88291 14.6548C1.67264 14.8849 1.41458 15 1.10872 15C0.497013 15 0 14.4665 0 13.7971C0 13.4623 0.124253 13.159 0.344086 12.9079L5.37156 7.48954L0.344086 2.08159C0.124253 1.841 0 1.53766 0 1.20293C0 0.533472 0.497013 -9.53674e-07 1.10872 -9.53674e-07Z" fill="#B4AFAF"/>
</svg>
