<svg width="22" height="20" viewBox="0 0 22 20" fill="none" xmlns="http://www.w3.org/2000/svg">
<path d="M1 9.83C1 4.58012 3.91268 1 9.98212 1C16.0516 1 18.9642 4.58012 18.9642 9.83C18.9642 15.0799 16.0516 18.66 9.98212 18.66C3.91268 18.66 1 15.0799 1 9.83Z" fill="white" stroke="#103036"/>
<path d="M5.96396 9.83048C5.95038 9.0331 6.17442 8.24974 6.60755 7.58011C7.04067 6.91049 7.66328 6.38491 8.3961 6.07032C9.12892 5.75572 9.93879 5.66634 10.7226 5.81355C11.5064 5.96076 12.2286 6.33788 12.7973 6.89694C13.3661 7.45599 13.7556 8.17165 13.9162 8.9528C14.0768 9.73394 14.0014 10.5452 13.6994 11.2833C13.3974 12.0215 12.8827 12.653 12.2206 13.0976C11.5585 13.5421 10.779 13.7796 9.98154 13.7797C9.44507 13.8407 8.90178 13.781 8.39131 13.6051C7.88085 13.4293 7.41612 13.1416 7.03108 12.7631C6.64604 12.3846 6.3504 11.9249 6.16577 11.4175C5.98115 10.9101 5.9122 10.3679 5.96396 9.83048Z" stroke="#103036"/>
<circle cx="17.5" cy="15.5" r="4.5" fill="white"/>
<path d="M19.6675 15.3339H17.3337M17.3337 15.3339H15M17.3337 15.3339V17.6675M17.3337 15.3339V13" stroke="#FF9501" stroke-linecap="round"/>
</svg>
