<svg width="20" height="20" viewBox="0 0 20 20" fill="none" xmlns="http://www.w3.org/2000/svg">
<path d="M15.8015 2.39617H12.6883C12.533 1.04952 11.3873 0 9.99962 0C8.61202 0 7.46644 1.04948 7.31114 2.39617H4.19782C2.93794 2.39617 1.91309 3.42131 1.91309 4.68114V4.79839C1.91309 5.76114 2.51255 6.58518 3.35703 6.92094V17.715C3.35703 18.9749 4.38201 20 5.6418 20H14.3575C15.6174 20 16.6423 18.9748 16.6423 17.715V6.92098C17.4867 6.58518 18.0862 5.76114 18.0862 4.79843V4.68119C18.0862 3.42131 17.0613 2.39617 15.8015 2.39617ZM9.99962 1.08364C10.7888 1.08364 11.4476 1.64932 11.5934 2.39617H8.40619C8.55191 1.64928 9.2107 1.08364 9.99962 1.08364ZM15.5586 17.715C15.5586 18.3774 15.0197 18.9164 14.3575 18.9164H5.64176C4.97957 18.9164 4.44063 18.3774 4.44063 17.715V7.08336H15.5586V17.715ZM17.0026 4.79839C17.0026 5.46078 16.4636 5.99976 15.8014 5.99976H4.19782C3.53563 5.99976 2.99669 5.46078 2.99669 4.79839V4.68114C2.99669 4.01875 3.53563 3.47977 4.19782 3.47977H15.8015C16.4637 3.47977 17.0026 4.01875 17.0026 4.68114L17.0026 4.79839Z" fill="#50555C"/>
<path d="M7.09453 17.5306C7.39377 17.5306 7.63633 17.2879 7.63633 16.9888V10.8883C7.63633 10.5891 7.39373 10.3464 7.09453 10.3464C6.79534 10.3464 6.55273 10.5891 6.55273 10.8883V16.9888C6.55269 17.288 6.7953 17.5306 7.09453 17.5306Z" fill="#50555C"/>
<path d="M9.99981 17.5306C10.299 17.5306 10.5416 17.2879 10.5416 16.9888V10.8883C10.5416 10.5891 10.299 10.3464 9.99981 10.3464C9.70061 10.3464 9.45801 10.5891 9.45801 10.8883V16.9888C9.45801 17.288 9.70057 17.5306 9.99981 17.5306Z" fill="#50555C"/>
<path d="M12.9041 17.5306C13.2033 17.5306 13.4459 17.2879 13.4459 16.9888V10.8883C13.4459 10.5891 13.2033 10.3464 12.9041 10.3464C12.6049 10.3464 12.3623 10.5891 12.3623 10.8883V16.9888C12.3623 17.288 12.605 17.5306 12.9041 17.5306Z" fill="#50555C"/>
</svg>
