<svg width="24" height="20" viewBox="0 0 24 20" fill="none" xmlns="http://www.w3.org/2000/svg">
<path d="M5 9.8303C5 4.58024 7.91278 1 13.9824 1C20.0521 1 22.9648 4.58024 22.9648 9.8303C22.9648 15.0804 20.0521 18.6606 13.9824 18.6606C7.91278 18.6606 5 15.0804 5 9.8303Z" fill="white" stroke="#103036" stroke-width="1.17926"/>
<path d="M11.0312 12.7635C11.4163 13.142 11.881 13.4297 12.3915 13.6056C12.902 13.7815 13.4453 13.8411 13.9818 13.7801C14.7793 13.78 15.5588 13.5425 16.2209 13.098C16.883 12.6534 17.3978 12.0218 17.6998 11.2837C18.0018 10.5455 18.0773 9.73423 17.9166 8.95306C17.756 8.17188 17.3665 7.4562 16.7977 6.89713C16.2289 6.33806 15.5067 5.96092 14.7229 5.81371C13.9391 5.66649 13.1292 5.75587 12.3963 6.07048C12.0271 6.22896 11.6859 6.44098 11.3829 6.69799" stroke="#103036" stroke-width="1.17926"/>
<path d="M9.22577 6.02889L9.22577 6.02889C8.83345 6.42992 8.83698 7.07199 9.23368 7.46869L10.2441 8.47907H1.52093C0.957085 8.47907 0.5 8.93616 0.5 9.5C0.5 10.0638 0.957086 10.5209 1.52093 10.5209H10.2441L9.23368 11.5313C8.83698 11.928 8.83345 12.5701 9.22577 12.9711C9.62423 13.3784 10.2786 13.382 10.6815 12.9791L13.3159 10.3447C13.7824 9.87818 13.7824 9.12182 13.3159 8.65531L10.6815 6.02089C10.2786 5.61798 9.62423 5.62157 9.22577 6.02889Z" fill="#FF9501" stroke="white"/>
</svg>
