<svg width="30" height="30" viewBox="0 0 30 30" fill="none" xmlns="http://www.w3.org/2000/svg">
<circle cx="15" cy="15" r="15" fill="#103036"/>
<g clip-path="url(#clip0_7219_14339)">
<path d="M12.8638 8.78532L7.9871 13.6621C7.44098 14.2095 7.13428 14.9512 7.13428 15.7245C7.13428 16.4977 7.44098 17.2394 7.9871 17.7868L12.1119 21.9116C12.6593 22.4578 13.401 22.7645 14.1743 22.7645C14.9475 22.7645 15.6892 22.4578 16.2367 21.9116L21.1134 17.0349C21.334 16.8142 21.4916 16.5386 21.5699 16.2365C21.6481 15.9344 21.6442 15.617 21.5585 15.3169L20.0975 10.2022C20.0703 10.1068 20.0192 10.0199 19.949 9.94973C19.8789 9.87958 19.792 9.82847 19.6966 9.80126L14.5818 8.34026C14.2818 8.25454 13.9643 8.25061 13.6622 8.32886C13.3602 8.40711 13.0845 8.56471 12.8638 8.78532ZM17.6804 12.2184C17.8027 12.3408 17.8861 12.4967 17.9198 12.6664C17.9536 12.8361 17.9363 13.0121 17.87 13.1719C17.8038 13.3318 17.6917 13.4685 17.5478 13.5646C17.4039 13.6608 17.2347 13.7121 17.0616 13.7121C16.8886 13.7121 16.7194 13.6608 16.5755 13.5646C16.4316 13.4685 16.3195 13.3318 16.2532 13.1719C16.187 13.0121 16.1697 12.8361 16.2035 12.6664C16.2372 12.4967 16.3205 12.3408 16.4429 12.2184C16.607 12.0543 16.8296 11.9621 17.0616 11.9621C17.2937 11.9621 17.5163 12.0543 17.6804 12.2184Z" fill="white"/>
</g>
<defs>
<clipPath id="clip0_7219_14339">
<rect width="14" height="14" fill="white" transform="translate(15 5) rotate(45)"/>
</clipPath>
</defs>
</svg>
