<svg width="30" height="30" viewBox="0 0 30 30" fill="none" xmlns="http://www.w3.org/2000/svg">
<circle cx="15" cy="15" r="15" fill="#B4AFAF"/>
<path d="M20.292 17.4126V19.5794C20.292 19.9954 20.2101 20.4073 20.0509 20.7917C19.8917 21.176 19.6583 21.5252 19.3642 21.8194C19.07 22.1136 18.7208 22.3469 18.3364 22.5061C17.9521 22.6653 17.5402 22.7473 17.1242 22.7473H12.0556C11.2154 22.7473 10.4096 22.4135 9.81554 21.8194C9.22145 21.2253 8.8877 20.4196 8.8877 19.5794V17.2668L10.1548 18.0018L12.9426 19.6301C13.4819 19.9415 14.0938 20.1054 14.7166 20.1054C15.3394 20.1054 15.9512 19.9415 16.4906 19.6301L19.0249 18.1538L20.292 17.4126Z" fill="white"/>
<path d="M23.4598 12.8004C23.4596 13.1967 23.3539 13.5858 23.1535 13.9277C22.953 14.2695 22.6651 14.5518 22.3193 14.7455L15.8252 18.5469C15.4804 18.746 15.0893 18.8508 14.6911 18.8508C14.293 18.8508 13.9018 18.746 13.557 18.5469L7.11356 14.7455C6.77453 14.5464 6.49342 14.2622 6.29809 13.921C6.10276 13.5798 6 13.1935 6 12.8004C6 12.4073 6.10276 12.0209 6.29809 11.6798C6.49342 11.3386 6.77453 11.0544 7.11356 10.8553L13.6077 7.05388C13.9525 6.8548 14.3436 6.75 14.7418 6.75C15.1399 6.75 15.5311 6.8548 15.8759 7.05388L22.3193 10.8553C22.6647 11.0495 22.9522 11.3319 23.1526 11.6736C23.353 12.0154 23.459 12.4042 23.4598 12.8004Z" fill="white"/>
<path d="M23.4601 19.5798C23.4601 19.9159 23.3266 20.2382 23.0889 20.4758C22.8513 20.7135 22.529 20.847 22.1929 20.847C21.8569 20.847 21.5346 20.7135 21.2969 20.4758C21.0593 20.2382 20.9258 19.9159 20.9258 19.5798C20.9271 19.3587 20.9863 19.1417 21.0974 18.9506C21.2086 18.7594 21.3678 18.6006 21.5594 18.4901V16.6717L22.8265 15.9368V18.4711C23.0208 18.5832 23.1819 18.745 23.2932 18.9398C23.4045 19.1346 23.4621 19.3555 23.4601 19.5798Z" fill="white"/>
</svg>
