<svg width="37" height="37" viewBox="0 0 37 37" fill="none" xmlns="http://www.w3.org/2000/svg">
<circle cx="18.5" cy="18.5" r="17.5" fill="white" stroke="#FF0000" stroke-width="2"/>
<mask id="path-2-outside-1_7227_17333" maskUnits="userSpaceOnUse" x="9.5" y="7.16663" width="18" height="24" fill="black">
<rect fill="white" x="9.5" y="7.16663" width="18" height="24"/>
<path d="M18.0333 9.16663C14.4307 9.16663 11.5 12.0973 11.5 15.7C11.5 20.6 18.0333 27.8333 18.0333 27.8333C18.0333 27.8333 24.5667 20.6 24.5667 15.7C24.5667 12.0973 21.636 9.16663 18.0333 9.16663ZM15.784 12.1253L18.0333 14.3746L20.2827 12.1253L21.608 13.4413L19.3493 15.7L21.608 17.9493L20.2827 19.2746L18.0333 17.016L15.784 19.2746L14.4587 17.9493L16.7173 15.7L14.4587 13.4413"/>
</mask>
<path d="M18.0333 9.16663C14.4307 9.16663 11.5 12.0973 11.5 15.7C11.5 20.6 18.0333 27.8333 18.0333 27.8333C18.0333 27.8333 24.5667 20.6 24.5667 15.7C24.5667 12.0973 21.636 9.16663 18.0333 9.16663ZM15.784 12.1253L18.0333 14.3746L20.2827 12.1253L21.608 13.4413L19.3493 15.7L21.608 17.9493L20.2827 19.2746L18.0333 17.016L15.784 19.2746L14.4587 17.9493L16.7173 15.7L14.4587 13.4413" fill="white"/>
<path d="M18.0333 27.8333L16.5491 29.1739L18.0333 30.8171L19.5175 29.1739L18.0333 27.8333ZM18.0333 14.3746L16.6191 15.7888L18.0333 17.2031L19.4475 15.7888L18.0333 14.3746ZM20.2827 12.1253L21.6919 10.7061L20.2777 9.30185L18.8685 10.7111L20.2827 12.1253ZM21.608 13.4413L23.0222 14.8555L24.4414 13.4363L23.0172 12.0221L21.608 13.4413ZM19.3493 15.7L17.9351 14.2857L16.518 15.7029L17.9381 17.1171L19.3493 15.7ZM21.608 17.9493L23.0222 19.3635L24.4394 17.9464L23.0193 16.5322L21.608 17.9493ZM20.2827 19.2746L18.8655 20.6859L20.2797 22.106L21.6969 20.6888L20.2827 19.2746ZM18.0333 17.016L19.4505 15.6047L18.0333 14.1817L16.6162 15.6047L18.0333 17.016ZM15.784 19.2746L14.3698 20.6888L15.7869 22.106L17.2011 20.6859L15.784 19.2746ZM14.4587 17.9493L13.0474 16.5322L11.6273 17.9464L13.0445 19.3635L14.4587 17.9493ZM16.7173 15.7L18.1286 17.1171L19.5487 15.7029L18.1315 14.2857L16.7173 15.7ZM18.0333 7.16663C13.3261 7.16663 9.5 10.9927 9.5 15.7H13.5C13.5 13.2019 15.5352 11.1666 18.0333 11.1666V7.16663ZM9.5 15.7C9.5 17.3296 10.0318 18.9989 10.6956 20.4807C11.3712 21.9887 12.2543 23.4563 13.1087 24.7227C13.967 25.9948 14.8213 27.1004 15.4596 27.8869C15.7796 28.2812 16.0475 28.5979 16.2374 28.8183C16.3324 28.9286 16.408 29.0149 16.461 29.0749C16.4875 29.1049 16.5083 29.1283 16.5232 29.1449C16.5306 29.1532 16.5365 29.1598 16.5408 29.1646C16.543 29.1671 16.5448 29.169 16.5462 29.1706C16.5469 29.1713 16.5475 29.172 16.5479 29.1726C16.5482 29.1728 16.5485 29.1732 16.5486 29.1733C16.5489 29.1736 16.5491 29.1739 18.0333 27.8333C19.5175 26.4927 19.5177 26.4929 19.5179 26.4931C19.5179 26.4932 19.5181 26.4933 19.5181 26.4934C19.5182 26.4935 19.5182 26.4935 19.5181 26.4934C19.5179 26.4931 19.5173 26.4925 19.5164 26.4914C19.5144 26.4893 19.511 26.4854 19.506 26.4799C19.4961 26.4688 19.4803 26.451 19.4589 26.4268C19.4162 26.3785 19.3515 26.3046 19.2678 26.2075C19.1004 26.0132 18.8579 25.7266 18.5654 25.3662C17.9787 24.6432 17.1997 23.6343 16.4246 22.4855C15.6457 21.3311 14.8955 20.0717 14.346 18.8453C13.7849 17.5927 13.5 16.5203 13.5 15.7H9.5ZM18.0333 27.8333C19.5175 29.1739 19.5178 29.1736 19.5181 29.1733C19.5182 29.1732 19.5185 29.1728 19.5187 29.1726C19.5192 29.172 19.5198 29.1713 19.5205 29.1706C19.5219 29.169 19.5237 29.1671 19.5258 29.1646C19.5302 29.1598 19.5361 29.1532 19.5435 29.1449C19.5583 29.1283 19.5792 29.1049 19.6057 29.0749C19.6587 29.0149 19.7343 28.9286 19.8293 28.8183C20.0191 28.5979 20.2871 28.2812 20.6071 27.8869C21.2454 27.1004 22.0997 25.9948 22.9579 24.7227C23.8124 23.4563 24.6955 21.9887 25.371 20.4807C26.0349 18.9989 26.5667 17.3296 26.5667 15.7H22.5667C22.5667 16.5203 22.2818 17.5927 21.7206 18.8453C21.1712 20.0717 20.421 21.3311 19.6421 22.4855C18.867 23.6343 18.088 24.6432 17.5013 25.3662C17.2088 25.7266 16.9663 26.0132 16.7988 26.2075C16.7152 26.3046 16.6504 26.3785 16.6077 26.4268C16.5864 26.451 16.5706 26.4688 16.5606 26.4799C16.5557 26.4854 16.5522 26.4893 16.5503 26.4914C16.5493 26.4925 16.5487 26.4931 16.5485 26.4934C16.5484 26.4935 16.5484 26.4935 16.5485 26.4934C16.5486 26.4933 16.5487 26.4932 16.5488 26.4931C16.5489 26.4929 16.5491 26.4927 18.0333 27.8333ZM26.5667 15.7C26.5667 10.9927 22.7406 7.16663 18.0333 7.16663V11.1666C20.5314 11.1666 22.5667 13.2019 22.5667 15.7H26.5667ZM14.3698 13.5395L16.6191 15.7888L19.4475 12.9604L17.1982 10.7111L14.3698 13.5395ZM19.4475 15.7888L21.6969 13.5395L18.8685 10.7111L16.6191 12.9604L19.4475 15.7888ZM18.8735 13.5445L20.1988 14.8605L23.0172 12.0221L21.6919 10.7061L18.8735 13.5445ZM20.1938 12.0271L17.9351 14.2857L20.7635 17.1142L23.0222 14.8555L20.1938 12.0271ZM17.9381 17.1171L20.1967 19.3664L23.0193 16.5322L20.7606 14.2828L17.9381 17.1171ZM20.1938 16.5351L18.8685 17.8604L21.6969 20.6888L23.0222 19.3635L20.1938 16.5351ZM21.6998 17.8633L19.4505 15.6047L16.6162 18.4272L18.8655 20.6859L21.6998 17.8633ZM16.6162 15.6047L14.3669 17.8633L17.2011 20.6859L19.4505 18.4272L16.6162 15.6047ZM17.1982 17.8604L15.8729 16.5351L13.0445 19.3635L14.3698 20.6888L17.1982 17.8604ZM15.8699 19.3664L18.1286 17.1171L15.3061 14.2828L13.0474 16.5322L15.8699 19.3664ZM18.1315 14.2857L15.8729 12.0271L13.0445 14.8555L15.3031 17.1142L18.1315 14.2857Z" fill="#FF0000" mask="url(#path-2-outside-1_7227_17333)"/>
</svg>
