<svg width="20" height="20" viewBox="0 0 20 20" fill="none" xmlns="http://www.w3.org/2000/svg">
<path d="M10.2463 7.51196C9.73332 7.4613 9.21726 7.57042 8.76874 7.82439C8.32022 8.07835 7.96116 8.46475 7.74072 8.93066C7.52028 9.39658 7.44924 9.91924 7.53733 10.4271C7.62541 10.9349 7.86832 11.4032 8.23278 11.7676C8.59725 12.1321 9.06546 12.375 9.57331 12.4631C10.0812 12.5512 10.6038 12.4801 11.0697 12.2597C11.5357 12.0392 11.922 11.6802 12.176 11.2317C12.43 10.7831 12.5391 10.2671 12.4884 9.75414C12.4307 9.17913 12.1759 8.64177 11.7673 8.23314C11.3586 7.8245 10.8213 7.56971 10.2463 7.51196V7.51196ZM16.2658 9.99985C16.2642 10.2716 16.2442 10.5429 16.206 10.812L17.972 12.1971C18.0489 12.2609 18.1008 12.3498 18.1183 12.4481C18.1358 12.5465 18.1179 12.6478 18.0677 12.7342L16.397 15.6248C16.3463 15.7104 16.267 15.7753 16.1731 15.8081C16.0792 15.8409 15.9767 15.8395 15.8838 15.8041L14.1299 15.0979C14.0331 15.0594 13.9284 15.0455 13.8249 15.0574C13.7215 15.0693 13.6227 15.1067 13.5373 15.1663C13.2696 15.3506 12.9883 15.5143 12.6959 15.6561C12.6039 15.7008 12.5244 15.7674 12.4643 15.8501C12.4042 15.9328 12.3654 16.0291 12.3513 16.1303L12.0884 18.001C12.0712 18.0998 12.0201 18.1895 11.944 18.2549C11.868 18.3202 11.7715 18.3571 11.6713 18.3592H8.32985C8.23123 18.3575 8.13614 18.3223 8.06024 18.2593C7.98433 18.1963 7.93214 18.1093 7.91227 18.0127L7.64977 16.1448C7.63503 16.0424 7.59523 15.9453 7.53389 15.862C7.47256 15.7787 7.3916 15.7119 7.29821 15.6674C7.00611 15.5264 6.72578 15.3622 6.45993 15.1764C6.37481 15.1172 6.27629 15.0801 6.17326 15.0684C6.07022 15.0567 5.9659 15.0709 5.8697 15.1096L4.11618 15.8155C4.02325 15.8509 3.92082 15.8523 3.82693 15.8196C3.73303 15.7869 3.6537 15.722 3.6029 15.6366L1.9322 12.7459C1.88197 12.6596 1.86402 12.5582 1.88154 12.4598C1.89907 12.3615 1.95093 12.2725 2.0279 12.2088L3.52048 11.037C3.60225 10.972 3.66652 10.8877 3.70744 10.7917C3.74837 10.6956 3.76467 10.5909 3.75485 10.487C3.74079 10.3241 3.7322 10.1616 3.7322 9.99867C3.7322 9.83578 3.7404 9.67563 3.75485 9.51625C3.7636 9.41294 3.7465 9.30908 3.70511 9.21402C3.66372 9.11897 3.59933 9.0357 3.51774 8.97172L2.02595 7.79985C1.95023 7.73582 1.89946 7.64719 1.88253 7.54949C1.8656 7.45178 1.8836 7.35124 1.93337 7.26547L3.60407 4.37485C3.65481 4.2893 3.73412 4.2244 3.82802 4.1916C3.92192 4.1588 4.02438 4.1602 4.11735 4.19555L5.87126 4.9018C5.96798 4.94031 6.07274 4.95422 6.17616 4.94229C6.27958 4.93036 6.37842 4.89296 6.46384 4.83344C6.73151 4.64911 7.01279 4.48536 7.30524 4.3436C7.39719 4.29891 7.47671 4.23227 7.5368 4.14957C7.59689 4.06686 7.63569 3.97063 7.64977 3.86938L7.91266 1.99868C7.92993 1.89988 7.98097 1.81015 8.05707 1.74481C8.13316 1.67948 8.22958 1.6426 8.32985 1.64047H11.6713C11.7699 1.64218 11.865 1.67743 11.9409 1.74041C12.0168 1.80339 12.069 1.89035 12.0888 1.98696L12.3513 3.85493C12.3661 3.9573 12.4059 4.05444 12.4672 4.13771C12.5285 4.22099 12.6095 4.28782 12.7029 4.33227C12.995 4.47327 13.2753 4.63747 13.5412 4.82328C13.6263 4.88251 13.7248 4.91962 13.8279 4.93128C13.9309 4.94294 14.0352 4.92879 14.1314 4.89008L15.8849 4.18422C15.9779 4.14884 16.0803 4.14738 16.1742 4.18011C16.2681 4.21283 16.3474 4.27765 16.3982 4.36313L18.0689 7.25375C18.1191 7.34012 18.1371 7.4415 18.1196 7.53986C18.102 7.63822 18.0502 7.72716 17.9732 7.79086L16.4806 8.96274C16.3985 9.02744 16.3339 9.11165 16.2926 9.20771C16.2513 9.30377 16.2347 9.40863 16.2443 9.51274C16.2572 9.67446 16.2658 9.83696 16.2658 9.99985Z" stroke="black" stroke-linecap="round" stroke-linejoin="round"/>
</svg>
