<svg width="30" height="30" viewBox="0 0 30 30" fill="none" xmlns="http://www.w3.org/2000/svg">
<circle cx="15" cy="15" r="15" fill="#B4AFAF"/>
<g clip-path="url(#clip0_7219_15044)">
<path d="M12.8648 8.78532L7.98808 13.6621C7.44195 14.2095 7.13525 14.9512 7.13525 15.7245C7.13525 16.4977 7.44195 17.2394 7.98808 17.7868L12.1129 21.9116C12.6603 22.4578 13.402 22.7645 14.1753 22.7645C14.9485 22.7645 15.6902 22.4578 16.2377 21.9116L21.1144 17.0349C21.335 16.8142 21.4926 16.5386 21.5709 16.2365C21.6491 15.9344 21.6452 15.617 21.5595 15.3169L20.0985 10.2022C20.0712 10.1068 20.0201 10.0199 19.95 9.94973C19.8798 9.87958 19.7929 9.82847 19.6975 9.80126L14.5828 8.34026C14.2828 8.25454 13.9653 8.25061 13.6632 8.32886C13.3611 8.40711 13.0855 8.56471 12.8648 8.78532ZM17.6813 12.2184C17.8037 12.3408 17.887 12.4967 17.9208 12.6664C17.9546 12.8361 17.9372 13.0121 17.871 13.1719C17.8048 13.3318 17.6926 13.4685 17.5487 13.5646C17.4048 13.6608 17.2357 13.7121 17.0626 13.7121C16.8896 13.7121 16.7204 13.6608 16.5765 13.5646C16.4326 13.4685 16.3204 13.3318 16.2542 13.1719C16.188 13.0121 16.1707 12.8361 16.2044 12.6664C16.2382 12.4967 16.3215 12.3408 16.4439 12.2184C16.608 12.0543 16.8306 11.9621 17.0626 11.9621C17.2947 11.9621 17.5172 12.0543 17.6813 12.2184Z" fill="white"/>
</g>
<defs>
<clipPath id="clip0_7219_15044">
<rect width="14" height="14" fill="white" transform="translate(15 5) rotate(45)"/>
</clipPath>
</defs>
</svg>
