<svg width="30" height="30" viewBox="0 0 30 30" fill="none" xmlns="http://www.w3.org/2000/svg">
<circle cx="15" cy="15" r="15" fill="#103036"/>
<g clip-path="url(#clip0_7227_16813)">
<path d="M16.4467 22.1942H21.998C22.6811 22.1942 23.1029 21.7187 23.1029 20.9754V12.4308C23.1029 11.6875 22.6811 11.2121 21.998 11.2121H16.4467C15.7704 11.2121 15.3418 11.6875 15.3418 12.4308V20.9754C15.3418 21.7187 15.7704 22.1942 16.4467 22.1942ZM17.1163 14.8415C16.9757 14.8415 16.882 14.7411 16.882 14.6005V13.529C16.882 13.3884 16.9757 13.2946 17.1163 13.2946H18.2279C18.3752 13.2946 18.4623 13.3884 18.4623 13.529V14.6005C18.4623 14.7411 18.3752 14.8415 18.2279 14.8415H17.1163ZM17.1163 17.4732C16.9757 17.4732 16.882 17.3795 16.882 17.2389V16.1674C16.882 16.0268 16.9757 15.933 17.1163 15.933H18.2279C18.3752 15.933 18.4623 16.0268 18.4623 16.1674V17.2389C18.4623 17.3795 18.3752 17.4732 18.2279 17.4732H17.1163ZM17.1163 20.1116C16.9757 20.1116 16.882 20.0178 16.882 19.8773V18.8058C16.882 18.6652 16.9757 18.5647 17.1163 18.5647H18.2279C18.3752 18.5647 18.4623 18.6652 18.4623 18.8058V19.8773C18.4623 20.0178 18.3752 20.1116 18.2279 20.1116H17.1163ZM20.2168 14.8415C20.0695 14.8415 19.9824 14.7411 19.9824 14.6005V13.529C19.9824 13.3884 20.0695 13.2946 20.2168 13.2946H21.3284C21.469 13.2946 21.5628 13.3884 21.5628 13.529V14.6005C21.5628 14.7411 21.469 14.8415 21.3284 14.8415H20.2168ZM20.2168 17.4732C20.0695 17.4732 19.9824 17.3795 19.9824 17.2389V16.1674C19.9824 16.0268 20.0695 15.933 20.2168 15.933H21.3284C21.469 15.933 21.5628 16.0268 21.5628 16.1674V17.2389C21.5628 17.3795 21.469 17.4732 21.3284 17.4732H20.2168ZM20.2168 20.1116C20.0695 20.1116 19.9824 20.0178 19.9824 19.8773V18.8058C19.9824 18.6652 20.0695 18.5647 20.2168 18.5647H21.3284C21.469 18.5647 21.5628 18.6652 21.5628 18.8058V19.8773C21.5628 20.0178 21.469 20.1116 21.3284 20.1116H20.2168Z" fill="white"/>
<path d="M8.45103 23.1049H16.4399C17.6519 23.1049 18.4622 22.1942 18.4622 20.9754V9.13616C18.4622 7.91741 17.6519 7 16.4399 7H8.45103C7.23898 7 6.42871 7.91741 6.42871 9.13616V20.9754C6.42871 22.1942 7.23898 23.1049 8.45103 23.1049Z" fill="#103036"/>
<path d="M7.33887 20.9754C7.33887 21.7187 7.76744 22.1942 8.45047 22.1942H16.4393C17.1156 22.1942 17.5442 21.7187 17.5442 20.9754V9.13615C17.5442 8.39285 17.1156 7.9174 16.4393 7.9174H8.45047C7.76744 7.9174 7.33887 8.39285 7.33887 9.13615V20.9754ZM10.1246 21.116V18.9397C10.1246 18.6317 10.3255 18.4308 10.6402 18.4308H14.3099C14.6246 18.4308 14.8188 18.6317 14.8188 18.9397V21.116H10.1246ZM9.9036 11.5134V10.2143C9.9036 10.0469 10.0107 9.92633 10.1848 9.92633H11.5174C11.6915 9.92633 11.8054 10.0469 11.8054 10.2143V11.5134C11.8054 11.6875 11.6915 11.8013 11.5174 11.8013H10.1848C10.0107 11.8013 9.9036 11.6875 9.9036 11.5134ZM13.138 11.5134V10.2143C13.138 10.0469 13.2451 9.92633 13.4192 9.92633H14.7518C14.9259 9.92633 15.0398 10.0469 15.0398 10.2143V11.5134C15.0398 11.6875 14.9259 11.8013 14.7518 11.8013H13.4192C13.2451 11.8013 13.138 11.6875 13.138 11.5134ZM9.9036 14.2455V12.9464C9.9036 12.779 10.0107 12.6585 10.1848 12.6585H11.5174C11.6915 12.6585 11.8054 12.779 11.8054 12.9464V14.2455C11.8054 14.4196 11.6915 14.5335 11.5174 14.5335H10.1848C10.0107 14.5335 9.9036 14.4196 9.9036 14.2455ZM13.138 14.2455V12.9464C13.138 12.779 13.2451 12.6585 13.4192 12.6585H14.7518C14.9259 12.6585 15.0398 12.779 15.0398 12.9464V14.2455C15.0398 14.4196 14.9259 14.5335 14.7518 14.5335H13.4192C13.2451 14.5335 13.138 14.4196 13.138 14.2455ZM9.9036 16.9776V15.6786C9.9036 15.5044 10.0107 15.3906 10.1848 15.3906H11.5174C11.6915 15.3906 11.8054 15.5044 11.8054 15.6786V16.9776C11.8054 17.1451 11.6915 17.2656 11.5174 17.2656H10.1848C10.0107 17.2656 9.9036 17.1451 9.9036 16.9776ZM13.138 16.9776V15.6786C13.138 15.5044 13.2451 15.3906 13.4192 15.3906H14.7518C14.9259 15.3906 15.0398 15.5044 15.0398 15.6786V16.9776C15.0398 17.1451 14.9259 17.2656 14.7518 17.2656H13.4192C13.2451 17.2656 13.138 17.1451 13.138 16.9776Z" fill="white"/>
</g>
<defs>
<clipPath id="clip0_7227_16813">
<rect width="16.6741" height="16.1049" fill="white" transform="translate(6.42871 7)"/>
</clipPath>
</defs>
</svg>
