<svg width="30" height="30" viewBox="0 0 30 30" fill="none" xmlns="http://www.w3.org/2000/svg">
<circle cx="15" cy="15" r="15" fill="#B4AFAF"/>
<path d="M8.41645 21.3357C8.41645 22.3776 9.05312 22.9998 10.1384 22.9998H20.1514C21.2367 22.9998 21.8589 22.3776 21.8589 21.3357V15.3018L15.5935 10.0348C15.304 9.78881 14.9713 9.80328 14.6818 10.0348L8.41645 15.2874V21.3357ZM17.1128 21.5527H13.177V16.7198C13.177 16.3726 13.4086 16.1411 13.7702 16.1411H16.5195C16.8958 16.1411 17.1128 16.3726 17.1128 16.7198V21.5527ZM6 14.5204C6 14.8532 6.26045 15.186 6.69455 15.186C6.92607 15.186 7.0997 15.0558 7.25887 14.9111L14.7977 8.60229C15.0436 8.38524 15.2607 8.41418 15.4922 8.60229L23.0164 14.9111C23.2046 15.0558 23.3638 15.186 23.5808 15.186C23.9569 15.186 24.2754 14.9256 24.2754 14.5493C24.2754 14.3034 24.203 14.1442 24.0293 13.9851L16.1868 7.40129C15.55 6.86591 14.7397 6.86591 14.1176 7.40129L6.24598 13.9851C6.08682 14.1442 6 14.3323 6 14.5204ZM19.9489 11.0766L21.8589 12.6972V9.16661C21.8589 8.84827 21.6564 8.61676 21.3235 8.61676H20.4988C20.1803 8.61676 19.9489 8.84827 19.9489 9.16661V11.0766Z" fill="white"/>
</svg>
