<svg width="12" height="7" viewBox="0 0 12 7" fill="none" xmlns="http://www.w3.org/2000/svg">
<path d="M12 0.886977C12 1.13166 11.9079 1.33811 11.7238 1.50633L6.76151 6.0865C6.53556 6.3006 6.29289 6.4 6 6.4C5.70711 6.4 5.45607 6.3006 5.23849 6.09414L0.276151 1.50633C0.0920502 1.33811 0 1.13166 0 0.886977C0 0.39761 0.426778 0 0.962343 0C1.23013 0 1.4728 0.0994026 1.67364 0.275269L6.00837 4.29725L10.3347 0.275269C10.5272 0.0994026 10.7699 0 11.0377 0C11.5732 0 12 0.39761 12 0.886977Z" fill="#103036"/>
</svg>
