<svg width="30" height="30" viewBox="0 0 30 30" fill="none" xmlns="http://www.w3.org/2000/svg">
<circle cx="15" cy="15" r="15" fill="#103036"/>
<path d="M15.0952 7C17.6171 7 19.6667 9.02667 19.6667 11.5333C19.6667 14.9314 15.0952 19.9524 15.0952 19.9524C15.0952 19.9524 10.5238 14.9314 10.5238 11.5333C10.5238 9.02667 12.5733 7 15.0952 7ZM15.0952 10.0476C14.6911 10.0476 14.3035 10.2082 14.0177 10.4939C13.732 10.7797 13.5714 11.1673 13.5714 11.5714C13.5714 11.9756 13.732 12.3632 14.0177 12.6489C14.3035 12.9347 14.6911 13.0952 15.0952 13.0952C15.4994 13.0952 15.887 12.9347 16.1727 12.6489C16.4585 12.3632 16.619 11.9756 16.619 11.5714C16.619 11.1673 16.4585 10.7797 16.1727 10.4939C15.887 10.2082 15.4994 10.0476 15.0952 10.0476ZM21.1905 19.9524C21.1905 21.6362 18.4629 23 15.0952 23C11.7276 23 9 21.6362 9 19.9524C9 18.9695 9.92952 18.0933 11.3695 17.5371L11.8571 18.2305C11.0343 18.5733 10.5238 19.0457 10.5238 19.5714C10.5238 20.6229 12.5733 21.4762 15.0952 21.4762C17.6171 21.4762 19.6667 20.6229 19.6667 19.5714C19.6667 19.0457 19.1562 18.5733 18.3333 18.2305L18.821 17.5371C20.261 18.0933 21.1905 18.9695 21.1905 19.9524Z" fill="white"/>
</svg>
