<svg width="134" height="134" viewBox="0 0 134 134" fill="none" xmlns="http://www.w3.org/2000/svg">
<circle opacity="0.2" cx="66.6804" cy="66.6804" r="66.6804" fill="#1F606C"/>
<g filter="url(#filter0_d_7219_14299)">
<circle cx="67" cy="67" r="20" fill="white"/>
</g>
<path fill-rule="evenodd" clip-rule="evenodd" d="M66.4667 56C62.3387 56 59 59.3387 59 63.4667C59 69.0667 66.4667 77.3333 66.4667 77.3333C66.4667 77.3333 73.9333 69.0667 73.9333 63.4667C73.9333 59.3387 70.5947 56 66.4667 56ZM66.4667 66.133C64.9947 66.133 63.8 64.9384 63.8 63.4664C63.8 61.9944 64.9947 60.7997 66.4667 60.7997C67.9387 60.7997 69.1334 61.9944 69.1334 63.4664C69.1334 64.9384 67.9387 66.133 66.4667 66.133Z" fill="#1F606C"/>
<defs>
<filter id="filter0_d_7219_14299" x="24.3333" y="24.3333" width="93.3333" height="93.3333" filterUnits="userSpaceOnUse" color-interpolation-filters="sRGB">
<feFlood flood-opacity="0" result="BackgroundImageFix"/>
<feColorMatrix in="SourceAlpha" type="matrix" values="0 0 0 0 0 0 0 0 0 0 0 0 0 0 0 0 0 0 127 0" result="hardAlpha"/>
<feOffset dx="4" dy="4"/>
<feGaussianBlur stdDeviation="13.3333"/>
<feComposite in2="hardAlpha" operator="out"/>
<feColorMatrix type="matrix" values="0 0 0 0 0 0 0 0 0 0 0 0 0 0 0 0 0 0 0.25 0"/>
<feBlend mode="normal" in2="BackgroundImageFix" result="effect1_dropShadow_7219_14299"/>
<feBlend mode="normal" in="SourceGraphic" in2="effect1_dropShadow_7219_14299" result="shape"/>
</filter>
</defs>
</svg>
