<svg width="14" height="14" viewBox="0 0 14 14" fill="none" xmlns="http://www.w3.org/2000/svg">
<path d="M4.08398 2.91673H12.2507V4.08339H4.08398V2.91673ZM4.08398 7.58339V6.41673H12.2507V7.58339H4.08398ZM2.33398 2.62506C2.56605 2.62506 2.78861 2.71725 2.9527 2.88134C3.1168 3.04544 3.20898 3.268 3.20898 3.50006C3.20898 3.73213 3.1168 3.95469 2.9527 4.11878C2.78861 4.28287 2.56605 4.37506 2.33398 4.37506C2.10192 4.37506 1.87936 4.28287 1.71527 4.11878C1.55117 3.95469 1.45898 3.73213 1.45898 3.50006C1.45898 3.268 1.55117 3.04544 1.71527 2.88134C1.87936 2.71725 2.10192 2.62506 2.33398 2.62506ZM2.33398 6.12506C2.56605 6.12506 2.78861 6.21725 2.9527 6.38134C3.1168 6.54544 3.20898 6.768 3.20898 7.00006C3.20898 7.23212 3.1168 7.45468 2.9527 7.61878C2.78861 7.78287 2.56605 7.87506 2.33398 7.87506C2.10192 7.87506 1.87936 7.78287 1.71527 7.61878C1.55117 7.45468 1.45898 7.23212 1.45898 7.00006C1.45898 6.768 1.55117 6.54544 1.71527 6.38134C1.87936 6.21725 2.10192 6.12506 2.33398 6.12506ZM4.08398 11.0834V9.91673H12.2507V11.0834H4.08398ZM2.33398 9.62506C2.56605 9.62506 2.78861 9.71725 2.9527 9.88134C3.1168 10.0454 3.20898 10.268 3.20898 10.5001C3.20898 10.7321 3.1168 10.9547 2.9527 11.1188C2.78861 11.2829 2.56605 11.3751 2.33398 11.3751C2.10192 11.3751 1.87936 11.2829 1.71527 11.1188C1.55117 10.9547 1.45898 10.7321 1.45898 10.5001C1.45898 10.268 1.55117 10.0454 1.71527 9.88134C1.87936 9.71725 2.10192 9.62506 2.33398 9.62506Z" fill="white"/>
</svg>
