<svg width="13" height="12" viewBox="0 0 13 12" fill="none" xmlns="http://www.w3.org/2000/svg">
<path d="M0 11.0625C0 11.5196 0.2461 11.7774 0.69141 11.7774C0.85547 11.7774 1.00782 11.7188 1.20704 11.6133L3.77344 10.2188V0.10547C3.66797 0.15235 3.55079 0.21094 3.42188 0.28126L0.52735 1.9336C0.14063 2.15626 0 2.41407 0 2.84766V11.0625ZM4.60548 10.1016L7.68748 11.836C7.78128 11.8946 7.88668 11.9297 7.96878 11.9531V1.98047L4.95708 0.14063C4.83988 0.0703198 4.73438 0.02344 4.60548 0V10.1016ZM8.80078 11.9297C8.85938 11.918 8.91798 11.8946 8.98828 11.8594L12.1641 10.0547C12.5508 9.83208 12.7031 9.57418 12.7031 9.15238V0.90235C12.7031 0.45704 12.4453 0.21094 12.0117 0.21094C11.8477 0.21094 11.6953 0.26954 11.4961 0.375L8.80078 1.86329V11.9297Z" fill="white"/>
</svg>
