<svg width="15" height="14" viewBox="0 0 15 14" fill="none" xmlns="http://www.w3.org/2000/svg">
<path d="M14.6162 1.57422C14.6162 2.25977 14.3057 2.92773 13.6846 3.57812L13.5879 3.6748L8.15625 9.39648C7.00195 10.6094 6.01758 11.5469 5.20312 12.209C4.39453 12.8711 3.82324 13.2021 3.48926 13.2021C3.1377 13.2021 2.70117 13.0381 2.17969 12.71C1.6582 12.376 1.32129 12.0332 1.16895 11.6816C1.04004 11.3887 0.916992 10.7676 0.799805 9.81836C0.688477 8.86914 0.632812 7.84082 0.632812 6.7334C0.632812 6.12988 0.884766 5.57324 1.38867 5.06348C1.89258 4.54785 2.44922 4.29004 3.05859 4.29004C3.63867 4.29004 3.98438 4.82031 4.0957 5.88086C4.10742 6.00391 4.11621 6.09473 4.12207 6.15332C4.21582 6.96777 4.32422 7.53613 4.44727 7.8584C4.57031 8.18066 4.7373 8.3418 4.94824 8.3418C5.03613 8.3418 5.2002 8.24805 5.44043 8.06055C5.68066 7.86719 5.96777 7.60645 6.30176 7.27832L11.8828 1.75C12.3516 1.28125 12.7705 0.926758 13.1396 0.686523C13.5088 0.446289 13.8223 0.326172 14.0801 0.326172C14.2734 0.326172 14.4111 0.399414 14.4932 0.545898C14.5752 0.692383 14.6162 0.938477 14.6162 1.28418V1.57422Z" fill="#B4AFAF"/>
</svg>
