<svg width="37" height="45" viewBox="0 0 37 45" fill="none" xmlns="http://www.w3.org/2000/svg">
<path d="M31.0557 6.18551H24.3185C23.9824 3.27126 21.5029 1 18.5 1C15.4971 1 13.0179 3.27117 12.6819 6.18551H5.94435C3.21787 6.18551 1 8.40401 1 11.1304V11.3841C1 13.4676 2.2973 15.2509 4.12482 15.9775V39.3368C4.12482 42.0633 6.34296 44.2817 9.06926 44.2817H27.9308C30.6572 44.2817 32.8752 42.0631 32.8752 39.3368V15.9776C34.7026 15.2509 36 13.4676 36 11.3842V11.1305C36 8.40401 33.7819 6.18551 31.0557 6.18551ZM18.5 3.34509C20.2079 3.34509 21.6335 4.56927 21.9489 6.18551H15.0516C15.367 4.56918 16.7927 3.34509 18.5 3.34509ZM30.5301 39.3368C30.5301 40.7703 29.3638 41.9367 27.9307 41.9367H9.06917C7.63613 41.9367 6.46982 40.7702 6.46982 39.3368V16.329H30.5301V39.3368ZM33.6549 11.3841C33.6549 12.8176 32.4886 13.984 31.0556 13.984H5.94435C4.51131 13.984 3.345 12.8176 3.345 11.3841V11.1304C3.345 9.69691 4.51131 8.53051 5.94435 8.53051H31.0557C32.4887 8.53051 33.655 9.69691 33.655 11.1304L33.6549 11.3841Z" fill="#FF9501" stroke="#FF9501"/>
<path d="M12.2125 38.9376C12.8601 38.9376 13.385 38.4125 13.385 37.7652V24.5631C13.385 23.9157 12.86 23.3905 12.2125 23.3905C11.5651 23.3905 11.04 23.9157 11.04 24.5631V37.7652C11.0399 38.4127 11.565 38.9376 12.2125 38.9376Z" fill="#FF9501" stroke="#FF9501"/>
<path d="M18.5006 38.9376C19.1482 38.9376 19.6732 38.4125 19.6732 37.7652V24.5631C19.6732 23.9157 19.148 23.3905 18.5006 23.3905C17.8531 23.3905 17.3281 23.9157 17.3281 24.5631V37.7652C17.3281 38.4127 17.8531 38.9376 18.5006 38.9376Z" fill="#FF9501" stroke="#FF9501"/>
<path d="M24.7859 38.9376C25.4334 38.9376 25.9583 38.4125 25.9583 37.7652V24.5631C25.9583 23.9157 25.4333 23.3905 24.7859 23.3905C24.1382 23.3905 23.6133 23.9157 23.6133 24.5631V37.7652C23.6132 38.4127 24.1384 38.9376 24.7859 38.9376Z" fill="#FF9501" stroke="#FF9501"/>
</svg>
