<svg width="80" height="81" viewBox="0 0 80 81" fill="none" xmlns="http://www.w3.org/2000/svg">
<circle cx="40" cy="40.8701" r="38.5" fill="white" stroke="#1F606C" stroke-width="3"/>
<path d="M29.5195 27.782C29.5195 21.6283 32.9902 17.4316 40.2204 17.4316C47.4505 17.4316 50.923 21.6288 50.923 27.782C50.923 33.9351 47.4523 38.1327 40.2222 38.1327C32.992 38.1327 29.5195 33.9356 29.5195 27.782Z" fill="#1F606C"/>
<path d="M21.7329 61.4591L58.7135 61.4591C59.1279 61.4595 59.5379 61.3748 59.9172 61.2105C60.2964 61.0461 60.6367 60.8056 60.9161 60.5045C61.1956 60.2034 61.4081 59.8482 61.5401 59.4617C61.6721 59.0752 61.7206 58.6658 61.6827 58.2598C60.477 45.8214 52.0938 39.8327 40.2232 39.833C28.3526 39.8333 19.971 45.823 18.7627 58.2588C18.7246 58.665 18.7731 59.0746 18.9051 59.4613C19.0371 59.848 19.2497 60.2033 19.5292 60.5046C19.8088 60.8058 20.1492 61.0463 20.5287 61.2107C20.9081 61.375 21.3183 61.4597 21.7329 61.4591Z" fill="#1F606C"/>
<circle cx="58.245" cy="55.9462" r="10.6981" fill="white"/>
<path d="M62.5437 55.5192H57.8188M57.8188 55.5192H53.0938M57.8188 55.5192V60.2439M57.8188 55.5192V50.7939" stroke="#1F606C" stroke-width="3" stroke-linecap="round"/>
</svg>
