<svg width="7" height="12" viewBox="0 0 7 12" fill="none" xmlns="http://www.w3.org/2000/svg">
    <path d="M6.02987 11.5104C5.76225 11.5104 5.53644 11.4256 5.35245 11.2559L0.342891 6.68262C0.108722 6.47439 0 6.25074 0 5.98081C0 5.71088 0.108722 5.47952 0.334528 5.279L5.35245 0.705674C5.53644 0.536006 5.76225 0.451172 6.02987 0.451172C6.56511 0.451172 7 0.844493 7 1.33807C7 1.58486 6.89128 1.80852 6.69892 1.99361L2.29988 5.98852L6.69892 9.97572C6.89128 10.1531 7 10.3768 7 10.6235C7 11.1171 6.56511 11.5104 6.02987 11.5104Z" fill="#1F606C"/>
    </svg>
    