<svg width="8" height="15" viewBox="0 0 8 15" fill="none" xmlns="http://www.w3.org/2000/svg">
    <path d="M6.89128 -8.56747e-07C6.58542 -8.30008e-07 6.32736 0.115062 6.11708 0.345187L0.391876 6.54812C0.124254 6.83054 2.65997e-07 7.13389 2.98003e-07 7.5C3.3001e-07 7.86611 0.124254 8.17992 0.382318 8.45188L6.11709 14.6548C6.32736 14.8849 6.58542 15 6.89128 15C7.50299 15 8 14.4665 8 13.7971C8 13.4623 7.87575 13.159 7.65591 12.9079L2.62843 7.48954L7.65591 2.08159C7.87575 1.841 8 1.53766 8 1.20293C8 0.533472 7.50299 -9.10224e-07 6.89128 -8.56747e-07Z" fill="#1F606C"/>
</svg>