<svg width="8" height="15" viewBox="0 0 8 15" fill="none" xmlns="http://www.w3.org/2000/svg">
    <path d="M1.10872 15C1.41458 15 1.67264 14.8849 1.88291 14.6548L7.60812 8.45188C7.87575 8.16946 8 7.86611 8 7.5C8 7.13389 7.87575 6.82008 7.61768 6.54812L1.88291 0.345188C1.67264 0.115063 1.41458 0 1.10872 0C0.497013 0 0 0.533473 0 1.20293C0 1.53766 0.124253 1.841 0.344086 2.09205L5.37156 7.51046L0.344086 12.9184C0.124253 13.159 0 13.4623 0 13.7971C0 14.4665 0.497013 15 1.10872 15Z" fill="#1F606C"/>
    </svg>
    