<svg width="7" height="12" viewBox="0 0 7 12" fill="none" xmlns="http://www.w3.org/2000/svg">
    <path d="M0.97013 11.5104C1.23775 11.5104 1.46356 11.4256 1.64755 11.2559L6.65711 6.68262C6.89128 6.47439 7 6.25074 7 5.98081C7 5.71088 6.89128 5.47952 6.66547 5.279L1.64755 0.705674C1.46356 0.536006 1.23775 0.451172 0.97013 0.451172C0.434889 0.451172 0 0.844493 0 1.33807C0 1.58486 0.108722 1.80852 0.301078 1.99361L4.70012 5.98852L0.301078 9.97572C0.108722 10.1531 0 10.3768 0 10.6235C0 11.1171 0.434889 11.5104 0.97013 11.5104Z" fill="#1F606C"/>
</svg>
