<svg width="327" height="52" viewBox="0 0 327 52" fill="none" xmlns="http://www.w3.org/2000/svg">
<path d="M214.046 51.9617C213.803 51.9627 213.568 51.8787 213.38 51.7243C213.186 51.5676 213.048 51.3523 212.986 51.1106C212.956 50.9955 212.939 50.8774 212.934 50.7585C212.927 50.6259 212.927 50.4978 212.927 50.3625V1.59832C212.927 1.46931 212.927 1.33582 212.934 1.20233C212.939 1.08317 212.957 0.964889 212.986 0.849351C213.048 0.60798 213.186 0.393064 213.38 0.236562C213.569 0.0835184 213.804 0 214.047 0C214.289 0 214.525 0.0835184 214.713 0.236562C214.907 0.393064 215.045 0.60798 215.107 0.849351C215.14 0.964072 215.158 1.08285 215.159 1.20233C215.165 1.33492 215.165 1.4711 215.165 1.59832V50.3625C215.165 50.4978 215.165 50.6259 215.159 50.7585C215.158 50.8777 215.141 50.9962 215.107 51.1106C215.045 51.3523 214.907 51.5676 214.713 51.7243C214.525 51.8778 214.289 51.9617 214.046 51.9617ZM166.181 50.1699C165.937 50.1736 165.701 50.0893 165.514 49.9325C165.32 49.7758 165.182 49.5605 165.12 49.3188C165.092 49.2034 165.074 49.0855 165.068 48.9667C165.062 48.8341 165.062 48.698 165.062 48.5708V3.39278C165.062 3.26198 165.062 3.12402 165.068 2.99411C165.071 2.87501 165.088 2.75668 165.12 2.64203C165.182 2.40066 165.32 2.18574 165.514 2.02924C165.701 1.87245 165.937 1.78816 166.181 1.79183C166.423 1.79178 166.659 1.87563 166.847 2.02924C167.04 2.18609 167.178 2.40086 167.241 2.64203C167.275 2.75619 167.293 2.87483 167.293 2.99411C167.299 3.1267 167.299 3.26288 167.299 3.3901V48.5681C167.299 48.6989 167.299 48.8368 167.293 48.9667C167.281 49.0849 167.264 49.2024 167.241 49.3188C167.179 49.5603 167.041 49.7754 166.847 49.9325C166.659 50.0859 166.423 50.1697 166.181 50.1699ZM144.708 50.1699C144.465 50.1744 144.228 50.09 144.042 49.9325C143.849 49.7753 143.711 49.5602 143.649 49.3188C143.619 49.2036 143.602 49.0856 143.596 48.9667C143.59 48.8341 143.59 48.698 143.59 48.5708V3.39278C143.59 3.26198 143.59 3.12402 143.596 2.99411C143.602 2.87525 143.619 2.75727 143.649 2.64203C143.71 2.40124 143.846 2.18622 144.037 2.02834C144.225 1.87013 144.463 1.786 144.708 1.79183C144.951 1.79178 145.187 1.87563 145.375 2.02924C145.569 2.18574 145.707 2.40066 145.769 2.64203C145.801 2.75667 145.818 2.87501 145.82 2.99411C145.827 3.1267 145.827 3.26288 145.827 3.3901V48.5681C145.827 48.6989 145.827 48.8368 145.82 48.9667C145.813 49.0853 145.795 49.2031 145.769 49.3188C145.707 49.5605 145.569 49.7758 145.375 49.9325C145.186 50.0856 144.951 50.1694 144.708 50.1699ZM160.813 49.274C160.569 49.2785 160.332 49.1941 160.146 49.0366C159.953 48.8794 159.815 48.6643 159.753 48.4229C159.723 48.3077 159.706 48.1897 159.7 48.0708C159.694 47.9383 159.694 47.8101 159.694 47.6749V4.28599C159.694 4.15608 159.694 4.0226 159.7 3.88911C159.706 3.77024 159.724 3.65226 159.753 3.53702C159.814 3.29656 159.95 3.08187 160.142 2.92423C160.329 2.76602 160.568 2.68189 160.813 2.68772C161.055 2.68796 161.291 2.77178 161.479 2.92513C161.673 3.08163 161.811 3.29655 161.873 3.53792C161.902 3.65317 161.919 3.77116 161.925 3.89C161.931 4.0226 161.931 4.15877 161.931 4.28688V47.6749C161.931 47.8101 161.931 47.9374 161.925 48.0708C161.919 48.1896 161.902 48.3076 161.873 48.4229C161.811 48.6646 161.673 48.8799 161.479 49.0366C161.291 49.19 161.055 49.2738 160.813 49.274ZM240.886 48.3781C240.643 48.381 240.406 48.2968 240.22 48.1407C240.026 47.9834 239.888 47.768 239.826 47.5261C239.793 47.412 239.775 47.2938 239.774 47.175C239.768 47.0415 239.768 46.9142 239.768 46.779V5.18457C239.768 5.05377 239.768 4.9158 239.774 4.78589C239.775 4.66644 239.793 4.54771 239.826 4.43291C239.888 4.19154 240.026 3.97663 240.22 3.82012C240.408 3.66661 240.643 3.58279 240.886 3.58279C241.129 3.58279 241.364 3.66661 241.553 3.82012C241.746 3.97663 241.884 4.19154 241.946 4.43291C241.976 4.54845 241.994 4.66673 241.999 4.78589C242.005 4.91849 242.005 5.05466 242.005 5.18188V46.7763C242.005 46.9134 242.005 47.0451 241.999 47.175C241.994 47.2935 241.976 47.4112 241.946 47.5261C241.884 47.768 241.746 47.9834 241.553 48.1407C241.366 48.2974 241.13 48.3816 240.886 48.3781ZM176.917 47.0343C176.673 47.0388 176.436 46.9544 176.25 46.7969C176.057 46.6397 175.919 46.4246 175.857 46.1832C175.828 46.068 175.81 45.95 175.805 45.8311C175.798 45.6985 175.798 45.5624 175.798 45.4351V6.5284C175.798 6.3976 175.798 6.25963 175.805 6.12973C175.81 6.01058 175.828 5.89231 175.857 5.77675C175.918 5.53629 176.054 5.3216 176.246 5.16396C176.435 5.01157 176.67 4.92815 176.912 4.92744C177.155 4.92714 177.39 5.01067 177.579 5.16396C177.772 5.32081 177.91 5.53558 177.972 5.77675C178.001 5.8925 178.018 6.01069 178.024 6.12973C178.031 6.26232 178.031 6.3985 178.031 6.52571V45.4324C178.031 45.5632 178.031 45.7012 178.024 45.8311C178.02 45.9501 178.003 46.0682 177.972 46.1832C177.911 46.4249 177.773 46.6402 177.579 46.7969C177.391 46.949 177.158 47.0327 176.917 47.0343ZM139.34 43.8987C139.097 43.9015 138.861 43.8173 138.674 43.6613C138.48 43.5045 138.342 43.2893 138.28 43.0476C138.251 42.9324 138.233 42.8144 138.228 42.6955C138.223 42.5629 138.223 42.4348 138.223 42.2995V9.66402C138.223 9.53322 138.223 9.39525 138.228 9.26445C138.233 9.14529 138.25 9.02698 138.28 8.91147C138.342 8.6701 138.48 8.45518 138.674 8.29868C138.863 8.14668 139.098 8.06359 139.34 8.06306C139.583 8.06259 139.818 8.14616 140.006 8.29958C140.2 8.45608 140.338 8.67099 140.4 8.91236C140.43 9.02783 140.447 9.14615 140.452 9.26535C140.458 9.39883 140.458 9.53411 140.458 9.66133V42.2968C140.458 42.4339 140.458 42.5656 140.452 42.6955C140.447 42.8144 140.429 42.9324 140.4 43.0476C140.338 43.2893 140.2 43.5045 140.006 43.6613C139.82 43.8176 139.583 43.9019 139.34 43.8987ZM91.475 43.8987C91.2317 43.9015 90.9954 43.8173 90.8085 43.6613C90.6151 43.5042 90.4771 43.2891 90.4148 43.0476C90.3943 42.9464 90.3791 42.8415 90.363 42.6955C90.3567 42.5629 90.3567 42.4348 90.3567 42.2995V9.66402C90.3567 9.53322 90.3567 9.39525 90.363 9.26445C90.374 9.14596 90.3913 9.02813 90.4148 8.91147C90.4772 8.6703 90.6152 8.45553 90.8085 8.29868C90.9975 8.14668 91.2326 8.06359 91.475 8.06306C91.7178 8.06276 91.9532 8.14629 92.1416 8.29958C92.3353 8.45608 92.4733 8.67099 92.5352 8.91236C92.5639 9.02806 92.5813 9.14628 92.5871 9.26535C92.5934 9.39883 92.5934 9.53411 92.5934 9.66133V42.2995C92.5934 42.4348 92.5934 42.5629 92.5871 42.6955C92.5818 42.8143 92.5644 42.9323 92.5352 43.0476C92.4735 43.2893 92.3354 43.5045 92.1416 43.6613C91.9532 43.8146 91.7178 43.8984 91.475 43.8987ZM192.574 42.1069C192.33 42.11 192.094 42.0258 191.907 41.8695C191.713 41.7128 191.575 41.4975 191.513 41.2558C191.479 41.1416 191.462 41.023 191.461 40.9037C191.455 40.7711 191.455 40.635 191.455 40.5077V11.4558C191.455 11.325 191.455 11.187 191.461 11.0571C191.462 10.9379 191.479 10.8193 191.513 10.705C191.575 10.4637 191.713 10.2488 191.907 10.0923C192.094 9.93595 192.33 9.85174 192.574 9.85484C192.816 9.85441 193.051 9.93832 193.239 10.0923C193.433 10.2488 193.571 10.4637 193.633 10.705C193.662 10.8203 193.68 10.9383 193.686 11.0571C193.692 11.1897 193.692 11.3259 193.692 11.4531V40.5051C193.692 40.6358 193.692 40.7738 193.686 40.9037C193.68 41.0226 193.662 41.1406 193.633 41.2558C193.571 41.4975 193.433 41.7128 193.239 41.8695C193.053 42.0269 192.817 42.1112 192.574 42.1069ZM150.076 41.659C149.834 41.6575 149.599 41.5738 149.41 41.4215C149.216 41.2648 149.078 41.0496 149.016 40.8079C148.984 40.6932 148.966 40.5749 148.964 40.4558C148.958 40.3232 148.958 40.1951 148.958 40.0598V11.9037C148.958 11.7729 148.958 11.635 148.964 11.5051C148.969 11.3859 148.987 11.2676 149.016 11.1521C149.078 10.9107 149.216 10.6958 149.41 10.5393C149.599 10.387 149.834 10.3036 150.076 10.3028C150.319 10.3025 150.555 10.386 150.743 10.5393C150.936 10.6961 151.074 10.9109 151.137 11.1521C151.161 11.2686 151.178 11.3865 151.188 11.5051C151.195 11.6377 151.195 11.7738 151.195 11.9011V40.0598C151.195 40.1951 151.195 40.3232 151.188 40.4558C151.179 40.5741 151.161 40.6917 151.137 40.8079C151.074 41.0494 150.936 41.2645 150.743 41.4215C150.555 41.5752 150.319 41.659 150.076 41.659ZM197.942 41.211C197.699 41.2134 197.463 41.1293 197.276 40.9736C197.082 40.8169 196.944 40.6016 196.882 40.3599C196.852 40.2448 196.834 40.1268 196.83 40.0078C196.823 39.8752 196.823 39.7471 196.823 39.6118V12.3517C196.823 12.2209 196.823 12.0829 196.83 11.9521C196.834 11.8332 196.852 11.7151 196.882 11.6C196.944 11.3587 197.082 11.1438 197.276 10.9872C197.462 10.8307 197.699 10.7467 197.942 10.7507C198.184 10.751 198.42 10.8348 198.608 10.9881C198.802 11.1446 198.94 11.3596 199.002 11.6009C199.036 11.7152 199.053 11.8338 199.054 11.953C199.06 12.0865 199.06 12.2218 199.06 12.3499V39.6092C199.06 39.7462 199.06 39.8779 199.054 40.0078C199.053 40.1271 199.036 40.2456 199.002 40.3599C198.94 40.6016 198.802 40.8169 198.608 40.9736C198.42 41.1269 198.184 41.2108 197.942 41.211ZM107.579 41.211C107.336 41.2141 107.099 41.1299 106.913 40.9736C106.719 40.8165 106.581 40.6014 106.519 40.3599C106.495 40.2436 106.478 40.1261 106.467 40.0078C106.461 39.8752 106.461 39.7471 106.461 39.6118V12.3517C106.461 12.2209 106.461 12.0829 106.467 11.9521C106.466 11.8327 106.483 11.7139 106.519 11.6C106.581 11.3589 106.719 11.1441 106.913 10.9872C107.099 10.8303 107.336 10.7463 107.579 10.7507C107.822 10.751 108.057 10.8348 108.246 10.9881C108.439 11.1446 108.577 11.3596 108.639 11.6009C108.669 11.7161 108.687 11.8341 108.691 11.953C108.698 12.0865 108.698 12.2218 108.698 12.3499V39.6118C108.698 39.7471 108.698 39.8743 108.691 40.0078C108.686 40.1267 108.669 40.2447 108.639 40.3599C108.578 40.6016 108.44 40.8169 108.246 40.9736C108.057 41.1269 107.822 41.2108 107.579 41.211ZM96.8431 41.211C96.5996 41.2147 96.363 41.1304 96.1766 40.9736C95.9827 40.8169 95.8447 40.6016 95.7829 40.3599C95.753 40.2448 95.7356 40.1267 95.731 40.0078C95.7248 39.8752 95.7248 39.7471 95.7248 39.6118V12.3517C95.7248 12.2209 95.7248 12.0829 95.731 11.9521C95.733 11.833 95.7505 11.7147 95.7829 11.6C95.8448 11.3587 95.9829 11.1438 96.1766 10.9872C96.3631 10.8308 96.5998 10.7468 96.8431 10.7507C97.0859 10.751 97.3212 10.8348 97.5096 10.9881C97.7026 11.1451 97.8402 11.3599 97.9024 11.6009C97.9321 11.7161 97.9498 11.8341 97.9552 11.953C97.9614 12.0865 97.9614 12.2218 97.9614 12.3499V39.6092C97.9614 39.7462 97.9614 39.8779 97.9552 40.0078C97.9496 40.1267 97.9319 40.2447 97.9024 40.3599C97.8404 40.6013 97.7028 40.8164 97.5096 40.9736C97.3212 41.1269 97.0859 41.2108 96.8431 41.211ZM208.678 40.3151C208.434 40.3182 208.198 40.234 208.011 40.0777C207.818 39.9204 207.68 39.7049 207.618 39.4631C207.584 39.349 207.567 39.2308 207.566 39.1119C207.559 38.9785 207.559 38.8512 207.559 38.716V13.2476C207.559 13.1168 207.559 12.9788 207.566 12.8489C207.566 12.7294 207.584 12.6106 207.618 12.4959C207.679 12.2546 207.818 12.0396 208.011 11.8831C208.198 11.7272 208.434 11.6433 208.678 11.6466C208.921 11.642 209.158 11.7264 209.343 11.884C209.537 12.0405 209.675 12.2555 209.737 12.4968C209.767 12.6124 209.784 12.7306 209.79 12.8498C209.796 12.9824 209.796 13.1186 209.796 13.2458V38.7133C209.796 38.8503 209.796 38.982 209.79 39.1119C209.784 39.2305 209.767 39.3482 209.737 39.4631C209.675 39.7049 209.537 39.9204 209.343 40.0777C209.158 40.2354 208.921 40.3198 208.678 40.3151ZM65.0821 39.8672C64.8391 39.8698 64.603 39.7857 64.4164 39.6298C64.2226 39.473 64.0845 39.2578 64.0228 39.0161C63.9929 38.9009 63.9752 38.7829 63.97 38.664C63.9637 38.5314 63.9637 38.4033 63.9637 38.268V13.6928C63.9637 13.5638 63.9637 13.4303 63.97 13.2969C63.9757 13.1777 63.9934 13.0595 64.0228 12.9439C64.0847 12.7025 64.2227 12.4876 64.4164 12.3311C64.6049 12.178 64.8403 12.0945 65.083 12.0945C65.3257 12.0945 65.561 12.178 65.7495 12.3311C65.9432 12.4876 66.0812 12.7025 66.1432 12.9439C66.1814 13.0575 66.199 13.177 66.195 13.2969C66.2013 13.4303 66.2013 13.5656 66.2013 13.6928V38.268C66.2013 38.4033 66.2013 38.5314 66.195 38.664C66.1984 38.7835 66.1808 38.9026 66.1432 39.0161C66.0814 39.2578 65.9433 39.473 65.7495 39.6298C65.5609 39.7833 65.3252 39.8671 65.0821 39.8672ZM112.947 39.4192C112.705 39.4182 112.47 39.3345 112.281 39.1818C112.087 39.0251 111.949 38.8098 111.887 38.5681C111.856 38.4534 111.839 38.3356 111.835 38.2169C111.829 38.0835 111.829 37.9562 111.829 37.821V14.1435C111.829 14.0127 111.829 13.8747 111.835 13.7448C111.843 13.626 111.861 13.5079 111.887 13.3918C111.949 13.1504 112.087 12.9355 112.281 12.779C112.47 12.6266 112.705 12.5432 112.947 12.5425C113.19 12.5422 113.425 12.6257 113.614 12.779C113.807 12.936 113.944 13.1508 114.007 13.3918C114.036 13.5074 114.054 13.6256 114.059 13.7448C114.066 13.8774 114.066 14.0136 114.066 14.1408V37.8174C114.066 37.9544 114.066 38.0861 114.059 38.216C114.054 38.3346 114.036 38.4523 114.007 38.5672C113.945 38.8086 113.807 39.0237 113.614 39.1809C113.426 39.3351 113.19 39.4193 112.947 39.4192ZM155.444 38.9713C155.201 38.9758 154.964 38.8914 154.778 38.7339C154.584 38.5771 154.446 38.3619 154.384 38.1202C154.355 38.005 154.337 37.887 154.332 37.7681C154.327 37.6355 154.327 37.4993 154.327 37.3721V14.5914C154.327 14.4606 154.327 14.3226 154.332 14.1918C154.337 14.0727 154.355 13.9544 154.384 13.8389C154.447 13.5977 154.585 13.3829 154.778 13.2261C154.967 13.0737 155.202 12.9903 155.444 12.9896C155.687 12.9891 155.922 13.0727 156.11 13.2261C156.303 13.3829 156.441 13.5977 156.504 13.8389C156.533 13.9544 156.551 14.0727 156.557 14.1918C156.562 14.3253 156.562 14.4606 156.562 14.5878V37.3694C156.562 37.5002 156.562 37.6382 156.557 37.7681C156.551 37.887 156.533 38.005 156.504 38.1202C156.442 38.3619 156.304 38.5771 156.11 38.7339C155.925 38.8918 155.688 38.9762 155.444 38.9713ZM86.107 38.5233C85.8646 38.5222 85.6299 38.4384 85.4413 38.2859C85.2475 38.1292 85.1094 37.9139 85.0477 37.6722C85.0182 37.5573 85.0005 37.4396 84.9949 37.3211C84.9886 37.1876 84.9886 37.0595 84.9886 36.9242V15.0394C84.9886 14.9086 84.9886 14.7706 84.994 14.6407C84.9995 14.5215 85.0171 14.4032 85.0468 14.2877C85.1087 14.0463 85.2468 13.8314 85.4404 13.6749C85.629 13.522 85.8643 13.4386 86.107 13.4386C86.3496 13.4386 86.5849 13.522 86.7735 13.6749C86.9672 13.8314 87.1052 14.0463 87.1672 14.2877C87.1965 14.4033 87.2139 14.5216 87.2191 14.6407C87.2244 14.7733 87.2244 14.9095 87.2244 15.0367V36.9215C87.2244 37.0586 87.2244 37.1903 87.2191 37.3211C87.2138 37.4396 87.1964 37.5573 87.1672 37.6722C87.1054 37.9139 86.9673 38.1292 86.7735 38.2859C86.5845 38.4382 86.3496 38.5219 86.107 38.5233ZM261.911 37.6274C261.668 37.626 261.434 37.5423 261.244 37.39C261.051 37.2333 260.913 37.0181 260.851 36.7764C260.821 36.6612 260.803 36.5432 260.799 36.4243C260.793 36.2917 260.793 36.1636 260.793 36.0283V15.9353C260.793 15.8045 260.793 15.6665 260.799 15.5366C260.803 15.4174 260.821 15.299 260.851 15.1836C260.913 14.9422 261.051 14.7273 261.244 14.5708C261.433 14.4185 261.668 14.3351 261.911 14.3343C262.154 14.334 262.389 14.4175 262.578 14.5708C262.771 14.7278 262.908 14.9426 262.97 15.1836C263 15.2992 263.017 15.4174 263.023 15.5366C263.029 15.6692 263.029 15.8053 263.029 15.9326V36.0256C263.029 36.1627 263.029 36.2944 263.023 36.4243C263.018 36.5431 263 36.6611 262.97 36.7764C262.908 37.0177 262.771 37.2328 262.578 37.39C262.389 37.5423 262.154 37.626 261.911 37.6274ZM246.254 37.1795C246.012 37.1786 245.777 37.0949 245.589 36.9421C245.395 36.7854 245.257 36.5701 245.195 36.3284C245.165 36.2132 245.147 36.0952 245.142 35.9763C245.136 35.8437 245.136 35.7156 245.136 35.5803V16.3832C245.136 16.2524 245.136 16.1144 245.142 15.9845C245.147 15.8656 245.165 15.7476 245.195 15.6324C245.257 15.3911 245.395 15.1762 245.589 15.0197C245.777 14.8664 246.012 14.7827 246.255 14.7827C246.497 14.7827 246.732 14.8664 246.921 15.0197C247.114 15.1762 247.252 15.3911 247.314 15.6324C247.348 15.7469 247.365 15.8653 247.366 15.9845C247.373 16.118 247.373 16.2533 247.373 16.3814V35.5803C247.373 35.7156 247.373 35.8428 247.366 35.9763C247.365 36.0955 247.348 36.214 247.314 36.3284C247.253 36.5701 247.115 36.7854 246.921 36.9421C246.732 37.0954 246.497 37.1793 246.254 37.1795ZM54.3459 36.2836C54.1009 36.2886 53.8624 36.2042 53.6749 36.0462C53.4813 35.8889 53.3433 35.6734 53.2813 35.4316C53.2504 35.317 53.2329 35.1991 53.2294 35.0804C53.2231 34.9469 53.2231 34.8197 53.2231 34.6844V17.2791C53.2231 17.1483 53.2231 17.0103 53.2294 16.8804C53.2303 16.7609 53.2478 16.6421 53.2813 16.5274C53.3433 16.2861 53.4813 16.0712 53.6749 15.9146C53.8611 15.7574 54.0979 15.673 54.3415 15.6772C54.5843 15.6775 54.8196 15.7613 55.008 15.9146C55.2017 16.0711 55.3397 16.2861 55.4017 16.5274C55.4283 16.6435 55.4457 16.7616 55.4535 16.8804C55.4598 17.013 55.4598 17.1492 55.4598 17.2764V34.6818C55.4598 34.8188 55.4598 34.9505 55.4535 35.0804C55.4477 35.1989 55.4304 35.3165 55.4017 35.4316C55.3396 35.6734 55.2016 35.8889 55.008 36.0462C54.8208 36.1986 54.5872 36.2823 54.3459 36.2836ZM267.279 35.8357C267.037 35.8354 266.802 35.7515 266.613 35.5983C266.42 35.4415 266.282 35.2263 266.22 34.9846C266.19 34.8694 266.172 34.7514 266.167 34.6325C266.162 34.4999 266.162 34.3718 266.162 34.2365V17.7243C266.162 17.5953 266.162 17.4618 266.167 17.3284C266.173 17.2092 266.19 17.0909 266.22 16.9754C266.282 16.734 266.42 16.5191 266.613 16.3626C266.802 16.2098 267.037 16.1264 267.28 16.1264C267.522 16.1264 267.757 16.2098 267.946 16.3626C268.139 16.5191 268.277 16.734 268.339 16.9754C268.369 17.091 268.386 17.2092 268.392 17.3284C268.397 17.4618 268.397 17.5971 268.397 17.7243V34.2365C268.397 34.3718 268.397 34.4999 268.392 34.6325C268.387 34.7514 268.369 34.8694 268.339 34.9846C268.278 35.2263 268.139 35.4415 267.946 35.5983C267.757 35.7516 267.522 35.8354 267.279 35.8357ZM230.15 35.8357C229.908 35.8348 229.673 35.751 229.484 35.5983C229.291 35.4415 229.152 35.2263 229.091 34.9846C229.061 34.8694 229.043 34.7514 229.038 34.6325C229.032 34.4999 229.032 34.3718 229.032 34.2365V17.727C229.032 17.5962 229.032 17.4583 229.038 17.3284C229.044 17.2092 229.061 17.091 229.091 16.9754C229.153 16.734 229.291 16.5191 229.484 16.3626C229.673 16.2098 229.908 16.1264 230.15 16.1264C230.393 16.1264 230.628 16.2098 230.817 16.3626C231.01 16.5191 231.148 16.734 231.21 16.9754C231.243 17.0902 231.261 17.2089 231.262 17.3284C231.268 17.4618 231.268 17.5971 231.268 17.7243V34.2338C231.268 34.3709 231.268 34.5026 231.262 34.6325C231.261 34.7517 231.244 34.8702 231.21 34.9846C231.148 35.2263 231.01 35.4416 230.817 35.5983C230.628 35.7516 230.393 35.8354 230.15 35.8357ZM219.414 35.8357C219.171 35.836 218.935 35.7521 218.747 35.5983C218.553 35.4415 218.415 35.2263 218.354 34.9846C218.324 34.8694 218.306 34.7514 218.302 34.6325C218.296 34.4999 218.296 34.3718 218.296 34.2365V17.727C218.296 17.5962 218.296 17.4583 218.302 17.3284C218.306 17.2091 218.323 17.0908 218.354 16.9754C218.416 16.734 218.554 16.5191 218.747 16.3626C218.936 16.2103 219.171 16.1269 219.414 16.1261C219.657 16.1258 219.892 16.2093 220.08 16.3626C220.274 16.5191 220.412 16.734 220.474 16.9754C220.504 17.0909 220.521 17.2092 220.526 17.3284C220.532 17.4618 220.532 17.5971 220.532 17.7243V34.2338C220.532 34.3709 220.532 34.5026 220.526 34.6325C220.521 34.7514 220.504 34.8694 220.474 34.9846C220.412 35.2263 220.274 35.4415 220.08 35.5983C219.892 35.7516 219.657 35.8354 219.414 35.8357ZM182.285 35.3877C182.042 35.3867 181.807 35.303 181.618 35.1503C181.424 34.9936 181.286 34.7783 181.225 34.5366C181.198 34.4212 181.18 34.3037 181.173 34.1854C181.166 34.0519 181.166 33.9247 181.166 33.7895V18.1723C181.166 18.0424 181.166 17.9089 181.173 17.7763C181.178 17.6572 181.195 17.5389 181.225 17.4233C181.286 17.182 181.425 16.967 181.618 16.8105C181.807 16.6581 182.042 16.5747 182.285 16.574C182.527 16.5737 182.763 16.6573 182.951 16.8105C183.145 16.9674 183.283 17.1822 183.345 17.4233C183.378 17.5381 183.396 17.6568 183.397 17.7763C183.403 17.9089 183.403 18.0451 183.403 18.1723V33.7886C183.403 33.9238 183.403 34.0511 183.397 34.1845C183.387 34.3026 183.37 34.4199 183.345 34.5357C183.283 34.7772 183.145 34.9923 182.951 35.1494C182.763 35.3036 182.528 35.3878 182.285 35.3877ZM272.647 34.9398C272.404 34.9396 272.169 34.8558 271.981 34.7024C271.787 34.5453 271.649 34.3302 271.587 34.0887C271.56 33.9729 271.543 33.8552 271.535 33.7366C271.529 33.604 271.529 33.4678 271.529 33.3406V18.6229C271.529 18.4921 271.529 18.3542 271.535 18.2234C271.543 18.1045 271.561 17.9865 271.587 17.8704C271.649 17.6292 271.787 17.4144 271.981 17.2576C272.17 17.1056 272.405 17.0225 272.647 17.022C272.89 17.0217 273.125 17.1052 273.314 17.2585C273.507 17.4153 273.645 17.6301 273.707 17.8713C273.736 17.987 273.753 18.1052 273.759 18.2243C273.766 18.3577 273.765 18.493 273.765 18.6202V33.3379C273.765 33.4687 273.766 33.6067 273.759 33.7366C273.754 33.8554 273.736 33.9733 273.707 34.0887C273.646 34.3304 273.508 34.5457 273.314 34.7024C273.125 34.8557 272.89 34.9395 272.647 34.9398ZM203.31 34.9398C203.066 34.9429 202.83 34.8587 202.643 34.7024C202.449 34.5456 202.311 34.3304 202.249 34.0887C202.219 33.9736 202.202 33.8555 202.198 33.7366C202.191 33.604 202.191 33.4678 202.191 33.3406V18.6202C202.191 18.4912 202.191 18.3577 202.198 18.2243C202.203 18.1052 202.221 17.987 202.249 17.8713C202.312 17.6301 202.45 17.4153 202.643 17.2585C202.832 17.1061 203.067 17.0227 203.31 17.022C203.552 17.0217 203.788 17.1052 203.976 17.2585C204.169 17.4153 204.307 17.6301 204.37 17.8713C204.398 17.9871 204.415 18.1052 204.422 18.2243C204.428 18.3577 204.428 18.493 204.428 18.6202V33.3406C204.428 33.4705 204.428 33.604 204.422 33.7366C204.416 33.8554 204.399 33.9733 204.37 34.0887C204.308 34.3304 204.17 34.5456 203.976 34.7024C203.788 34.8557 203.552 34.9395 203.31 34.9398ZM102.211 34.9398C101.968 34.9439 101.731 34.8595 101.546 34.7024C101.352 34.5456 101.214 34.3304 101.152 34.0887C101.122 33.9734 101.105 33.8554 101.099 33.7366C101.094 33.604 101.094 33.4678 101.094 33.3406V18.6229C101.094 18.4921 101.094 18.3542 101.099 18.2234C101.105 18.1042 101.122 17.9859 101.152 17.8704C101.214 17.6292 101.352 17.4144 101.546 17.2576C101.734 17.1045 101.969 17.021 102.212 17.021C102.455 17.021 102.69 17.1045 102.879 17.2576C103.072 17.4144 103.21 17.6292 103.272 17.8704C103.301 17.986 103.319 18.1042 103.324 18.2234C103.33 18.3568 103.33 18.4921 103.33 18.6193V33.3379C103.33 33.4687 103.33 33.6067 103.324 33.7366C103.319 33.8554 103.301 33.9734 103.272 34.0887C103.211 34.3304 103.072 34.5456 102.879 34.7024C102.69 34.8557 102.454 34.9394 102.211 34.9398ZM48.9779 34.9398C48.7347 34.9435 48.4983 34.8592 48.3122 34.7024C48.1184 34.5456 47.9803 34.3304 47.9186 34.0887C47.8894 33.9734 47.872 33.8554 47.8667 33.7366C47.8604 33.604 47.8604 33.4678 47.8604 33.3406V18.6229C47.8604 18.4921 47.8604 18.3542 47.8667 18.2234C47.872 18.1042 47.8894 17.986 47.9186 17.8704C47.981 17.6292 48.1189 17.4144 48.3122 17.2576C48.5008 17.1045 48.7361 17.021 48.9788 17.021C49.2215 17.021 49.4568 17.1045 49.6453 17.2576C49.8386 17.4144 49.9766 17.6292 50.039 17.8704C50.0776 17.9839 50.0951 18.1035 50.0909 18.2234C50.0971 18.3568 50.0971 18.4921 50.0971 18.6193V33.3379C50.0971 33.4687 50.0971 33.6067 50.0909 33.7366C50.0947 33.8561 50.0771 33.9754 50.039 34.0887C49.9772 34.3304 49.8391 34.5456 49.6453 34.7024C49.4567 34.8559 49.221 34.9397 48.9779 34.9398ZM75.8182 34.4918C75.5756 34.4904 75.3407 34.4067 75.1516 34.2544C74.9578 34.0977 74.8197 33.8825 74.758 33.6407C74.721 33.5275 74.7034 33.4087 74.7061 33.2895C74.6998 33.1561 74.6998 33.0288 74.6998 32.8927V19.0682C74.6998 18.9383 74.6998 18.8048 74.7061 18.6722C74.7029 18.5524 74.7204 18.433 74.758 18.3192C74.8199 18.0778 74.958 17.8629 75.1516 17.7064C75.3406 17.5541 75.5756 17.4707 75.8182 17.4699C76.0607 17.4694 76.2959 17.553 76.4838 17.7064C76.6775 17.8629 76.8156 18.0778 76.8775 18.3192C76.9068 18.4348 76.9242 18.5531 76.9294 18.6722C76.9356 18.8048 76.9356 18.941 76.9356 19.0682V32.8918C76.9356 33.0271 76.9356 33.1552 76.9294 33.2887C76.9241 33.4072 76.9067 33.5249 76.8775 33.6398C76.8157 33.8815 76.6777 34.0968 76.4838 34.2535C76.2954 34.4064 76.0607 34.4904 75.8182 34.4918ZM187.653 34.0439C187.409 34.047 187.173 33.9628 186.986 33.8065C186.792 33.6497 186.654 33.4345 186.593 33.1928C186.563 33.0775 186.546 32.9596 186.541 32.8407C186.535 32.7081 186.535 32.5719 186.535 32.4447V19.5188C186.535 19.388 186.535 19.25 186.541 19.1201C186.546 19.0013 186.563 18.8833 186.593 18.7681C186.655 18.5267 186.793 18.3118 186.986 18.1553C187.173 17.999 187.409 17.9148 187.653 17.9179C187.895 17.9174 188.131 18.0013 188.318 18.1553C188.512 18.3118 188.65 18.5267 188.712 18.7681C188.742 18.8832 188.76 19.0013 188.765 19.1201C188.77 19.2536 188.77 19.3889 188.77 19.5161V32.442C188.77 32.5728 188.77 32.7108 188.765 32.8407C188.76 32.9596 188.742 33.0776 188.712 33.1928C188.65 33.4345 188.512 33.6497 188.318 33.8065C188.132 33.9631 187.896 34.0474 187.653 34.0439ZM171.549 33.5959C171.306 33.5945 171.071 33.5108 170.882 33.3585C170.688 33.2018 170.55 32.9866 170.488 32.7448C170.459 32.6297 170.441 32.5117 170.437 32.3928C170.431 32.2602 170.431 32.124 170.431 31.9968V19.9641C170.431 19.8342 170.431 19.7007 170.437 19.5681C170.441 19.4489 170.458 19.3305 170.488 19.2151C170.55 18.9737 170.688 18.7588 170.882 18.6023C171.071 18.45 171.306 18.3666 171.549 18.3658C171.791 18.3653 172.026 18.4489 172.214 18.6023C172.408 18.7588 172.546 18.9737 172.608 19.2151C172.638 19.3306 172.655 19.4489 172.661 19.5681C172.666 19.7007 172.666 19.8369 172.666 19.9641V31.9968C172.666 32.1267 172.666 32.2602 172.661 32.3928C172.656 32.5117 172.638 32.6297 172.608 32.7448C172.546 32.9865 172.408 33.2018 172.214 33.3585C172.026 33.511 171.791 33.5948 171.549 33.5959ZM38.2418 33.5959C37.9976 33.5955 37.761 33.5118 37.5707 33.3585C37.3769 33.2018 37.2388 32.9865 37.1771 32.7448C37.1461 32.6299 37.1286 32.5118 37.1252 32.3928C37.1189 32.2602 37.1189 32.124 37.1189 31.9968V19.9641C37.1189 19.8342 37.1189 19.7007 37.1252 19.5681C37.1289 19.4488 37.1463 19.3304 37.1771 19.2151C37.239 18.9737 37.3771 18.7588 37.5707 18.6023C37.7597 18.45 37.9947 18.3666 38.2373 18.3658C38.48 18.3655 38.7154 18.449 38.9038 18.6023C39.0975 18.7588 39.2355 18.9737 39.2975 19.2151C39.3267 19.3307 39.344 19.449 39.3494 19.5681C39.3556 19.7007 39.3556 19.8369 39.3556 19.9641V31.9968C39.3556 32.1267 39.3556 32.2602 39.3494 32.3928C39.3403 32.5112 39.323 32.6288 39.2975 32.7448C39.2357 32.9865 39.0976 33.2018 38.9038 33.3585C38.716 33.5098 38.4828 33.5935 38.2418 33.5959ZM224.782 33.148C224.539 33.1509 224.302 33.0667 224.115 32.9106C223.922 32.7539 223.783 32.5386 223.722 32.2969C223.688 32.1825 223.671 32.064 223.67 31.9448C223.664 31.8122 223.664 31.676 223.664 31.5488V20.412C223.664 20.2821 223.664 20.1486 223.67 20.0151C223.671 19.8959 223.688 19.7774 223.722 19.6631C223.784 19.4217 223.922 19.2068 224.115 19.0503C224.304 18.8967 224.539 18.8129 224.782 18.8129C225.025 18.8129 225.26 18.8967 225.448 19.0503C225.642 19.2068 225.78 19.4217 225.842 19.6631C225.872 19.7783 225.889 19.8963 225.895 20.0151C225.901 20.1486 225.901 20.2839 225.901 20.412V31.5488C225.901 31.6778 225.901 31.8113 225.895 31.9448C225.89 32.0637 225.872 32.1817 225.842 32.2969C225.78 32.5386 225.642 32.7538 225.448 32.9106C225.262 33.067 225.025 33.1512 224.782 33.148ZM123.683 33.148C123.44 33.1525 123.203 33.0681 123.017 32.9106C122.823 32.7535 122.685 32.5384 122.623 32.2969C122.599 32.1807 122.581 32.0631 122.571 31.9448C122.565 31.8122 122.565 31.676 122.565 31.5488V20.4147C122.565 20.2839 122.565 20.1459 122.571 20.016C122.57 19.8966 122.587 19.7778 122.623 19.6639C122.686 19.4228 122.824 19.208 123.017 19.0512C123.203 18.8937 123.44 18.8093 123.683 18.8137C123.926 18.814 124.162 18.8978 124.35 19.0512C124.544 19.2077 124.682 19.4226 124.744 19.6639C124.767 19.7518 124.782 19.8419 124.787 19.9327V20.0169C124.794 20.154 124.794 20.2857 124.794 20.4174V31.5461C124.794 31.6769 124.794 31.8149 124.787 31.9448V31.9591C124.785 32.0734 124.768 32.1868 124.737 32.2969C124.676 32.5386 124.538 32.7538 124.344 32.9106C124.157 33.0626 123.924 33.1463 123.683 33.148ZM278.015 32.7001C277.773 32.6986 277.538 32.6149 277.349 32.4626C277.155 32.3061 277.017 32.0912 276.955 31.8498C276.926 31.7343 276.908 31.616 276.903 31.4969C276.897 31.3643 276.897 31.2281 276.897 31.1009V20.86C276.897 20.7301 276.897 20.5966 276.903 20.464C276.909 20.3449 276.926 20.2267 276.955 20.111C277.017 19.8696 277.155 19.6547 277.349 19.4982C277.538 19.3459 277.773 19.2625 278.015 19.2617C278.258 19.2611 278.493 19.3447 278.682 19.4982C278.875 19.6552 279.012 19.8699 279.074 20.111C279.104 20.2265 279.122 20.3448 279.127 20.464C279.134 20.5966 279.134 20.7327 279.134 20.86V31.1009C279.134 31.2308 279.134 31.3643 279.127 31.4969C279.122 31.616 279.104 31.7343 279.074 31.8498C279.012 32.0909 278.875 32.3057 278.682 32.4626C278.493 32.6149 278.258 32.6986 278.015 32.7001ZM283.383 31.3562C283.141 31.3553 282.906 31.2716 282.718 31.1188C282.524 30.9623 282.386 30.7474 282.324 30.506C282.294 30.3908 282.277 30.2728 282.271 30.1539C282.266 30.0204 282.266 29.8852 282.266 29.7579V22.2065C282.266 22.0757 282.266 21.9377 282.271 21.8078C282.276 21.6886 282.294 21.5703 282.324 21.4548C282.386 21.2135 282.524 20.9985 282.718 20.842C282.906 20.6892 283.141 20.6058 283.384 20.6058C283.626 20.6058 283.861 20.6892 284.05 20.842C284.243 20.9988 284.382 21.2135 284.444 21.4548C284.47 21.571 284.487 21.689 284.494 21.8078C284.502 21.9297 284.502 22.0515 284.502 22.1662V29.7875C284.502 29.9049 284.502 30.0267 284.494 30.1459C284.487 30.2644 284.47 30.3821 284.444 30.498C284.382 30.7392 284.243 30.954 284.05 31.1107C283.863 31.2675 283.627 31.3543 283.383 31.3562ZM235.518 31.3562C235.275 31.3552 235.04 31.2715 234.852 31.1188C234.658 30.9623 234.52 30.7474 234.458 30.506C234.429 30.3906 234.412 30.2727 234.406 30.1539C234.4 30.0204 234.4 29.8852 234.4 29.7579V22.2038C234.4 22.0739 234.4 21.9404 234.406 21.8078C234.411 21.6887 234.428 21.5704 234.458 21.4548C234.52 21.2135 234.658 20.9985 234.852 20.842C235.04 20.6897 235.275 20.6062 235.518 20.6055C235.761 20.6052 235.996 20.6888 236.185 20.842C236.378 20.9985 236.516 21.2135 236.578 21.4548C236.608 21.5703 236.625 21.6887 236.63 21.8078C236.636 21.9404 236.636 22.0766 236.636 22.2038V29.757C236.636 29.8861 236.636 30.0195 236.63 30.153C236.625 30.2719 236.608 30.3899 236.578 30.5051C236.516 30.7465 236.378 30.9614 236.185 31.1179C235.997 31.2721 235.761 31.3563 235.518 31.3562ZM118.315 31.3562C118.073 31.3553 117.838 31.2716 117.65 31.1188C117.456 30.9623 117.318 30.7474 117.256 30.506C117.226 30.3908 117.209 30.2728 117.203 30.1539C117.198 30.0204 117.198 29.8852 117.198 29.7579V22.2038C117.198 22.0739 117.198 21.9404 117.203 21.8078C117.209 21.6887 117.226 21.5704 117.256 21.4548C117.318 21.2135 117.456 20.9985 117.65 20.842C117.838 20.689 118.074 20.6055 118.316 20.6055C118.559 20.6055 118.794 20.689 118.983 20.842C119.176 20.9985 119.315 21.2135 119.376 21.4548C119.406 21.5704 119.424 21.6886 119.429 21.8078C119.435 21.9404 119.435 22.0766 119.435 22.2038V29.757C119.435 29.8861 119.435 30.0195 119.429 30.153C119.424 30.2719 119.406 30.3899 119.376 30.5051C119.315 30.7465 119.176 30.9614 118.983 31.1179C118.795 31.2723 118.559 31.3565 118.315 31.3562ZM70.4501 31.3562C70.2059 31.3562 69.9691 31.2724 69.7791 31.1188C69.5854 30.9623 69.4474 30.7474 69.3855 30.506C69.3536 30.3913 69.3362 30.273 69.3336 30.1539C69.3273 30.0204 69.3273 29.8852 69.3273 29.7579V22.2065C69.3273 22.0757 69.3273 21.9377 69.3336 21.8078C69.3364 21.6885 69.3538 21.5699 69.3855 21.4548C69.4474 21.2135 69.5854 20.9985 69.7791 20.842C69.9692 20.6887 70.206 20.6052 70.4501 20.6055C70.6929 20.6052 70.9283 20.6888 71.1167 20.842C71.3103 20.9985 71.4484 21.2135 71.5103 21.4548C71.5401 21.5703 71.5575 21.6886 71.5622 21.8078C71.5685 21.9404 71.5685 22.0766 71.5685 22.2038V29.7544C71.5685 29.8852 71.5685 30.0231 71.5622 30.153C71.5532 30.2715 71.5358 30.3891 71.5103 30.5051C71.4484 30.7465 71.3103 30.9614 71.1167 31.1179C70.9287 31.2721 70.6931 31.3563 70.4501 31.3562ZM251.622 30.4603C251.38 30.4589 251.145 30.3752 250.956 30.2229C250.762 30.0664 250.624 29.8515 250.562 29.6101C250.533 29.4948 250.515 29.3769 250.51 29.258C250.504 29.1246 250.504 28.9893 250.504 28.8612V23.1024C250.504 22.9716 250.504 22.8336 250.51 22.7037C250.515 22.5845 250.532 22.4662 250.562 22.3507C250.624 22.1094 250.762 21.8944 250.956 21.7379C251.145 21.5855 251.38 21.5021 251.622 21.5014C251.865 21.5011 252.1 21.5846 252.289 21.7379C252.482 21.8944 252.62 22.1094 252.682 22.3507C252.712 22.4663 252.729 22.5846 252.734 22.7037C252.741 22.8363 252.741 22.9725 252.741 23.0997V28.8585C252.741 28.9893 252.741 29.1272 252.734 29.258C252.73 29.3769 252.712 29.495 252.682 29.6101C252.62 29.8515 252.482 30.0664 252.289 30.2229C252.1 30.3765 251.865 30.4604 251.622 30.4603ZM129.051 30.4603C128.809 30.4589 128.574 30.3752 128.385 30.2229C128.191 30.0664 128.053 29.8515 127.991 29.6101C127.963 29.4946 127.946 29.3767 127.939 29.258C127.933 29.1246 127.933 28.9893 127.933 28.8612V23.1006C127.933 22.9707 127.933 22.8372 127.939 22.7046C127.945 22.5855 127.962 22.4672 127.991 22.3516C128.053 22.1102 128.191 21.8953 128.385 21.7388C128.574 21.5862 128.809 21.5025 129.051 21.5014C129.294 21.5011 129.53 21.5846 129.718 21.7379C129.911 21.8949 130.049 22.1097 130.111 22.3507C130.141 22.4661 130.159 22.5845 130.164 22.7037C130.17 22.8363 130.17 22.9725 130.17 23.0997V28.8603C130.17 28.9902 130.17 29.1237 130.164 29.2571C130.158 29.376 130.141 29.494 130.111 29.6092C130.049 29.8503 129.911 30.065 129.718 30.222C129.53 30.3759 129.294 30.4601 129.051 30.4603ZM299.487 29.5644C299.245 29.5633 299.01 29.4796 298.822 29.327C298.628 29.1709 298.489 28.9559 298.427 28.7142C298.398 28.5987 298.381 28.4804 298.376 28.3613C298.37 28.2484 298.37 28.1337 298.37 28.0235V23.9391C298.37 23.828 298.37 23.7125 298.376 23.5996C298.381 23.4805 298.398 23.3622 298.427 23.2466C298.49 23.0053 298.628 22.7905 298.822 22.6338C299.01 22.4812 299.245 22.3979 299.488 22.3979C299.73 22.3979 299.965 22.4812 300.154 22.6338C300.348 22.7905 300.486 23.0053 300.549 23.2466C300.575 23.3627 300.592 23.4807 300.599 23.5996C300.606 23.7196 300.606 23.8424 300.606 23.958V27.9957C300.606 28.1149 300.606 28.2376 300.599 28.3541C300.592 28.473 300.575 28.591 300.549 28.7071C300.487 28.9488 300.348 29.1638 300.154 29.3199C299.967 29.476 299.731 29.5625 299.487 29.5644ZM294.119 29.5644C293.877 29.5643 293.641 29.4804 293.453 29.327C293.258 29.1712 293.12 28.9561 293.058 28.7142C293.029 28.5986 293.013 28.4803 293.008 28.3613C293.001 28.2394 293.001 28.1176 293.001 28.0029V23.9624C293.001 23.8442 293.001 23.7214 293.008 23.5996C293.013 23.4805 293.03 23.3622 293.058 23.2466C293.122 23.0056 293.26 22.791 293.453 22.6338C293.642 22.4811 293.877 22.3978 294.119 22.3978C294.362 22.3978 294.597 22.4811 294.786 22.6338C294.979 22.7911 295.117 23.0057 295.18 23.2466C295.206 23.3629 295.223 23.4809 295.231 23.5996C295.238 23.7205 295.238 23.8433 295.238 23.9624V27.9984C295.238 28.1167 295.238 28.2394 295.231 28.3568C295.223 28.4755 295.206 28.5935 295.18 28.7098C295.118 28.951 294.98 29.1658 294.786 29.3225C294.598 29.4778 294.363 29.5632 294.119 29.5644ZM256.543 29.5644C256.3 29.563 256.065 29.4793 255.876 29.327C255.683 29.1702 255.545 28.9554 255.483 28.7142C255.457 28.598 255.439 28.48 255.431 28.3613C255.425 28.2287 255.425 28.0925 255.425 27.9653V23.9956C255.425 23.8657 255.425 23.7322 255.431 23.5996C255.44 23.4809 255.457 23.3629 255.483 23.2466C255.545 23.0054 255.683 22.7907 255.876 22.6338C256.065 22.4815 256.3 22.3981 256.543 22.3973C256.786 22.397 257.021 22.4805 257.209 22.6338C257.403 22.7903 257.541 23.0052 257.603 23.2466C257.631 23.3624 257.649 23.4806 257.655 23.5996C257.661 23.7322 257.661 23.8684 257.661 23.9956V27.9653C257.661 28.0952 257.661 28.2287 257.655 28.3613C257.65 28.4804 257.633 28.5987 257.603 28.7142C257.541 28.9556 257.403 29.1705 257.209 29.327C257.02 29.4793 256.786 29.563 256.543 29.5644ZM59.714 29.5644C59.4714 29.563 59.2365 29.4793 59.0475 29.327C58.8538 29.1705 58.7157 28.9556 58.6538 28.7142C58.6156 28.6006 58.598 28.4811 58.6019 28.3613C58.5957 28.2287 58.5957 28.0925 58.5957 27.9653V23.9983C58.5957 23.8675 58.5957 23.7295 58.6019 23.5996C58.5983 23.4798 58.6159 23.3603 58.6538 23.2466C58.7157 23.0052 58.8538 22.7903 59.0475 22.6338C59.2364 22.4815 59.4715 22.3981 59.714 22.3973C59.9565 22.3968 60.1917 22.4804 60.3796 22.6338C60.5733 22.7903 60.7114 23.0052 60.7733 23.2466C60.8025 23.3622 60.8199 23.4805 60.8252 23.5996C60.8315 23.7322 60.8315 23.8684 60.8315 23.9956V27.9626C60.8315 28.0934 60.8315 28.2313 60.8252 28.3613C60.8199 28.4804 60.8025 28.5986 60.7733 28.7142C60.7114 28.9556 60.5733 29.1705 60.3796 29.327C60.1911 29.4795 59.9564 29.5633 59.714 29.5644ZM43.6098 29.5644C43.3672 29.563 43.1323 29.4793 42.9433 29.327C42.7496 29.1705 42.6115 28.9556 42.5496 28.7142C42.5114 28.6006 42.4938 28.4811 42.4977 28.3613C42.4977 28.2403 42.4915 27.925 42.4915 27.5182V23.9983C42.4915 23.8675 42.4915 23.7295 42.4977 23.5996C42.4942 23.4798 42.5117 23.3603 42.5496 23.2466C42.6115 23.0052 42.7496 22.7903 42.9433 22.6338C43.1322 22.4815 43.3673 22.3981 43.6098 22.3973C43.8523 22.3968 44.0875 22.4804 44.2755 22.6338C44.4691 22.7903 44.6072 23.0052 44.6691 23.2466C44.6983 23.3622 44.7157 23.4805 44.721 23.5996C44.7273 23.7322 44.7273 23.8684 44.7273 23.9956V27.5146C44.7273 27.7933 44.7273 28.1014 44.721 28.3613C44.7157 28.4804 44.6983 28.5986 44.6691 28.7142C44.6072 28.9556 44.4691 29.1705 44.2755 29.327C44.0869 29.4795 43.8522 29.5633 43.6098 29.5644ZM134.42 28.6685C134.177 28.6671 133.942 28.5831 133.754 28.4302C133.56 28.2737 133.422 28.0588 133.36 27.8174C133.331 27.7019 133.313 27.5836 133.307 27.4645C133.302 27.3319 133.302 27.1957 133.302 27.0685V24.8942C133.302 24.7634 133.302 24.6254 133.307 24.4955C133.313 24.3763 133.331 24.2581 133.36 24.1425C133.422 23.9011 133.56 23.6862 133.754 23.5297C133.942 23.3768 134.178 23.2934 134.42 23.2934C134.663 23.2934 134.898 23.3768 135.087 23.5297C135.281 23.6862 135.419 23.9011 135.481 24.1425C135.51 24.2581 135.528 24.3763 135.533 24.4955C135.539 24.6281 135.539 24.7643 135.539 24.8915V27.0667C135.539 27.1975 135.539 27.3355 135.533 27.4654C135.528 27.5845 135.51 27.7028 135.481 27.8183C135.419 28.0597 135.281 28.2746 135.087 28.4311C134.898 28.5836 134.662 28.6673 134.42 28.6685ZM32.8737 28.6685C32.6312 28.6671 32.3965 28.5831 32.208 28.4302C32.0144 28.2737 31.8763 28.0588 31.8144 27.8174C31.7851 27.7019 31.7677 27.5836 31.7625 27.4645C31.7562 27.3319 31.7562 27.1957 31.7562 27.0685V24.8942C31.7562 24.7634 31.7562 24.6254 31.7625 24.4955C31.7677 24.3764 31.7851 24.2581 31.8144 24.1425C31.8763 23.9011 32.0144 23.6862 32.208 23.5297C32.3966 23.3768 32.6319 23.2934 32.8746 23.2934C33.1172 23.2934 33.3525 23.3768 33.5411 23.5297C33.7348 23.6862 33.8729 23.9011 33.9348 24.1425C33.9731 24.2561 33.9907 24.3757 33.9867 24.4955C33.9929 24.6281 33.9929 24.7643 33.9929 24.8915V27.0667C33.9929 27.1975 33.9929 27.3355 33.9867 27.4654C33.991 27.5852 33.9734 27.7048 33.9348 27.8183C33.8729 28.0597 33.7348 28.2746 33.5411 28.4311C33.3519 28.5836 33.1166 28.6673 32.8737 28.6685ZM304.855 28.2206C304.613 28.2204 304.377 28.1365 304.189 27.9832C303.996 27.8256 303.858 27.6111 303.794 27.3704C303.768 27.2543 303.751 27.1362 303.744 27.0174C303.737 26.8956 303.737 26.7728 303.737 26.6546V25.3054C303.737 25.1871 303.737 25.0644 303.744 24.947C303.751 24.8282 303.768 24.7101 303.794 24.594C303.856 24.3524 303.995 24.1374 304.189 23.9812C304.377 23.828 304.613 23.7444 304.855 23.7444C305.098 23.7444 305.334 23.828 305.522 23.9812C305.715 24.1385 305.853 24.3531 305.917 24.594C305.946 24.7096 305.963 24.8279 305.967 24.947C305.974 25.068 305.974 25.1907 305.974 25.3054V26.6546C305.974 26.7728 305.974 26.8956 305.967 27.0174C305.963 27.1365 305.946 27.2549 305.917 27.3704C305.854 27.6115 305.715 27.8262 305.522 27.9832C305.334 28.1365 305.098 28.2204 304.855 28.2206ZM27.5056 28.2206C27.262 28.2251 27.0251 28.1407 26.8391 27.9832C26.6458 27.8263 26.5078 27.6116 26.4454 27.3704C26.4064 27.257 26.3888 27.1373 26.3935 27.0174C26.3873 26.8839 26.3873 26.7486 26.3873 26.6214V25.3394C26.3873 25.2095 26.3873 25.076 26.3935 24.9434C26.3892 24.8236 26.4068 24.704 26.4454 24.5905C26.5074 24.3491 26.6454 24.1342 26.8391 23.9777C27.0251 23.8202 27.262 23.7358 27.5056 23.7402C27.7492 23.7341 27.9864 23.8187 28.1713 23.9777C28.3649 24.1342 28.503 24.3491 28.5649 24.5905C28.5946 24.706 28.6122 24.8243 28.6177 24.9434C28.624 25.076 28.624 25.2122 28.624 25.3394V26.6214C28.624 26.7504 28.624 26.8839 28.6177 27.0174C28.612 27.1366 28.5943 27.2548 28.5649 27.3704C28.5025 27.6116 28.3646 27.8263 28.1713 27.9832C27.9864 28.1421 27.7492 28.2267 27.5056 28.2206ZM17.2168 28.2206C16.9731 28.2259 16.7359 28.1414 16.5503 27.9832C16.357 27.8263 16.219 27.6116 16.1566 27.3704C16.1288 27.2634 16.1117 27.1538 16.1056 27.0434V27.0192C16.0994 26.8848 16.0994 26.7504 16.0994 26.6214V25.3421C16.0994 25.2113 16.0994 25.0733 16.1056 24.9434C16.1141 24.8246 16.1315 24.7067 16.1575 24.5905C16.2195 24.3491 16.3575 24.1342 16.5512 23.9777C16.7368 23.8194 16.974 23.7349 17.2177 23.7402C17.4605 23.7405 17.6959 23.8243 17.8843 23.9777C18.0776 24.1345 18.2155 24.3493 18.2779 24.5905C18.3141 24.7046 18.3316 24.8237 18.3298 24.9434C18.3361 25.076 18.3361 25.2122 18.3361 25.3394V26.6178C18.3361 26.7486 18.3361 26.8866 18.3298 27.0174C18.3222 27.1363 18.3048 27.2544 18.2779 27.3704C18.2155 27.6116 18.0776 27.8263 17.8843 27.9832C17.6956 28.1367 17.4599 28.2206 17.2168 28.2206ZM309.776 27.7727C309.533 27.7722 309.298 27.6884 309.11 27.5352C308.917 27.378 308.778 27.1634 308.715 26.9225C308.689 26.8063 308.672 26.6883 308.665 26.5695C308.658 26.4476 308.658 26.3249 308.658 26.2057V25.7578C308.658 25.6395 308.658 25.5168 308.665 25.3941C308.673 25.2753 308.689 25.1572 308.715 25.0411C308.778 24.7998 308.916 24.585 309.11 24.4283C309.298 24.2756 309.534 24.1922 309.776 24.1922C310.019 24.1922 310.254 24.2756 310.443 24.4283C310.636 24.585 310.775 24.7998 310.837 25.0411C310.867 25.1566 310.883 25.275 310.887 25.3941C310.895 25.5168 310.895 25.6395 310.895 25.7578V26.2057C310.895 26.3249 310.895 26.4476 310.887 26.5695C310.883 26.6886 310.867 26.8069 310.837 26.9225C310.774 27.1635 310.636 27.3782 310.443 27.5352C310.254 27.6887 310.019 27.7725 309.776 27.7727ZM288.751 27.7727C288.509 27.7721 288.273 27.6883 288.085 27.5352C287.893 27.3773 287.755 27.163 287.69 26.9225C287.664 26.8063 287.647 26.6883 287.64 26.5695C287.633 26.4476 287.633 26.3258 287.633 26.2111V25.7569C287.633 25.6395 287.633 25.5177 287.64 25.3985C287.648 25.2797 287.664 25.1617 287.69 25.0456C287.753 24.8043 287.891 24.5895 288.085 24.4328C288.273 24.28 288.509 24.1967 288.751 24.1967C288.994 24.1967 289.229 24.28 289.418 24.4328C289.611 24.59 289.749 24.8046 289.812 25.0456C289.842 25.161 289.859 25.2794 289.863 25.3985C289.87 25.5195 289.87 25.6413 289.87 25.7569V26.212C289.87 26.3312 289.87 26.4539 289.863 26.5704C289.859 26.6895 289.842 26.8079 289.812 26.9233C289.749 27.1645 289.611 27.3792 289.418 27.5361C289.229 27.6892 288.994 27.7727 288.751 27.7727ZM80.7389 27.7727C80.4957 27.7749 80.2595 27.6908 80.0724 27.5352C79.8787 27.3787 79.7406 27.1638 79.6787 26.9225C79.651 26.8066 79.6336 26.6884 79.6268 26.5695C79.6206 26.4369 79.6206 26.3034 79.6206 26.1735V25.7874C79.6206 25.6584 79.6206 25.5249 79.6268 25.3914C79.6336 25.2724 79.651 25.1543 79.6787 25.0384C79.7406 24.797 79.8787 24.5821 80.0724 24.4256C80.2613 24.2732 80.4964 24.1898 80.7389 24.1891C80.9817 24.1888 81.2171 24.2723 81.4054 24.4256C81.5984 24.5826 81.7361 24.7973 81.7982 25.0384C81.8277 25.154 81.8454 25.2722 81.851 25.3914C81.8573 25.5249 81.8573 25.6601 81.8573 25.7874V26.1735C81.8573 26.3034 81.8573 26.4369 81.851 26.5695C81.8454 26.6886 81.8277 26.8069 81.7982 26.9225C81.7361 27.1635 81.5984 27.3783 81.4054 27.5352C81.217 27.6886 80.9817 27.7724 80.7389 27.7727ZM11.8488 27.3247C11.606 27.3234 11.3709 27.2394 11.1822 27.0864C10.9893 26.9294 10.8516 26.7147 10.7895 26.4736C10.7599 26.3584 10.7422 26.2404 10.7367 26.1215C10.7367 26.0929 10.7367 26.0624 10.7367 26.0319V25.9271C10.7367 25.8985 10.7367 25.8689 10.7367 25.8375C10.7421 25.7184 10.7598 25.6001 10.7895 25.4845C10.8516 25.2435 10.9893 25.0287 11.1822 24.8718C11.3711 24.7194 11.6062 24.636 11.8488 24.6352C12.0915 24.6349 12.3269 24.7185 12.5153 24.8718C12.709 25.0283 12.847 25.2432 12.909 25.4845C12.9394 25.5941 12.9569 25.7069 12.9609 25.8205C12.9609 25.8644 12.9609 25.8922 12.9609 25.92C12.9609 25.9477 12.9609 25.9585 12.9609 25.9791C12.9609 25.9997 12.9609 26.0185 12.9609 26.0382C12.9609 26.0579 12.9609 26.0929 12.9609 26.1206C12.9556 26.2395 12.9382 26.3574 12.909 26.4727C12.847 26.7141 12.709 26.929 12.5153 27.0855C12.3274 27.24 12.0919 27.3245 11.8488 27.3247ZM6.48071 27.3247C6.23795 27.3234 6.00286 27.2394 5.81418 27.0864C5.6205 26.9299 5.48244 26.715 5.42052 26.4736C5.39121 26.3583 5.37382 26.2404 5.36863 26.1215C5.36863 26.0929 5.36863 26.0624 5.36863 26.0319V25.9271C5.36863 25.8985 5.36863 25.8689 5.36863 25.8375C5.37363 25.7184 5.39102 25.6001 5.42052 25.4845C5.48244 25.2432 5.6205 25.0283 5.81418 24.8718C6.0033 24.72 6.23837 24.6372 6.48071 24.637C6.72321 24.6366 6.95839 24.7201 7.14635 24.8736C7.34003 25.0301 7.47809 25.245 7.54001 25.4863C7.56947 25.6019 7.58686 25.7202 7.5919 25.8393C7.5919 25.8689 7.5919 25.8984 7.5919 25.9289V26.0355C7.5919 26.0642 7.5919 26.0946 7.5919 26.1251C7.58671 26.2439 7.56932 26.3619 7.54001 26.4772C7.47809 26.7186 7.34003 26.9335 7.14635 27.09C6.95761 27.2418 6.7228 27.3246 6.48071 27.3247ZM1.11265 27.3247C0.868433 27.3248 0.631568 27.241 0.441643 27.0873C0.247967 26.9308 0.109905 26.7159 0.047985 26.4745C0.0188668 26.3592 0.00148102 26.2412 -0.00390625 26.1224C-0.00390625 26.092 -0.00390625 26.0606 -0.00390625 26.0328C-0.00390625 26.0051 -0.00390625 25.9988 -0.00390625 25.9818C-0.00390625 25.9647 -0.00390625 25.9477 -0.00390625 25.9298C-0.00390625 25.9119 -0.00390625 25.8707 -0.00390625 25.8402C0.00147583 25.7211 0.0188612 25.6028 0.047985 25.4872C0.110024 25.2459 0.248064 25.031 0.441643 24.8744C0.631852 24.7212 0.868532 24.6375 1.11265 24.637C1.35692 24.6357 1.59409 24.7193 1.78366 24.8736C1.97695 25.0304 2.11493 25.2452 2.17732 25.4863C2.2063 25.602 2.22368 25.7202 2.22921 25.8393C2.22921 25.8689 2.22921 25.8984 2.22921 25.9289C2.22921 25.9594 2.22921 25.9639 2.22921 25.9818C2.22921 25.9997 2.22921 26.0167 2.22921 26.0346C2.22921 26.0525 2.22921 26.0938 2.22921 26.1242C2.22384 26.243 2.20646 26.361 2.17732 26.4763C2.11493 26.7175 1.97695 26.9322 1.78366 27.0891C1.59407 27.2432 1.35685 27.3265 1.11265 27.3247ZM325.88 26.8768C325.638 26.8765 325.402 26.7927 325.214 26.6394C325.021 26.4823 324.882 26.2677 324.819 26.0266C324.819 26.0197 324.819 26.0128 324.819 26.006C324.82 25.9973 324.82 25.9886 324.819 25.98C324.82 25.9722 324.82 25.9644 324.819 25.9567C324.819 25.9489 324.819 25.9411 324.819 25.9334C324.883 25.6925 325.021 25.4779 325.214 25.3206C325.403 25.1679 325.638 25.0846 325.88 25.0846C326.123 25.0846 326.358 25.1679 326.547 25.3206C326.741 25.4773 326.879 25.6921 326.942 25.9334C326.942 25.9394 326.942 25.9453 326.942 25.9513C326.941 25.9608 326.941 25.9704 326.942 25.98C326.966 25.8791 326.98 25.7763 326.985 25.6727C326.992 25.5831 326.993 25.4935 326.993 25.4505V26.4216C326.993 26.367 326.992 26.3249 326.985 26.2864C326.98 26.1831 326.966 26.0805 326.942 25.98C326.941 25.9859 326.941 25.9919 326.942 25.9979C326.942 26.0071 326.942 26.0164 326.942 26.0257C326.879 26.2669 326.741 26.4817 326.547 26.6385C326.359 26.7921 326.123 26.8763 325.88 26.8768ZM320.512 26.8768C320.27 26.876 320.034 26.7923 319.846 26.6394C319.653 26.4823 319.514 26.2677 319.451 26.0266V26.0194C319.451 26.017 319.451 26.0146 319.451 26.0122V25.9988C319.452 25.9926 319.452 25.9862 319.451 25.98C319.452 25.974 319.452 25.968 319.451 25.9621V25.9477C319.452 25.9447 319.452 25.9417 319.451 25.9388C319.513 25.6956 319.652 25.4788 319.847 25.3206C320.035 25.1678 320.27 25.0844 320.513 25.0844C320.755 25.0844 320.99 25.1678 321.179 25.3206C321.373 25.4773 321.511 25.6921 321.573 25.9334C321.574 25.9408 321.574 25.9483 321.573 25.9558C321.573 25.9638 321.573 25.9719 321.573 25.98C321.598 25.8792 321.613 25.7763 321.618 25.6727C321.618 25.6189 321.624 25.5616 321.624 25.4442V26.3688V26.3616V26.3482C321.624 26.3303 321.624 26.3168 321.624 26.3016V26.2864C321.619 26.183 321.604 26.0805 321.58 25.98C321.579 25.9877 321.579 25.9955 321.58 26.0033C321.58 26.0107 321.58 26.0182 321.58 26.0257C321.517 26.2669 321.379 26.4817 321.185 26.6385C320.995 26.7936 320.757 26.8779 320.512 26.8768ZM315.144 26.8768C314.902 26.8757 314.667 26.792 314.478 26.6394C314.284 26.4826 314.146 26.2678 314.083 26.0266V26.0203C314.083 26.0161 314.083 26.0119 314.083 26.0077C314.084 25.9985 314.084 25.9892 314.083 25.98C314.084 25.9707 314.084 25.9614 314.083 25.9522C314.083 25.9498 314.083 25.9474 314.083 25.945V25.9388C314.146 25.6957 314.284 25.4791 314.479 25.3206C314.667 25.1679 314.903 25.0846 315.145 25.0846C315.388 25.0846 315.623 25.1679 315.812 25.3206C316.005 25.4779 316.143 25.6925 316.206 25.9334V25.9397C316.206 25.9426 316.206 25.9457 316.206 25.9486V25.954C316.206 25.9626 316.206 25.9713 316.206 25.98C316.206 25.9877 316.206 25.9955 316.206 26.0033C316.207 26.0083 316.207 26.0134 316.206 26.0185C316.145 26.2622 316.006 26.4795 315.812 26.6385C315.623 26.7923 315.388 26.8765 315.144 26.8768ZM22.5849 26.8768C22.3415 26.8799 22.1051 26.7957 21.9184 26.6394C21.7247 26.4828 21.5866 26.2679 21.5247 26.0266C21.5239 26.0188 21.5239 26.011 21.5247 26.0033C21.5252 25.9958 21.5252 25.9883 21.5247 25.9809C21.5255 25.977 21.5255 25.9731 21.5247 25.9692C21.525 25.9572 21.5265 25.9452 21.5292 25.9334C21.5916 25.6922 21.7295 25.4774 21.9228 25.3206C22.1106 25.1695 22.344 25.0864 22.5849 25.085C22.8274 25.0845 23.0626 25.1681 23.2505 25.3215C23.4438 25.4783 23.5818 25.6931 23.6442 25.9343C23.645 25.9429 23.645 25.9516 23.6442 25.9603C23.6437 25.9671 23.6437 25.974 23.6442 25.9809V25.9889C23.6442 26.0016 23.6427 26.0142 23.6397 26.0266C23.5778 26.2679 23.4397 26.4828 23.2461 26.6394C23.0623 26.7972 22.827 26.8818 22.5849 26.8768ZM314.026 26.4136V25.575V25.5912V25.6252V25.67C314.031 25.7735 314.046 25.8764 314.07 25.9773C314.046 26.0779 314.031 26.1804 314.026 26.2837C314.026 26.3043 314.026 26.324 314.026 26.3446V26.35V26.3957V26.41V26.4136ZM324.762 26.4136V25.5688C324.763 25.5768 324.763 25.5849 324.762 25.593V25.6297V25.6745C324.767 25.7781 324.782 25.881 324.807 25.9818C324.782 26.0822 324.767 26.1848 324.762 26.2882C324.762 26.3288 324.761 26.3691 324.758 26.4091L324.762 26.4136ZM319.394 26.4136V25.5768C319.395 25.581 319.395 25.5852 319.394 25.5894V25.6315V25.6772C319.399 25.7807 319.414 25.8836 319.438 25.9845C319.414 26.085 319.399 26.1876 319.394 26.2908C319.399 26.3294 319.394 26.367 319.394 26.4109V26.4136ZM316.263 26.4136C316.263 26.3733 316.263 26.3374 316.257 26.2917C316.253 26.1884 316.238 26.0857 316.213 25.9853C316.238 25.8847 316.253 25.7817 316.257 25.6781C316.262 25.5885 316.264 25.4989 316.264 25.4398V26.4118L316.263 26.4136ZM21.4666 26.3545V25.5437V25.558V25.5697C21.4669 25.5741 21.4669 25.5786 21.4666 25.5831V25.5894C21.4661 25.5935 21.4661 25.5977 21.4666 25.6019V25.6718C21.4621 25.7761 21.4773 25.8804 21.5113 25.9791C21.4778 26.0776 21.4626 26.1815 21.4666 26.2855V26.298C21.4666 26.3159 21.4666 26.333 21.4666 26.3491V26.3545Z" fill="#0D0D0D"/>
</svg>
