<svg xmlns="http://www.w3.org/2000/svg" width="28.967" height="14" viewBox="0 0 28.967 14">
  <path id="Path_489" data-name="Path 489" d="M788.9,591.9a3.137,3.137,0,0,1-.52-.319,1.11,1.11,0,0,1,.024-1.652q1.819-1.816,3.647-3.624c.073-.073.16-.132.24-.2l-.027-.078h-.317q-11.65,0-23.3.008a1.293,1.293,0,0,1-1.411-.911v-.452a1.291,1.291,0,0,1,1.41-.911q11.633.018,23.266.008h.4c-.114-.118-.187-.2-.262-.271q-1.833-1.822-3.667-3.642a1.1,1.1,0,0,1-.317-1.136,1.068,1.068,0,0,1,.839-.792,1.13,1.13,0,0,1,1.1.356q2.062,2.051,4.129,4.1.832.825,1.662,1.653a1.126,1.126,0,0,1,.005,1.719q-2.9,2.889-5.816,5.766a3.366,3.366,0,0,1-.582.377Z" transform="translate(796.206 591.896) rotate(180)" fill="#00616e"/>
</svg>
