<svg xmlns="http://www.w3.org/2000/svg" width="220.121" height="220.121" viewBox="0 0 220.121 220.121">
  <g id="Group_78" data-name="Group 78" transform="translate(-138.188 -197.569)">
    <path id="Path_67" data-name="Path 67" d="M114.583,3.707,3.707,114.583a12.631,12.631,0,0,0,.848,18.652c41.517,34.29,84.9,27.4,120.492-8.187s42.477-78.975,8.188-120.493A12.631,12.631,0,0,0,114.583,3.707Z" transform="translate(248.248 417.69) rotate(-135)" fill="#cddcde" opacity="0.66"/>
    <rect id="Rectangle_25" data-name="Rectangle 25" width="17.698" height="17.698" rx="5.939" transform="translate(248.263 378.227) rotate(45)" fill="#1f606c"/>
    <g id="Group_485" data-name="Group 485" transform="translate(-241.621 -178.719)" style="mix-blend-mode: normal;isolation: isolate">
      <path id="Path_469" data-name="Path 469" d="M459.92,539.659a2.024,2.024,0,0,1-1.487-.624,1.92,1.92,0,0,1-.624-1.391,1.812,1.812,0,0,1,.1-.577,2.368,2.368,0,0,1,.288-.576l20.929-31.1-19.392-29.76a2.557,2.557,0,0,1-.289-1.151,2,2,0,0,1,.577-1.393,1.879,1.879,0,0,1,1.44-.624h13.919a3.111,3.111,0,0,1,2.208.72,7.756,7.756,0,0,1,1.152,1.3l11.425,17.376,11.615-17.376a7.711,7.711,0,0,1,1.152-1.3,3.11,3.11,0,0,1,2.208-.72h13.249a2.143,2.143,0,0,1,2.015,2.017,1.793,1.793,0,0,1-.383,1.151l-19.489,29.664,21.12,31.2a1.518,1.518,0,0,1,.241.576,3.612,3.612,0,0,1,.048.577,2,2,0,0,1-.577,1.391,1.871,1.871,0,0,1-1.439.624H505.616a3.291,3.291,0,0,1-2.256-.72,5.7,5.7,0,0,1-1.1-1.2l-12.672-18.431-12.576,18.431a6.171,6.171,0,0,1-1.055,1.2,3.113,3.113,0,0,1-2.208.72Z" fill="#f57100"/>
    </g>
  </g>
</svg>
