<svg width="13" height="13" viewBox="0 0 13 13" fill="none" xmlns="http://www.w3.org/2000/svg">
    <path d="M12.9922 1.84375C12.9922 2.45312 12.7161 3.04688 12.1641 3.625L12.0781 3.71094L7.25 8.79688C6.22396 9.875 5.34896 10.7083 4.625 11.2969C3.90625 11.8854 3.39844 12.1797 3.10156 12.1797C2.78906 12.1797 2.40104 12.0339 1.9375 11.7422C1.47396 11.4453 1.17448 11.1406 1.03906 10.8281C0.924479 10.5677 0.815104 10.0156 0.710938 9.17188C0.611979 8.32812 0.5625 7.41406 0.5625 6.42969C0.5625 5.89323 0.786458 5.39844 1.23438 4.94531C1.68229 4.48698 2.17708 4.25781 2.71875 4.25781C3.23438 4.25781 3.54167 4.72917 3.64062 5.67188C3.65104 5.78125 3.65885 5.86198 3.66406 5.91406C3.7474 6.63802 3.84375 7.14323 3.95312 7.42969C4.0625 7.71615 4.21094 7.85938 4.39844 7.85938C4.47656 7.85938 4.6224 7.77604 4.83594 7.60938C5.04948 7.4375 5.30469 7.20573 5.60156 6.91406L10.5625 2C10.9792 1.58333 11.3516 1.26823 11.6797 1.05469C12.0078 0.841146 12.2865 0.734375 12.5156 0.734375C12.6875 0.734375 12.8099 0.799479 12.8828 0.929688C12.9557 1.0599 12.9922 1.27865 12.9922 1.58594V1.84375Z" fill="#1F606C"/>
    </svg>
    