<svg xmlns="http://www.w3.org/2000/svg" width="178.637" height="187.313" viewBox="0 0 178.637 187.313">
  <g id="Group_78" data-name="Group 78" transform="translate(-159.034 -228.227)">
    <path id="Path_48" data-name="Path 48" d="M279.966,428.722c0-28.892,16.033-48.6,49.434-48.6s49.434,19.706,49.434,48.6-16.033,48.6-49.434,48.6S279.966,457.614,279.966,428.722Z" transform="translate(-81.136 -101)" fill="#103036"/>
    <path id="Path_65" data-name="Path 65" d="M279.966,467.44c0-51.91,28.807-87.316,88.818-87.316S457.6,415.53,457.6,467.44s-28.807,87.318-88.818,87.318S279.966,519.351,279.966,467.44Z" transform="translate(-120.432 -139.719)" fill="none" stroke="#1f606c" stroke-width="1"/>
    <g id="Group_1392" data-name="Group 1392" transform="translate(222.844 291.223)">
      <path id="Path_539" data-name="Path 539" d="M1017.813,935.6h6.513c.437.107.871.23,1.309.32a25.634,25.634,0,0,1,18.16,13.478,30.092,30.092,0,0,1,2.783,8.725V964.1c-.753,7.464-4.4,13.577-8.987,19.253-1.393,1.723-2.761,3.467-4.132,5.208-4.191,5.322-8,10.855-9.75,17.538a5.587,5.587,0,0,1-1.554,2.507h-2.171a7.373,7.373,0,0,1-1.94-3.652,36.189,36.189,0,0,0-4.875-10.214c-2.078-3.009-4.228-5.961-6.539-8.793-5.229-6.405-10.151-12.961-11.068-21.575v-6.242c.08-.4.166-.792.242-1.188a25.523,25.523,0,0,1,12.6-18.045A31.022,31.022,0,0,1,1017.813,935.6Zm3.168,35.1a9.648,9.648,0,1,0-9.593-10.028C1011.115,966.048,1015.3,970.423,1020.981,970.7Z" transform="translate(-995.561 -935.601)" fill="#fff"/>
    </g>
    <rect id="Rectangle_639" data-name="Rectangle 639" width="17.698" height="17.698" rx="5.939" transform="translate(248.264 228.227) rotate(45)" fill="#fba601"/>
  </g>
</svg>
