<svg width="24" height="23" viewBox="0 0 24 23" fill="none" xmlns="http://www.w3.org/2000/svg">
<mask id="path-1-inside-1_57_2022" fill="white">
<path d="M23.3604 2.95703C23.3604 4.09961 22.8428 5.21289 21.8076 6.29688L21.6465 6.45801L12.5938 15.9941C10.6699 18.0156 9.0293 19.5781 7.67188 20.6816C6.32422 21.7852 5.37207 22.3369 4.81543 22.3369C4.22949 22.3369 3.50195 22.0635 2.63281 21.5166C1.76367 20.96 1.20215 20.3887 0.948242 19.8027C0.733398 19.3145 0.52832 18.2793 0.333008 16.6973C0.147461 15.1152 0.0546875 13.4014 0.0546875 11.5557C0.0546875 10.5498 0.474609 9.62207 1.31445 8.77246C2.1543 7.91309 3.08203 7.4834 4.09766 7.4834C5.06445 7.4834 5.64062 8.36719 5.82617 10.1348C5.8457 10.3398 5.86035 10.4912 5.87012 10.5889C6.02637 11.9463 6.20703 12.8936 6.41211 13.4307C6.61719 13.9678 6.89551 14.2363 7.24707 14.2363C7.39355 14.2363 7.66699 14.0801 8.06738 13.7676C8.46777 13.4453 8.94629 13.0107 9.50293 12.4639L18.8047 3.25C19.5859 2.46875 20.2842 1.87793 20.8994 1.47754C21.5146 1.07715 22.0371 0.876953 22.4668 0.876953C22.7891 0.876953 23.0186 0.999023 23.1553 1.24316C23.292 1.4873 23.3604 1.89746 23.3604 2.47363V2.95703Z"/>
</mask>
<path d="M23.3604 2.95703C23.3604 4.09961 22.8428 5.21289 21.8076 6.29688L21.6465 6.45801L12.5938 15.9941C10.6699 18.0156 9.0293 19.5781 7.67188 20.6816C6.32422 21.7852 5.37207 22.3369 4.81543 22.3369C4.22949 22.3369 3.50195 22.0635 2.63281 21.5166C1.76367 20.96 1.20215 20.3887 0.948242 19.8027C0.733398 19.3145 0.52832 18.2793 0.333008 16.6973C0.147461 15.1152 0.0546875 13.4014 0.0546875 11.5557C0.0546875 10.5498 0.474609 9.62207 1.31445 8.77246C2.1543 7.91309 3.08203 7.4834 4.09766 7.4834C5.06445 7.4834 5.64062 8.36719 5.82617 10.1348C5.8457 10.3398 5.86035 10.4912 5.87012 10.5889C6.02637 11.9463 6.20703 12.8936 6.41211 13.4307C6.61719 13.9678 6.89551 14.2363 7.24707 14.2363C7.39355 14.2363 7.66699 14.0801 8.06738 13.7676C8.46777 13.4453 8.94629 13.0107 9.50293 12.4639L18.8047 3.25C19.5859 2.46875 20.2842 1.87793 20.8994 1.47754C21.5146 1.07715 22.0371 0.876953 22.4668 0.876953C22.7891 0.876953 23.0186 0.999023 23.1553 1.24316C23.292 1.4873 23.3604 1.89746 23.3604 2.47363V2.95703Z" fill="#1F606C"/>
<path d="M21.8076 6.29688L22.5147 7.00398L22.5229 6.99584L22.5308 6.98751L21.8076 6.29688ZM21.6465 6.45801L20.9394 5.7509L20.9302 5.76009L20.9212 5.76952L21.6465 6.45801ZM12.5938 15.9941L13.3181 16.6835L13.319 16.6826L12.5938 15.9941ZM7.67188 20.6816L7.04107 19.9057L7.03833 19.9079L7.67188 20.6816ZM2.63281 21.5166L2.09347 22.3587L2.10025 22.363L2.63281 21.5166ZM0.948242 19.8027L1.86581 19.4051L1.86356 19.4L0.948242 19.8027ZM0.333008 16.6973L-0.660203 16.8138L-0.659457 16.8198L0.333008 16.6973ZM1.31445 8.77246L2.02565 9.47548L2.02964 9.47139L1.31445 8.77246ZM5.82617 10.1348L6.82171 10.04L6.82071 10.0304L5.82617 10.1348ZM5.87012 10.5889L4.87508 10.6884L4.87582 10.6958L4.87668 10.7032L5.87012 10.5889ZM8.06738 13.7676L8.68265 14.5559L8.68856 14.5513L8.69439 14.5466L8.06738 13.7676ZM9.50293 12.4639L10.2038 13.1772L10.2067 13.1743L9.50293 12.4639ZM18.8047 3.25L19.5084 3.96046L19.5118 3.95711L18.8047 3.25ZM22.3604 2.95703C22.3604 3.77006 21.9991 4.64845 21.0844 5.60624L22.5308 6.98751C23.6865 5.77734 24.3604 4.42916 24.3604 2.95703H22.3604ZM21.1005 5.58977L20.9394 5.7509L22.3536 7.16511L22.5147 7.00398L21.1005 5.58977ZM20.9212 5.76952L11.8685 15.3057L13.319 16.6826L22.3717 7.14649L20.9212 5.76952ZM11.8694 15.3047C9.95982 17.3112 8.35205 18.8399 7.04107 19.9057L8.30268 21.4576C9.70655 20.3163 11.38 18.72 13.3181 16.6835L11.8694 15.3047ZM7.03833 19.9079C6.38508 20.4428 5.85659 20.8197 5.44564 21.0579C5.24093 21.1765 5.08168 21.2511 4.96362 21.2943C4.84053 21.3393 4.7979 21.3369 4.81543 21.3369V23.3369C5.37129 23.3369 5.94215 23.0817 6.44841 22.7883C6.9896 22.4747 7.61102 22.024 8.30542 21.4553L7.03833 19.9079ZM4.81543 21.3369C4.51214 21.3369 3.97995 21.1828 3.16537 20.6702L2.10025 22.363C3.02396 22.9442 3.94684 23.3369 4.81543 23.3369V21.3369ZM3.17213 20.6745C2.37642 20.1649 2.00557 19.7277 1.8658 19.4051L0.0306866 20.2003C0.398724 21.0497 1.15092 21.755 2.09349 22.3587L3.17213 20.6745ZM1.86356 19.4C1.71771 19.0685 1.52391 18.1821 1.32547 16.5747L-0.659457 16.8198C-0.467271 18.3765 -0.25091 19.5604 0.0329272 20.2055L1.86356 19.4ZM1.3262 16.5808C1.14583 15.0429 1.05469 13.3684 1.05469 11.5557H-0.945312C-0.945312 13.4343 -0.85091 15.1876 -0.660185 16.8138L1.3262 16.5808ZM1.05469 11.5557C1.05469 10.8616 1.33361 10.1755 2.02564 9.47547L0.603271 8.06945C-0.384389 9.0686 -0.945312 10.238 -0.945312 11.5557H1.05469ZM2.02964 9.47139C2.71851 8.76651 3.40014 8.4834 4.09766 8.4834V6.4834C2.76392 6.4834 1.59009 7.05966 0.599266 8.07353L2.02964 9.47139ZM4.09766 8.4834C4.208 8.4834 4.29368 8.50293 4.41718 8.69237C4.57862 8.94 4.7455 9.4186 4.83164 10.2392L6.82071 10.0304C6.7213 9.08335 6.50732 8.23627 6.09259 7.60011C5.63991 6.90576 4.95411 6.4834 4.09766 6.4834V8.4834ZM4.83068 10.2296C4.85023 10.4349 4.86507 10.5882 4.87508 10.6884L6.86515 10.4894C6.85564 10.3942 6.84117 10.2448 6.82167 10.04L4.83068 10.2296ZM4.87668 10.7032C5.03301 12.0613 5.2235 13.1211 5.47789 13.7874L7.34633 13.074C7.19057 12.666 7.01973 11.8313 6.86356 10.4745L4.87668 10.7032ZM5.47789 13.7874C5.72499 14.4345 6.24746 15.2363 7.24707 15.2363V13.2363C7.29027 13.2363 7.3407 13.2454 7.38933 13.2661C7.43624 13.2861 7.4622 13.3087 7.46903 13.3153C7.47438 13.3205 7.46172 13.3096 7.43714 13.2686C7.41267 13.2278 7.38114 13.1651 7.34633 13.074L5.47789 13.7874ZM7.24707 15.2363C7.60322 15.2363 7.90696 15.0738 8.05815 14.9874C8.25372 14.8756 8.46457 14.7261 8.68265 14.5559L7.45211 12.9793C7.26981 13.1215 7.14374 13.2064 7.06587 13.2509C7.02735 13.2729 7.01776 13.2751 7.032 13.2698C7.04018 13.2668 7.06147 13.2593 7.09386 13.2522C7.12554 13.2452 7.17838 13.2363 7.24707 13.2363V15.2363ZM8.69439 14.5466C9.12995 14.196 9.63429 13.7367 10.2038 13.1772L8.80211 11.7505C8.25828 12.2848 7.8056 12.6946 7.44037 12.9886L8.69439 14.5466ZM10.2067 13.1743L19.5084 3.96046L18.1009 2.53954L8.79919 11.7534L10.2067 13.1743ZM19.5118 3.95711C20.2659 3.20303 20.9092 2.66427 21.4449 2.31568L20.354 0.6394C19.6591 1.09159 18.906 1.73447 18.0976 2.54289L19.5118 3.95711ZM21.4449 2.31568C21.9998 1.95455 22.3243 1.87695 22.4668 1.87695V-0.123047C21.7499 -0.123047 21.0295 0.199742 20.354 0.6394L21.4449 2.31568ZM22.4668 1.87695C22.5028 1.87695 22.4715 1.88355 22.411 1.85138C22.3813 1.83557 22.3528 1.81457 22.3282 1.79005C22.3041 1.76593 22.2898 1.7444 22.2828 1.73177L24.0278 0.754561C23.6841 0.140898 23.085 -0.123047 22.4668 -0.123047V1.87695ZM22.2828 1.73177C22.2744 1.71684 22.2992 1.7571 22.3227 1.89829C22.3451 2.0328 22.3604 2.22128 22.3604 2.47363H24.3604C24.3604 1.87177 24.2982 1.23747 24.0278 0.754561L22.2828 1.73177ZM22.3604 2.47363V2.95703H24.3604V2.47363H22.3604Z" fill="#1F606C" mask="url(#path-1-inside-1_57_2022)"/>
</svg>
