<svg width="30" height="30" viewBox="0 0 30 30" fill="none" xmlns="http://www.w3.org/2000/svg">
<circle cx="15" cy="15" r="14.5" stroke="#1F606C"/>
<path d="M20.9922 9.84375C20.9922 10.4531 20.7161 11.0469 20.1641 11.625L20.0781 11.7109L15.25 16.7969C14.224 17.875 13.349 18.7083 12.625 19.2969C11.9062 19.8854 11.3984 20.1797 11.1016 20.1797C10.7891 20.1797 10.401 20.0339 9.9375 19.7422C9.47396 19.4453 9.17448 19.1406 9.03906 18.8281C8.92448 18.5677 8.8151 18.0156 8.71094 17.1719C8.61198 16.3281 8.5625 15.4141 8.5625 14.4297C8.5625 13.8932 8.78646 13.3984 9.23438 12.9453C9.68229 12.487 10.1771 12.2578 10.7188 12.2578C11.2344 12.2578 11.5417 12.7292 11.6406 13.6719C11.651 13.7812 11.6589 13.862 11.6641 13.9141C11.7474 14.638 11.8438 15.1432 11.9531 15.4297C12.0625 15.7161 12.2109 15.8594 12.3984 15.8594C12.4766 15.8594 12.6224 15.776 12.8359 15.6094C13.0495 15.4375 13.3047 15.2057 13.6016 14.9141L18.5625 10C18.9792 9.58333 19.3516 9.26823 19.6797 9.05469C20.0078 8.84115 20.2865 8.73438 20.5156 8.73438C20.6875 8.73438 20.8099 8.79948 20.8828 8.92969C20.9557 9.0599 20.9922 9.27865 20.9922 9.58594V9.84375Z" fill="#1F606C"/>
</svg>
