<svg width="32" height="32" viewBox="0 0 32 32" fill="none" xmlns="http://www.w3.org/2000/svg">
<circle cx="16" cy="16" r="16" fill="#1F606C"/>
<path d="M12.0117 10.0788C12.0117 7.65383 13.3794 6 16.2287 6C19.0779 6 20.4464 7.654 20.4464 10.0788C20.4464 12.5037 19.0786 14.1578 16.2294 14.1578C13.3802 14.1578 12.0117 12.5038 12.0117 10.0788Z" fill="white"/>
<path d="M8.94404 23.3509L23.5173 23.3509C23.6806 23.3511 23.8422 23.3177 23.9916 23.2529C24.1411 23.1882 24.2752 23.0934 24.3853 22.9747C24.4954 22.8561 24.5792 22.7161 24.6312 22.5638C24.6832 22.4115 24.7024 22.2501 24.6874 22.0901C24.2123 17.1884 20.9086 14.8284 16.2307 14.8285C11.5527 14.8287 8.24973 17.1891 7.77357 22.0898C7.75856 22.2498 7.77766 22.4112 7.82968 22.5636C7.88169 22.716 7.96546 22.856 8.07564 22.9748C8.18581 23.0935 8.31995 23.1882 8.46949 23.253C8.61902 23.3178 8.78066 23.3511 8.94404 23.3509Z" fill="white"/>
</svg>
