<svg width="31" height="28" viewBox="0 0 31 28" fill="none" xmlns="http://www.w3.org/2000/svg">
<path d="M7.1431 15.9302C7.12629 14.9433 7.40359 13.9737 7.93966 13.1449C8.47573 12.3162 9.24631 11.6657 10.1533 11.2763C11.0603 10.8869 12.0627 10.7763 13.0328 10.9585C14.0028 11.1407 14.8967 11.6075 15.6006 12.2994C16.3046 12.9913 16.7866 13.8771 16.9854 14.8439C17.1843 15.8107 17.0909 16.8148 16.7171 17.7284C16.3434 18.6419 15.7063 19.4236 14.8868 19.9738C14.0673 20.524 13.1026 20.8179 12.1156 20.818C11.4516 20.8935 10.7792 20.8197 10.1474 20.602C9.51559 20.3843 8.94041 20.0283 8.46385 19.5598C7.98729 19.0914 7.62139 18.5224 7.39288 17.8944C7.16437 17.2664 7.07904 16.5954 7.1431 15.9302Z" stroke="#FBA601" stroke-width="1.4595"/>
<path d="M1 15.9307C1 9.433 4.60497 5.00195 12.117 5.00195C19.629 5.00195 23.234 9.433 23.234 15.9307C23.234 22.4284 19.629 26.8594 12.117 26.8594C4.60497 26.8594 1 22.4284 1 15.9307Z" stroke="#FBA601" stroke-width="1.4595"/>
<circle cx="22.7065" cy="7.96094" r="6.5" fill="#FBA601"/>
<path fill-rule="evenodd" clip-rule="evenodd" d="M23.291 3.72017L22.3709 3.72017V7.36806L18.723 7.36806V8.28819L22.3709 8.28819V11.9361L23.291 11.9361L23.291 8.28819L26.9389 8.28819V7.36806L23.291 7.36806L23.291 3.72017Z" fill="white" stroke="white" stroke-width="0.745791"/>
</svg>
