<svg xmlns="http://www.w3.org/2000/svg" width="178.637" height="185.351" viewBox="0 0 178.637 185.351">
  <g id="Group_78" data-name="Group 78" transform="translate(-159.034 -239.905)">
    <path id="Path_48" data-name="Path 48" d="M279.966,428.722c0-28.892,16.033-48.6,49.434-48.6s49.434,19.706,49.434,48.6-16.033,48.6-49.434,48.6S279.966,457.614,279.966,428.722Z" transform="translate(-81.136 -101)" fill="#f57100"/>
    <path id="Path_65" data-name="Path 65" d="M279.966,467.44c0-51.91,28.807-87.316,88.818-87.316S457.6,415.53,457.6,467.44s-28.807,87.318-88.818,87.318S279.966,519.351,279.966,467.44Z" transform="translate(-120.432 -139.719)" fill="none" stroke="#1f606c" stroke-width="1"/>
    <rect id="Rectangle_639" data-name="Rectangle 639" width="17.698" height="17.698" rx="5.939" transform="translate(248.264 400.227) rotate(45)" fill="#fba601"/>
    <g id="Group_1" data-name="Group 1" transform="translate(219.267 302.932)">
      <path id="Path_1" data-name="Path 1" d="M586.968,232.1V274.8a3.439,3.439,0,0,0,3.754,3.428c14.6-1.392,21.622-11.07,21.622-24.775s-7.027-23.383-21.622-24.775A3.439,3.439,0,0,0,586.968,232.1Z" transform="translate(-554.174 -228.659)" fill="#fff"/>
      <path id="Path_2" data-name="Path 2" d="M537.981,250.99v28.178a2.27,2.27,0,0,0,2.478,2.262c9.633-.919,14.271-7.306,14.271-16.351s-4.638-15.433-14.271-16.352A2.27,2.27,0,0,0,537.981,250.99Z" transform="translate(-525.771 -240.289)" fill="#fff"/>
      <path id="Path_3" data-name="Path 3" d="M508.924,269.323v14.089a1.135,1.135,0,0,0,1.239,1.131c4.817-.459,7.135-3.653,7.135-8.175s-2.319-7.717-7.135-8.176A1.135,1.135,0,0,0,508.924,269.323Z" transform="translate(-508.924 -251.577)" fill="#fff"/>
    </g>
  </g>
</svg>
