<svg xmlns="http://www.w3.org/2000/svg" width="126.836" height="167.236" viewBox="0 0 126.836 167.236">
  <g id="Group_120" data-name="Group 120" transform="translate(-158 -285.764)">
    <g id="Group_89" data-name="Group 89">
      <g id="Group_78" data-name="Group 78" transform="translate(29.648 31.67)">
        <path id="Path_48" data-name="Path 48" d="M279.966,403.29c0-13.773,7.643-23.166,23.565-23.166S327.1,389.518,327.1,403.29s-7.643,23.167-23.565,23.167S279.966,417.063,279.966,403.29Z" transform="translate(-118.017 -101)" fill="#fdb07f"/>
      </g>
      <path id="Path_51" data-name="Path 51" d="M59.51,1.925,1.925,59.51a6.56,6.56,0,0,0,.44,9.687C23.928,87.005,46.46,83.429,64.944,64.944S87,23.928,69.2,2.365A6.56,6.56,0,0,0,59.51,1.925Z" transform="translate(215.161 453) rotate(-135)" fill="#fdb07f"/>
    </g>
    <rect id="Rectangle_26" data-name="Rectangle 26" width="17.698" height="17.698" rx="5.939" transform="translate(272.322 285.764) rotate(45)" fill="#fba601"/>
  </g>
</svg>
