<svg width="101" height="101" viewBox="0 0 101 101" fill="none" xmlns="http://www.w3.org/2000/svg">
    <circle cx="50.4762" cy="50.4762" r="48.9762" stroke="#1F606C" stroke-width="3"/>
    <path d="M36.9175 33.9576C36.9175 26.1923 41.2971 20.8965 50.4209 20.8965C59.5447 20.8965 63.9266 26.1929 63.9266 33.9576C63.9266 41.7223 59.547 47.0193 50.4232 47.0193C41.2994 47.0193 36.9175 41.7229 36.9175 33.9576Z" fill="#FDA774"/>
    <path d="M27.0888 76.4557L73.7548 76.4557C74.2778 76.4561 74.7951 76.3493 75.2737 76.1418C75.7523 75.9344 76.1817 75.631 76.5343 75.251C76.8869 74.871 77.1551 74.4228 77.3217 73.9351C77.4883 73.4473 77.5495 72.9307 77.5016 72.4183C75.9801 56.7223 65.4014 49.1651 50.4218 49.1655C35.4422 49.1659 24.8655 56.7243 23.3408 72.4171C23.2927 72.9297 23.3539 73.4465 23.5204 73.9345C23.687 74.4225 23.9552 74.8709 24.308 75.251C24.6608 75.6312 25.0904 75.9347 25.5692 76.1421C26.048 76.3495 26.5656 76.4563 27.0888 76.4557Z" fill="#FFD6BA"/>
</svg>
    