<svg xmlns="http://www.w3.org/2000/svg" width="22.161" height="24.246" viewBox="0 0 22.161 24.246">
  <g id="Group_506" data-name="Group 506" transform="translate(-33.472 -195.519)">
    <path id="Path_472" data-name="Path 472" d="M812.78,340.8v-3.541c-.527-.049-1.03-.065-1.523-.145a9.655,9.655,0,0,1-7.586-5.292,8.325,8.325,0,0,1,1.575-9.626,9.77,9.77,0,0,1,5.5-2.938,10.1,10.1,0,0,1,10.245,3.764,8.3,8.3,0,0,1,1.288,8.094,14.251,14.251,0,0,1-4.3,6.133,23.917,23.917,0,0,1-4.851,3.407C813.037,340.7,812.942,340.735,812.78,340.8Z" transform="translate(-768.168 -122.543)" fill="none" stroke="#103036" stroke-width="2"/>
    <line id="Line_15" data-name="Line 15" y2="0.01" transform="translate(45 206)" fill="none" stroke="#103036" stroke-linecap="round" stroke-linejoin="round" stroke-width="3"/>
    <line id="Line_16" data-name="Line 16" y2="0.01" transform="translate(41 206)" fill="none" stroke="#103036" stroke-linecap="round" stroke-linejoin="round" stroke-width="3"/>
    <line id="Line_17" data-name="Line 17" y2="0.01" transform="translate(49 206)" fill="none" stroke="#103036" stroke-linecap="round" stroke-linejoin="round" stroke-width="3"/>
  </g>
</svg>
