<svg xmlns="http://www.w3.org/2000/svg" xmlns:xlink="http://www.w3.org/1999/xlink" width="125" height="125" viewBox="0 0 125 125">
  <defs>
    <filter id="Ellipse_3" x="0" y="0" width="125" height="125" filterUnits="userSpaceOnUse">
      <feOffset dy="10" input="SourceAlpha"/>
      <feGaussianBlur stdDeviation="12.5" result="blur"/>
      <feFlood flood-color="#f57100" flood-opacity="0.329"/>
      <feComposite operator="in" in2="blur"/>
      <feComposite in="SourceGraphic"/>
    </filter>
  </defs>
  <g id="Group_466" data-name="Group 466" transform="translate(-31.5 -779.5)">
    <g transform="matrix(1, 0, 0, 1, 31.5, 779.5)" filter="url(#Ellipse_3)">
      <circle id="Ellipse_3-2" data-name="Ellipse 3" cx="25" cy="25" r="25" transform="translate(37.5 27.5)" fill="#fdb07f"/>
    </g>
    <path id="Path_60" data-name="Path 60" d="M1511.09,445.7V444.29a2.5,2.5,0,0,0,.052-.255,8.982,8.982,0,0,1,2.267-5.226,7.51,7.51,0,0,1,6.559-2.642,7.834,7.834,0,0,1,5.908,3.677l.188.28c.428-.528.809-1.063,1.255-1.536a7.661,7.661,0,0,1,10.266-.9,9.072,9.072,0,0,1,2.85,10.553,17.731,17.731,0,0,1-3.343,5.191,46.383,46.383,0,0,1-10.487,8.473.9.9,0,0,1-1.046-.018c-1.631-1.106-3.3-2.163-4.879-3.336a33.572,33.572,0,0,1-6.706-6.425,14.116,14.116,0,0,1-2.5-4.665C1511.3,446.885,1511.214,446.285,1511.09,445.7Z" transform="translate(-1432.09 382.905)" fill="none" stroke="#fff" stroke-width="1"/>
  </g>
</svg>
