<svg width="105" height="101" viewBox="0 0 105 101" fill="none" xmlns="http://www.w3.org/2000/svg">
    <rect width="101" height="101" rx="50.5" fill="#FF9501"/>
    <path d="M41.6067 30.8338C41.7712 30.8338 41.9134 30.8937 42.0331 31.0134C42.1528 31.1331 42.2127 31.2752 42.2127 31.4398V45.9389C42.2127 46.1035 42.1528 46.2457 42.0331 46.3654C41.9134 46.4851 41.7712 46.5449 41.6067 46.5449H39.7887C39.6241 46.5449 39.4819 46.4851 39.3622 46.3654C39.2425 46.2457 39.1827 46.1035 39.1827 45.9389V40.0136H32.4044V45.9389C32.4044 46.1035 32.3446 46.2457 32.2249 46.3654C32.1052 46.4851 31.963 46.5449 31.7984 46.5449H29.9804C29.8158 46.5449 29.6737 46.4926 29.554 46.3878C29.4343 46.2681 29.3744 46.1185 29.3744 45.9389V31.4398C29.3744 31.2752 29.4343 31.1331 29.554 31.0134C29.6737 30.8937 29.8158 30.8338 29.9804 30.8338H31.7984C31.963 30.8338 32.1052 30.8937 32.2249 31.0134C32.3446 31.1331 32.4044 31.2752 32.4044 31.4398V37.208H39.1827V31.4398C39.1827 31.2752 39.2425 31.1331 39.3622 31.0134C39.4819 30.8937 39.6241 30.8338 39.7887 30.8338H41.6067ZM50.417 34.6494C51.5093 34.6494 52.4744 34.9112 53.3123 35.4349C54.1502 35.9437 54.7936 36.632 55.2425 37.4998C55.7064 38.3677 55.9383 39.3178 55.9383 40.3503V41.3603C55.9383 41.5248 55.8785 41.667 55.7587 41.7867C55.639 41.9064 55.4969 41.9663 55.3323 41.9663H47.8359C47.8359 42.6097 48.0902 43.1259 48.599 43.5149C49.1077 43.889 49.7137 44.076 50.417 44.076C51.2399 44.076 51.8759 43.904 52.3248 43.5598C52.4893 43.4401 52.624 43.3578 52.7288 43.3129C52.8335 43.268 52.9756 43.2456 53.1552 43.2456H54.9507C55.1153 43.2456 55.2575 43.3054 55.3772 43.4251C55.4969 43.5299 55.5567 43.6571 55.5567 43.8067C55.5567 44.1209 55.3473 44.5174 54.9283 44.9963C54.5243 45.4751 53.9333 45.894 53.1552 46.2531C52.3771 46.5973 51.4644 46.7694 50.417 46.7694C49.3097 46.7694 48.3371 46.515 47.4992 46.0063C46.6762 45.4975 46.0403 44.7868 45.5914 43.874C45.1425 42.9613 44.9181 41.9064 44.9181 40.7094C44.9181 39.5871 45.1425 38.5697 45.5914 37.6569C46.0403 36.7292 46.6837 35.996 47.5216 35.4574C48.3596 34.9187 49.3247 34.6494 50.417 34.6494ZM52.9083 39.4076C52.7437 38.031 51.9133 37.3427 50.417 37.3427C49.6389 37.3427 49.0254 37.5522 48.5765 37.9711C48.1426 38.3901 47.8957 38.8689 47.8359 39.4076H52.9083ZM61.3074 45.9389C61.3074 46.1035 61.2476 46.2457 61.1279 46.3654C61.0082 46.4851 60.866 46.5449 60.7014 46.5449H58.9957C58.8311 46.5449 58.6889 46.4851 58.5692 46.3654C58.4495 46.2457 58.3897 46.1035 58.3897 45.9389V31.2154C58.3897 31.0508 58.4495 30.9086 58.5692 30.7889C58.6889 30.6692 58.8311 30.6094 58.9957 30.6094H60.7014C60.866 30.6094 61.0082 30.6692 61.1279 30.7889C61.2476 30.9086 61.3074 31.0508 61.3074 31.2154V45.9389ZM67.3131 50.2034C67.3131 50.368 67.2532 50.5101 67.1335 50.6298C67.0138 50.7495 66.8717 50.8094 66.7071 50.8094H65.0013C64.8367 50.8094 64.6946 50.7495 64.5749 50.6298C64.4552 50.5101 64.3953 50.368 64.3953 50.2034V35.4798C64.3953 35.3152 64.4552 35.1731 64.5749 35.0534C64.6946 34.9337 64.8367 34.8738 65.0013 34.8738H66.7071C66.8717 34.8738 67.0138 34.9337 67.1335 35.0534C67.2532 35.1731 67.3131 35.3152 67.3131 35.4798V35.996C67.6273 35.6369 68.0612 35.3227 68.6149 35.0534C69.1685 34.784 69.8643 34.6494 70.7022 34.6494C71.6748 34.6494 72.5277 34.8963 73.2609 35.39C74.009 35.8688 74.5926 36.5123 75.0115 37.3203C75.4305 38.1133 75.6624 38.9811 75.7073 39.9238C75.7223 40.0734 75.7297 40.3353 75.7297 40.7094C75.7297 41.0834 75.7223 41.3453 75.7073 41.4949C75.6624 42.4376 75.4305 43.3129 75.0115 44.1209C74.5926 44.914 74.009 45.5574 73.2609 46.0511C72.5277 46.53 71.6748 46.7694 70.7022 46.7694C69.8792 46.7694 69.1909 46.6347 68.6373 46.3654C68.0837 46.096 67.6423 45.7818 67.3131 45.4227V50.2034ZM72.8344 40.7094C72.8344 39.5722 72.58 38.7268 72.0713 38.1731C71.5626 37.6195 70.8817 37.3427 70.0289 37.3427C69.2807 37.3427 68.6597 37.5671 68.166 38.016C67.6722 38.45 67.3879 39.0634 67.3131 39.8565C67.2981 40.0061 67.2906 40.2904 67.2906 40.7094C67.2906 41.1283 67.2981 41.4126 67.3131 41.5623C67.3879 42.3254 67.6722 42.9388 68.166 43.4027C68.6747 43.8516 69.2957 44.076 70.0289 44.076C70.792 44.076 71.4204 43.8516 71.9142 43.4027C72.408 42.9538 72.6997 42.2655 72.7895 41.3378C72.8194 41.0386 72.8344 40.8291 72.8344 40.7094ZM34.3476 55.8338C34.5721 55.8338 34.7441 55.8937 34.8639 56.0134C34.9985 56.1331 35.1107 56.3276 35.2005 56.5969L40.6994 70.7818C40.7144 70.8267 40.7219 70.8791 40.7219 70.9389C40.7219 71.1035 40.662 71.2457 40.5423 71.3654C40.4226 71.4851 40.2804 71.5449 40.1159 71.5449H38.4999C38.051 71.5449 37.7592 71.3579 37.6245 70.9838L36.6594 68.4925H29.567L28.6019 70.9838C28.4672 71.3579 28.1754 71.5449 27.7265 71.5449H26.1105C25.9459 71.5449 25.8038 71.4851 25.6841 71.3654C25.5644 71.2457 25.5045 71.1035 25.5045 70.9389C25.5045 70.8791 25.512 70.8267 25.527 70.7818L31.0259 56.5969C31.1156 56.3276 31.2204 56.1331 31.3401 56.0134C31.4747 55.8937 31.6543 55.8338 31.8787 55.8338H34.3476ZM33.1132 59.2903L30.6443 65.6869H35.5821L33.1132 59.2903ZM45.4824 70.9389C45.4824 71.1035 45.4225 71.2457 45.3028 71.3654C45.1831 71.4851 45.0409 71.5449 44.8764 71.5449H43.1706C43.006 71.5449 42.8638 71.4851 42.7441 71.3654C42.6244 71.2457 42.5646 71.1035 42.5646 70.9389V56.2154C42.5646 56.0508 42.6244 55.9086 42.7441 55.7889C42.8638 55.6692 43.006 55.6094 43.1706 55.6094H44.8764C45.0409 55.6094 45.1831 55.6692 45.3028 55.7889C45.4225 55.9086 45.4824 56.0508 45.4824 56.2154V70.9389ZM53.4856 59.6494C54.5778 59.6494 55.543 59.9112 56.3809 60.4349C57.2188 60.9437 57.8622 61.632 58.3111 62.4998C58.775 63.3677 59.0069 64.3178 59.0069 65.3503V66.3603C59.0069 66.5248 58.947 66.667 58.8273 66.7867C58.7076 66.9064 58.5655 66.9663 58.4009 66.9663H50.9044C50.9044 67.6097 51.1588 68.1259 51.6676 68.5149C52.1763 68.889 52.7823 69.076 53.4856 69.076C54.3085 69.076 54.9444 68.904 55.3933 68.5598C55.5579 68.4401 55.6926 68.3578 55.7973 68.3129C55.9021 68.268 56.0442 68.2456 56.2238 68.2456H58.0193C58.1839 68.2456 58.3261 68.3054 58.4458 68.4251C58.5655 68.5299 58.6253 68.6571 58.6253 68.8067C58.6253 69.1209 58.4158 69.5174 57.9969 69.9963C57.5929 70.4751 57.0018 70.894 56.2238 71.2531C55.4457 71.5973 54.533 71.7694 53.4856 71.7694C52.3783 71.7694 51.4057 71.515 50.5678 71.0063C49.7448 70.4975 49.1089 69.7868 48.66 68.874C48.2111 67.9613 47.9867 66.9064 47.9867 65.7094C47.9867 64.5871 48.2111 63.5697 48.66 62.6569C49.1089 61.7292 49.7523 60.996 50.5902 60.4574C51.4281 59.9187 52.3933 59.6494 53.4856 59.6494ZM55.9769 64.4076C55.8123 63.031 54.9818 62.3427 53.4856 62.3427C52.7075 62.3427 52.094 62.5522 51.6451 62.9711C51.2112 63.3901 50.9643 63.8689 50.9044 64.4076H55.9769ZM66.9122 62.5671C66.0145 62.5671 65.3636 62.7691 64.9596 63.1731C64.5705 63.5622 64.376 64.2056 64.376 65.1034V70.9389C64.376 71.1035 64.3162 71.2457 64.1965 71.3654C64.0768 71.4851 63.9346 71.5449 63.77 71.5449H62.0642C61.8996 71.5449 61.7575 71.4851 61.6378 71.3654C61.5181 71.2457 61.4582 71.1035 61.4582 70.9389V60.4798C61.4582 60.3152 61.5181 60.1731 61.6378 60.0534C61.7575 59.9337 61.8996 59.8738 62.0642 59.8738H63.77C63.9346 59.8738 64.0768 59.9337 64.1965 60.0534C64.3162 60.1731 64.376 60.3152 64.376 60.4798V60.996C64.78 60.607 65.2065 60.3227 65.6554 60.1431C66.1042 59.9636 66.6728 59.8738 67.3611 59.8738H68.3711C68.5357 59.8738 68.6779 59.9337 68.7976 60.0534C68.9173 60.1731 68.9771 60.3152 68.9771 60.4798V61.9611C68.9771 62.1257 68.9173 62.2679 68.7976 62.3876C68.6779 62.5073 68.5357 62.5671 68.3711 62.5671H66.9122ZM74.7671 67.3254C74.7671 67.8191 74.8943 68.2007 75.1486 68.47C75.418 68.7244 75.8744 68.8516 76.5178 68.8516H77.8869C78.0515 68.8516 78.1936 68.9114 78.3133 69.0311C78.433 69.1508 78.4929 69.293 78.4929 69.4576V70.9389C78.4929 71.1035 78.433 71.2457 78.3133 71.3654C78.1936 71.4851 78.0515 71.5449 77.8869 71.5449H76.226C74.8045 71.5449 73.7197 71.2008 72.9715 70.5125C72.2234 69.8092 71.8493 68.7693 71.8493 67.3927V62.5671H70.368C70.2034 62.5671 70.0612 62.5073 69.9415 62.3876C69.8218 62.2679 69.762 62.1257 69.762 61.9611V60.4798C69.762 60.3152 69.8218 60.1731 69.9415 60.0534C70.0612 59.9337 70.2034 59.8738 70.368 59.8738H71.8493V56.2154C71.8493 56.0508 71.9092 55.9086 72.0289 55.7889C72.1486 55.6692 72.2907 55.6094 72.4553 55.6094H74.1611C74.3257 55.6094 74.4678 55.6692 74.5875 55.7889C74.7072 55.9086 74.7671 56.0508 74.7671 56.2154V59.8738H77.6624C77.827 59.8738 77.9692 59.9337 78.0889 60.0534C78.2086 60.1731 78.2684 60.3152 78.2684 60.4798V61.9611C78.2684 62.1257 78.2086 62.2679 78.0889 62.3876C77.9692 62.5073 77.827 62.5671 77.6624 62.5671H74.7671V67.3254Z" fill="white"/>
    </svg>
    