<svg xmlns="http://www.w3.org/2000/svg" width="220.121" height="220.121" viewBox="0 0 220.121 220.121">
  <g id="Group_78" data-name="Group 78" transform="translate(-138.188 -197.569)">
    <path id="Path_67" data-name="Path 67" d="M114.583,3.707,3.707,114.583a12.631,12.631,0,0,0,.848,18.652c41.517,34.29,84.9,27.4,120.492-8.187s42.477-78.975,8.188-120.493A12.631,12.631,0,0,0,114.583,3.707Z" transform="translate(248.248 417.69) rotate(-135)" fill="#cddcde" opacity="0.66"/>
    <rect id="Rectangle_25" data-name="Rectangle 25" width="17.698" height="17.698" rx="5.939" transform="translate(248.263 378.227) rotate(45)" fill="#1f606c"/>
    <path id="Path_68" data-name="Path 68" d="M1397.9,517.384v-2.932a1.767,1.767,0,0,0,.251-.381,6.542,6.542,0,0,1,5.966-4.819c5.063-.487,10.13-.939,15.2-1.4q9.91-.9,19.821-1.78a1.4,1.4,0,0,0,1.329-.991c1.6-3.826,3.241-7.631,4.872-11.442,2.99-6.988,5.963-13.982,8.978-20.958a6.576,6.576,0,0,1,8-3.906,6.909,6.909,0,0,1,4.518,4.294q6.781,15.931,13.589,31.85a1.57,1.57,0,0,0,1.463,1.17q8.638.72,17.269,1.523c6.038.551,12.077,1.1,18.109,1.7a6.182,6.182,0,0,1,5,3.469,6.634,6.634,0,0,1-1.789,8.357q-12.938,11.365-25.915,22.686a2.168,2.168,0,0,0-.8,2.474q3.826,16.576,7.557,33.174c1.046,4.62-.687,7.514-5.259,8.855-.061.018-.1.114-.148.174h-1.955c-1.1-.575-2.273-.974-3.351-1.623-9.722-5.851-19.474-11.651-29.2-17.5a1.532,1.532,0,0,0-1.856,0c-7.313,4.41-14.622,8.83-22,13.14-3.554,2.077-6.868,4.605-10.814,5.977h-1.955c-.085-.077-.158-.191-.258-.225-4.326-1.489-5.921-4.323-4.91-8.788q3.773-16.655,7.579-33.3a1.984,1.984,0,0,0-.713-2.28c-8-6.941-15.933-13.948-23.908-20.911C1400.708,521.367,1398.761,519.833,1397.9,517.384Z" transform="translate(-1211.621 -206.869)" fill="#fba601"/>
  </g>
</svg>
