<svg width="32" height="27" viewBox="0 0 32 27" fill="none" xmlns="http://www.w3.org/2000/svg">
<path d="M1 14.9287C1 8.43105 4.60497 4 12.117 4C19.629 4 23.234 8.43105 23.234 14.9287C23.234 21.4264 19.629 25.8575 12.117 25.8575C4.60497 25.8575 1 21.4264 1 14.9287Z" stroke="#FBA601" stroke-width="1.4595"/>
<path d="M7.1431 14.9302C7.12629 13.9433 7.40359 12.9737 7.93966 12.1449C8.47573 11.3162 9.24631 10.6657 10.1533 10.2763C11.0603 9.88693 12.0627 9.7763 13.0328 9.9585C14.0028 10.1407 14.8967 10.6075 15.6006 11.2994C16.3046 11.9913 16.7866 12.8771 16.9854 13.8439C17.1843 14.8107 17.0909 15.8148 16.7171 16.7284C16.3434 17.6419 15.7063 18.4236 14.8868 18.9738C14.0673 19.524 13.1026 19.8179 12.1156 19.818C11.4516 19.8935 10.7792 19.8197 10.1474 19.602C9.51559 19.3843 8.94041 19.0283 8.46385 18.5598C7.98729 18.0914 7.62139 17.5224 7.39288 16.8944C7.16437 16.2664 7.07904 15.5954 7.1431 14.9302Z" stroke="#FBA601" stroke-width="1.4595"/>
<path d="M24.5625 13.9375C20.9726 13.9375 18.0625 11.0274 18.0625 7.4375C18.0625 3.84765 20.9726 0.9375 24.5625 0.9375C28.1524 0.9375 31.0625 3.84765 31.0625 7.4375C31.0625 11.0274 28.1524 13.9375 24.5625 13.9375Z" fill="#FBA601"/>
<path d="M28.7891 7.36914H22.7891" stroke="white" stroke-width="1.25" stroke-miterlimit="10" stroke-linecap="round"/>
<path d="M24.6079 4.38867L22.0686 6.92798C21.8245 7.17206 21.8245 7.56779 22.0686 7.81186L24.6079 10.3512" stroke="white" stroke-width="1.25" stroke-miterlimit="10" stroke-linecap="round"/>
</svg>
