<svg width="10" height="5" viewBox="0 0 10 5" fill="none" xmlns="http://www.w3.org/2000/svg">
<path d="M9.375 4.30705C9.375 4.11589 9.30309 3.9546 9.15926 3.82318L5.28243 0.244922C5.10591 0.0776581 4.91632 0 4.6875 0C4.45868 0 4.26255 0.077658 4.09257 0.238948L0.215743 3.82318C0.0719142 3.9546 0 4.11589 0 4.30705C0 4.68937 0.333421 5 0.751831 5C0.961036 5 1.15063 4.92234 1.30753 4.78495L4.69404 1.64277L8.07401 4.78495C8.22437 4.92234 8.41397 5 8.62317 5C9.04158 5 9.375 4.68937 9.375 4.30705Z" fill="#103036"/>
</svg>
