<svg xmlns="http://www.w3.org/2000/svg" width="20.745" height="20.745" viewBox="0 0 20.745 20.745">
  <g id="_5jHMJi.tif" data-name="5jHMJi.tif" transform="translate(-805.44 -284.11)">
    <g id="Group_532" data-name="Group 532" transform="translate(806.44 285.11)">
      <path id="Path_492" data-name="Path 492" d="M825.184,294.238q0-2.031,0-4.063a1.588,1.588,0,0,0-.946-1.559,2.064,2.064,0,0,0-.83-.167c-2.519-.012-5.039-.007-7.558-.007h-.233c-.045-.361-.081-.712-.135-1.06a7.543,7.543,0,0,0-.226-1.235,1.517,1.517,0,0,0-1.207-1c-.034-.008-.068-.021-.1-.032H807.9a1.955,1.955,0,0,0-.855.376,1.632,1.632,0,0,0-.58,1,.544.544,0,0,1-.029.086v12.484a4.331,4.331,0,0,0,.33.781,1.582,1.582,0,0,0,1.4.684h4.545c.057.458.107.9.168,1.338a4.711,4.711,0,0,0,.16.9,1.617,1.617,0,0,0,1.609,1.1c1.293,0,2.586,0,3.88,0h4.9a1.673,1.673,0,0,0,1.415-.668,1.746,1.746,0,0,0,.332-1.1Q825.183,298.164,825.184,294.238Zm-16.955,5.186c-.494,0-.69-.194-.69-.683V286.881c0-.469.2-.672.664-.672h5.436a.589.589,0,0,1,.667.591q.457,3.666.913,7.332c.218,1.754.435,3.509.656,5.293Zm5.781,2.588-.183-1.478h1.461Zm10.077.063c0,.481-.2.681-.674.681H814.82l1.245-1.442c.263-.3.524-.611.791-.913a.693.693,0,0,0,.176-.587q-.4-3.165-.788-6.333-.237-1.914-.476-3.828c0-.03,0-.06-.009-.113h7.648c.479,0,.678.2.678.677Z" transform="translate(-806.44 -285.11)" fill="#006572" stroke="#006976" stroke-width="2"/>
      <path id="Path_493" data-name="Path 493" d="M1043.478,405.876h-7.648c0,.053,0,.083.009.113q.237,1.914.476,3.828.393,3.166.788,6.333a.692.692,0,0,1-.176.587c-.267.3-.527.608-.791.913l-1.245,1.442h8.592c.476,0,.674-.2.674-.681V406.553C1044.156,406.075,1043.957,405.876,1043.478,405.876Zm-1,4.94c-.082,0-.147,0-.179.1a6.838,6.838,0,0,1-1.222,2.251.705.705,0,0,0-.038.065l1.016.831c.066.054.136.1.2.159a.548.548,0,0,1,.1.768.537.537,0,0,1-.781.089c-.361-.28-.711-.576-1.065-.865-.075-.061-.148-.125-.229-.194-.355.29-.7.576-1.051.86-.09.073-.179.148-.274.213a.547.547,0,0,1-.671-.863c.373-.314.754-.619,1.132-.928.028-.023.054-.049.1-.088a7.006,7.006,0,0,1-1.135-1.925,1.248,1.248,0,0,1-.05-.137c-.052-.206-.113-.358-.389-.374a.5.5,0,0,1-.406-.566.544.544,0,0,1,.542-.5c.476-.007.952,0,1.427,0h.224c0-.172,0-.335,0-.5a.551.551,0,1,1,1.1.006c0,.157,0,.314,0,.491h1.273c.122,0,.244,0,.366,0a.548.548,0,1,1,.017,1.095Z" transform="translate(-1026.51 -401.446)" fill="#fff"/>
      <path id="Path_494" data-name="Path 494" d="M844.061,322.975q-.456-3.666-.913-7.332a.589.589,0,0,0-.667-.591h-5.436c-.463,0-.664.2-.664.672v11.861c0,.489.2.683.69.683h7.646C844.5,326.484,844.279,324.729,844.061,322.975Zm-2.051,1.44a.554.554,0,0,1-.645-.455c-.1-.494-.2-.991-.3-1.487-.016-.077-.033-.153-.051-.236H839.5c-.115.574-.226,1.147-.344,1.717a.554.554,0,0,1-.55.469.539.539,0,0,1-.53-.444.935.935,0,0,1,.021-.325q.526-2.651,1.06-5.3a.57.57,0,0,1,.622-.518c.323,0,.647,0,.969,0a.565.565,0,0,1,.606.494q.547,2.712,1.087,5.427A.552.552,0,0,1,842.009,324.415Z" transform="translate(-835.282 -313.954)" fill="#fff"/>
      <path id="Path_495" data-name="Path 495" d="M1009.263,705.621l-1.278,1.477-.183-1.477Z" transform="translate(-1000.416 -690.196)" fill="#fff"/>
      <path id="Path_496" data-name="Path 496" d="M1111.812,481.868c-.122,0-.244,0-.366,0h-1.272c0-.176,0-.334,0-.491a.551.551,0,1,0-1.1-.006c0,.162,0,.325,0,.5h-.224c-.476,0-.951,0-1.427,0a.543.543,0,0,0-.542.5.5.5,0,0,0,.406.566c.276.016.337.168.389.374a1.233,1.233,0,0,0,.05.137,7.018,7.018,0,0,0,1.134,1.925c-.042.039-.068.065-.1.088-.377.309-.758.614-1.132.928a.547.547,0,0,0,.67.863c.095-.066.184-.14.274-.214.349-.284.7-.569,1.051-.86.081.069.155.132.229.194.354.289.7.584,1.065.865a.537.537,0,0,0,.781-.089.548.548,0,0,0-.1-.768c-.064-.056-.134-.105-.2-.159l-1.016-.831a.671.671,0,0,1,.039-.065,6.836,6.836,0,0,0,1.222-2.251c.032-.1.1-.1.179-.1a.547.547,0,1,0-.017-1.095Zm-2.187,2.69a5.578,5.578,0,0,1-.893-1.58h1.781A5.611,5.611,0,0,1,1109.625,484.558Z" transform="translate(-1095.859 -473.593)" fill="#006774"/>
      <path id="Path_497" data-name="Path 497" d="M886.875,396.777q-.54-2.714-1.086-5.427a.565.565,0,0,0-.606-.494c-.323,0-.646,0-.97,0a.57.57,0,0,0-.622.518q-.533,2.65-1.06,5.3a.936.936,0,0,0-.021.325.539.539,0,0,0,.53.444.554.554,0,0,0,.55-.469c.118-.571.229-1.143.344-1.717h1.514c.018.083.035.16.051.236.1.5.194.992.3,1.487a.55.55,0,1,0,1.08-.2Zm-2.719-2.633.434-2.177h.2l.435,2.177Z" transform="translate(-879.712 -386.975)" fill="#006774"/>
      <path id="Path_498" data-name="Path 498" d="M1159.19,540.969a1.041,1.041,0,1,1-1.781,0Z" transform="translate(-1144.535 -531.584)" fill="#fff"/>
      <path id="Path_499" data-name="Path 499" d="M928.659,423.389h-1.071l.434-2.177h.2Z" transform="translate(-923.144 -416.22)" fill="#fff"/>
    </g>
  </g>
</svg>
