<svg xmlns="http://www.w3.org/2000/svg" width="120.125" height="134.92" viewBox="0 0 120.125 134.92">
  <g id="Group_121" data-name="Group 121" transform="translate(-157.839 -275.678)">
    <rect id="Rectangle_26" data-name="Rectangle 26" width="17.698" height="17.698" rx="5.939" transform="translate(265.449 285.569) rotate(45)" fill="#fba601"/>
    <path id="Path_52" data-name="Path 52" d="M137.611,731.948h5.073c1.28.189,2.565.353,3.841.571a37.8,37.8,0,0,1,30.614,43.394,61.629,61.629,0,0,1-6.43,18.924c-7.152,13.792-16.986,25.5-28.252,36.07a3.092,3.092,0,0,1-4.684-.066c-10.6-9.928-19.892-20.915-26.955-33.674a64.465,64.465,0,0,1-7.446-20c-.27-1.528-.462-3.07-.689-4.605v-5.467a5.491,5.491,0,0,0,.165-.753,34.408,34.408,0,0,1,2.608-10.846c4.97-11.61,13.5-19.181,25.754-22.41C133.3,732.535,135.475,732.318,137.611,731.948Zm3.151,58.314c11.65-.532,20.724-10.189,20.193-21.49-.546-11.611-10.149-20.648-21.423-20.16-11.623.5-20.7,10.159-20.194,21.489C119.853,781.677,129.521,790.775,140.762,790.262Z" transform="translate(75.316 -421.35)" fill="#fdb07f"/>
    <path id="Path_53" data-name="Path 53" d="M59.51,1.925,1.925,59.51a6.56,6.56,0,0,0,.44,9.687C23.928,87.005,46.46,83.429,64.944,64.944S87,23.928,69.2,2.365A6.56,6.56,0,0,0,59.51,1.925Z" transform="translate(215 390) rotate(-135)" fill="#cddcde" opacity="0.66"/>
  </g>
</svg>
