<svg width="16" height="19" viewBox="0 0 16 19" fill="none" xmlns="http://www.w3.org/2000/svg">
<path fill-rule="evenodd" clip-rule="evenodd" d="M3.69774 3.485C2.62014 4.48539 1.93333 5.97313 1.93333 7.93246C1.93333 9.28287 2.71342 10.9456 3.7938 12.576C4.86089 14.1864 6.16556 15.6847 7.10426 16.6881C7.59687 17.2147 8.40313 17.2147 8.89574 16.6881C9.83444 15.6847 11.1391 14.1864 12.2062 12.576C13.2866 10.9456 14.0667 9.28287 14.0667 7.93246C14.0667 5.97313 13.3799 4.48539 12.3023 3.485C11.2195 2.47982 9.70575 1.93333 8 1.93333C6.29425 1.93333 4.78049 2.47982 3.69774 3.485ZM3.06273 2.80098C4.34458 1.61098 6.09749 1 8 1C9.90251 1 11.6554 1.61098 12.9373 2.80098C14.2243 3.99577 15 5.74093 15 7.93246C15 9.57764 14.0787 11.4398 12.9842 13.0915C11.8764 14.7633 10.5327 16.3044 9.57732 17.3257C8.71585 18.2466 7.28415 18.2466 6.42268 17.3257C5.46729 16.3044 4.12356 14.7633 3.01577 13.0915C1.92127 11.4398 1 9.57764 1 7.93246C1 5.74093 1.77573 3.99577 3.06273 2.80098Z" fill="#103036" stroke="#103036" stroke-width="0.546326" stroke-linejoin="round"/>
<path fill-rule="evenodd" clip-rule="evenodd" d="M7.99714 4.73216C6.70847 4.73216 5.6638 5.77683 5.6638 7.06549C5.6638 8.35416 6.70847 9.39883 7.99714 9.39883C9.2858 9.39883 10.3305 8.35416 10.3305 7.06549C10.3305 5.77683 9.2858 4.73216 7.99714 4.73216ZM4.73047 7.06549C4.73047 5.26136 6.19301 3.79883 7.99714 3.79883C9.80127 3.79883 11.2638 5.26136 11.2638 7.06549C11.2638 8.86962 9.80127 10.3322 7.99714 10.3322C6.19301 10.3322 4.73047 8.86962 4.73047 7.06549Z" fill="#103036" stroke="#103036" stroke-width="0.546326"/>
</svg>
