<svg xmlns="http://www.w3.org/2000/svg" width="178.445" height="50.033" viewBox="0 0 178.445 50.033">
  <g id="Group_18" data-name="Group 18" transform="translate(-433.939 -53.381)">
    <g id="Group_16" data-name="Group 16" transform="translate(433.939 53.381)">
      <path id="Path_18" data-name="Path 18" d="M508.935,56.856V99.939a3.471,3.471,0,0,0,3.789,3.459c14.728-1.4,21.819-11.171,21.819-25s-7.091-23.6-21.819-25A3.471,3.471,0,0,0,508.935,56.856Z" transform="translate(-475.842 -53.381)" fill="#1f606c"/>
      <path id="Path_19" data-name="Path 19" d="M461.862,74.95v28.435a2.291,2.291,0,0,0,2.5,2.283c9.72-.927,14.4-7.373,14.4-16.5s-4.68-15.573-14.4-16.5A2.29,2.29,0,0,0,461.862,74.95Z" transform="translate(-449.541 -64.152)" fill="#1f606c"/>
      <path id="Path_20" data-name="Path 20" d="M433.939,92.512v14.217a1.145,1.145,0,0,0,1.25,1.142c4.86-.463,7.2-3.686,7.2-8.25s-2.34-7.786-7.2-8.25A1.146,1.146,0,0,0,433.939,92.512Z" transform="translate(-433.939 -74.604)" fill="#1f606c"/>
    </g>
    <g id="Group_17" data-name="Group 17" transform="translate(500.551 61.887)">
      <path id="Path_21" data-name="Path 21" d="M585.608,85.132h2.331a.71.71,0,0,1,.706.637l.288,2.8a6.308,6.308,0,0,1,6.054-3.894,6.962,6.962,0,0,1,1.243.137.707.707,0,0,1,.562.695V88.6a.709.709,0,0,1-.832.7,10.531,10.531,0,0,0-1.93-.164c-3.045,0-4.815,2.372-4.815,5.912v9.132a.71.71,0,0,1-.71.71h-2.9a.71.71,0,0,1-.71-.71V85.842A.71.71,0,0,1,585.608,85.132Z" transform="translate(-584.898 -79.37)" fill="#1f606c"/>
      <path id="Path_22" data-name="Path 22" d="M615.545,95.054c0-5.983,3.611-10.3,9.841-10.3,6.16,0,9.382,4.177,9.382,10.3a9.609,9.609,0,0,1-.086,1.293.71.71,0,0,1-.7.618H620.218c.319,2.974,2.938,4.5,5.983,4.5a11.271,11.271,0,0,0,5.514-1.26.711.711,0,0,1,.96.33l1.036,2.184a.711.711,0,0,1-.294.925,14.8,14.8,0,0,1-7.535,1.716C619.226,105.356,615.545,101.179,615.545,95.054ZM629.573,93.5a.712.712,0,0,0,.706-.8c-.337-2.583-1.9-4.048-4.892-4.048-2.83,0-4.7,1.519-5.014,4.053a.712.712,0,0,0,.707.8Z" transform="translate(-602.022 -79.415)" fill="#1f606c"/>
      <path id="Path_23" data-name="Path 23" d="M667.773,93.5V73.389a.71.71,0,0,1,.7-.71l2.9-.022a.71.71,0,0,1,.716.71v19c0,1.593.566,2.054,1.805,2.054a2.213,2.213,0,0,0,.969-.227.71.71,0,0,1,1.013.641v2.231a.71.71,0,0,1-.251.544,5.094,5.094,0,0,1-3.148.989C670.605,98.6,667.773,97.571,667.773,93.5Z" transform="translate(-631.204 -72.657)" fill="#1f606c"/>
      <path id="Path_24" data-name="Path 24" d="M705.459,85.715h2.9a.71.71,0,0,1,.71.71V103.31c0,5.77-2.513,9.665-10.621,9.665a13.859,13.859,0,0,1-3.945-.591.708.708,0,0,1-.48-.672v-2.544a.709.709,0,0,1,.9-.683,13.3,13.3,0,0,0,3.528.419c4.85,0,6.3-2.336,6.3-5.593v-2.018c-1.027,2.053-3.257,3.186-6.337,3.186-4.921,0-7.293-3.115-7.293-8.638V86.425a.71.71,0,0,1,.71-.71h2.9a.71.71,0,0,1,.71.71v8.742c0,3.576,1.451,5.133,4.5,5.133,3.186,0,4.815-2.23,4.815-5.487V86.425A.71.71,0,0,1,705.459,85.715Z" transform="translate(-644.248 -79.953)" fill="#1f606c"/>
      <path id="Path_25" data-name="Path 25" d="M740.459,95.054c0-6.125,3.4-10.3,10.479-10.3s10.479,4.177,10.479,10.3-3.4,10.3-10.479,10.3S740.459,101.179,740.459,95.054Zm16.426,0c0-3.717-1.628-6.125-5.948-6.125s-5.947,2.408-5.947,6.125,1.628,6.125,5.947,6.125S756.885,98.771,756.885,95.054Z" transform="translate(-671.816 -79.415)" fill="#1f606c"/>
      <path id="Path_26" data-name="Path 26" d="M797.328,85.132h2.4a.71.71,0,0,1,.707.637l.288,2.8a6.924,6.924,0,0,1,6.762-3.894c4.532,0,7.541,2.938,7.541,8.85v10.654a.71.71,0,0,1-.71.71h-2.9a.71.71,0,0,1-.71-.71V93.522c0-3.115-1.628-4.638-4.5-4.638-3.47,0-5.275,2.018-5.275,6.018v9.274a.71.71,0,0,1-.71.71h-2.9a.71.71,0,0,1-.71-.71V85.842A.71.71,0,0,1,797.328,85.132Z" transform="translate(-703.194 -79.37)" fill="#1f606c"/>
    </g>
  </g>
</svg>
