<svg width="27" height="27" viewBox="0 0 27 27" fill="none" xmlns="http://www.w3.org/2000/svg">
<circle cx="12.6393" cy="12.6393" r="11.6393" stroke="#1F606C" stroke-width="2"/>
<path d="M9.24219 8.50294C9.24219 6.5585 10.3389 5.23242 12.6235 5.23242C14.9081 5.23242 16.0053 6.55865 16.0053 8.50294C16.0053 10.4472 14.9086 11.7736 12.624 11.7736C10.3394 11.7736 9.24219 10.4474 9.24219 8.50294Z" fill="#FDA774"/>
<path d="M6.78255 19.1451L18.4678 19.1451C18.5987 19.1452 18.7283 19.1185 18.8481 19.0665C18.968 19.0146 19.0755 18.9386 19.1638 18.8435C19.2521 18.7483 19.3192 18.6361 19.3609 18.5139C19.4026 18.3918 19.418 18.2624 19.406 18.1341C19.025 14.2038 16.3761 12.3115 12.6252 12.3116C8.87426 12.3117 6.22583 14.2043 5.84403 18.1338C5.83199 18.2622 5.84731 18.3916 5.88902 18.5138C5.93072 18.636 5.9979 18.7483 6.08623 18.8435C6.17457 18.9386 6.28213 19.0146 6.40204 19.0666C6.52194 19.1185 6.65154 19.1453 6.78255 19.1451Z" fill="#FDA774"/>
<circle cx="20" cy="20" r="7" fill="#1F606C"/>
<path d="M23.8084 17.3333C23.8084 17.6998 23.6423 18.057 23.3103 18.4047L23.2586 18.4564L20.3545 21.5155C19.7373 22.164 19.211 22.6653 18.7756 23.0193C18.3433 23.3733 18.0378 23.5503 17.8593 23.5503C17.6713 23.5503 17.4379 23.4625 17.1591 23.2871C16.8803 23.1085 16.7001 22.9253 16.6187 22.7373C16.5498 22.5807 16.484 22.2486 16.4213 21.7411C16.3618 21.2336 16.332 20.6838 16.332 20.0917C16.332 19.769 16.4667 19.4714 16.7362 19.1989C17.0056 18.9232 17.3032 18.7853 17.629 18.7853C17.9391 18.7853 18.124 19.0688 18.1835 19.6359C18.1898 19.7017 18.1945 19.7502 18.1976 19.7815C18.2477 20.217 18.3057 20.5209 18.3715 20.6932C18.4372 20.8655 18.5265 20.9516 18.6393 20.9516C18.6863 20.9516 18.774 20.9015 18.9025 20.8013C19.0309 20.6979 19.1844 20.5585 19.363 20.383L22.3469 17.4273C22.5976 17.1767 22.8216 16.9871 23.0189 16.8587C23.2163 16.7302 23.3839 16.666 23.5217 16.666C23.6251 16.666 23.6987 16.7052 23.7426 16.7835C23.7864 16.8618 23.8084 16.9934 23.8084 17.1782V17.3333Z" fill="white"/>
</svg>
