<svg width="30" height="30" viewBox="0 0 30 30" fill="none" xmlns="http://www.w3.org/2000/svg">
<path d="M22.5 15C22.5 16.3783 23.6217 17.5 25 17.5C26.3783 17.5 27.5 16.3783 27.5 15C27.5 13.6217 26.3783 12.5 25 12.5C23.6217 12.5 22.5 13.6217 22.5 15Z" fill="#103036"/>
<path d="M12.5 15C12.5 16.3783 13.6217 17.5 15 17.5C16.3783 17.5 17.5 16.3783 17.5 15C17.5 13.6217 16.3783 12.5 15 12.5C13.6217 12.5 12.5 13.6217 12.5 15Z" fill="#103036"/>
<path d="M2.5 15C2.5 16.3783 3.62167 17.5 5 17.5C6.37833 17.5 7.5 16.3783 7.5 15C7.5 13.6217 6.37833 12.5 5 12.5C3.62167 12.5 2.5 13.6217 2.5 15Z" fill="#103036"/>
</svg>
