<svg xmlns="http://www.w3.org/2000/svg" xmlns:xlink="http://www.w3.org/1999/xlink" width="362.996" height="155.371" viewBox="0 0 362.996 155.371">
  <defs>
    <filter id="Path_47" x="0" y="0" width="362.996" height="155.371" filterUnits="userSpaceOnUse">
      <feOffset dy="3" input="SourceAlpha"/>
      <feGaussianBlur stdDeviation="12.5" result="blur"/>
      <feFlood flood-opacity="0.161"/>
      <feComposite operator="in" in2="blur"/>
      <feComposite in="SourceGraphic"/>
    </filter>
  </defs>
  <g id="Group_477" data-name="Group 477" transform="translate(-40.504 -632.129)">
    <g id="Group_461" data-name="Group 461" transform="translate(-394.996 -1437)">
      <g id="Group_460" data-name="Group 460" transform="translate(473 1235.629)">
        <g transform="matrix(1, 0, 0, 1, -37.5, 833.5)" filter="url(#Path_47)">
          <path id="Path_47-2" data-name="Path 47" d="M16.744,0H271.252A16.629,16.629,0,0,1,288,16.511v63.86H0V16.511A16.629,16.629,0,0,1,16.744,0Z" transform="translate(37.5 34.5)" fill="#fff"/>
        </g>
        <rect id="Rectangle_24" data-name="Rectangle 24" width="40" height="3" rx="1.5" transform="translate(124 878.371)" fill="#fff"/>
      </g>
    </g>
    <g id="Group_476" data-name="Group 476" transform="translate(-276.949 321.752)">
      <path id="Path_464" data-name="Path 464" d="M683.423,390.178q-7.068,0-14.137,0c-1.67,0-1.906-.23-1.906-1.849q0-7,0-14.005c0-1.522.246-1.776,1.728-1.776q14.379,0,28.758,0c1.528,0,1.719.2,1.731,1.755.006.845.037,1.692,0,2.535-.029.635.208.8.835.822,2.509.071,2.509.1,2.509,2.645,0,1.248-.037,2.5.014,3.742.032.774-.2,1.048-1.016,1.049-2.335,0-2.335.042-2.333,2.418,0,.242,0,.483,0,.724-.01,1.776-.165,1.939-1.922,1.941Q690.552,390.183,683.423,390.178Z" transform="translate(-108.054 -9.702)" fill="#577f88"/>
      <path id="Path_465" data-name="Path 465" d="M587.888,371.192a17.551,17.551,0,0,1,10.671,3.556c1.2.912,1.238,1.405.269,2.57q-4.747,5.7-9.5,11.4c-1.291,1.543-1.8,1.522-3.1-.036q-4.707-5.657-9.422-11.306c-1.034-1.239-1-1.681.262-2.644A17.455,17.455,0,0,1,587.888,371.192Z" transform="translate(-50.839 -8.854)" fill="#577f88"/>
      <path id="Path_466" data-name="Path 466" d="M504.77,390.19q-4.162,0-8.324,0c-.576,0-1.169.026-1.422-.634s.178-1.047.613-1.432q8.485-7.509,16.964-15.025c.4-.358.8-.706,1.386-.435s.6.786.6,1.329c0,4.9-.014,9.8.012,14.705.006,1.073-.407,1.521-1.5,1.5C510.319,390.164,507.544,390.191,504.77,390.19Z" transform="translate(0 -9.717)" fill="#577f88"/>
      <g id="Group_475" data-name="Group 475" transform="translate(601.121 357.063)">
        <circle id="Ellipse_12" data-name="Ellipse 12" cx="14" cy="14" r="14" fill="#00be52"/>
        <g id="Group_474" data-name="Group 474" transform="translate(7.869 3.934)">
          <rect id="Rectangle_615" data-name="Rectangle 615" width="7.37" height="12.589" rx="3.685" transform="translate(2.446)" fill="#f8f7f5"/>
          <path id="Path_467" data-name="Path 467" d="M812.678,392.979a6.131,6.131,0,1,1-12.262,0" transform="translate(-800.416 -383.504)" fill="none" stroke="#f8f7f5" stroke-width="2"/>
          <rect id="Rectangle_616" data-name="Rectangle 616" width="3.912" height="2.12" transform="translate(4.175 18.011)" fill="#f8f7f5"/>
        </g>
      </g>
    </g>
  </g>
</svg>
