<svg width="32" height="32" viewBox="0 0 32 32" fill="none" xmlns="http://www.w3.org/2000/svg">
<circle cx="16" cy="16" r="16" fill="#1F606C"/>
<path fill-rule="evenodd" clip-rule="evenodd" d="M22.1615 14.7831C22.1615 14.4099 21.859 14.1074 21.4859 14.1074C21.1128 14.1074 20.8103 14.4099 20.8103 14.7831L20.8103 14.7911L20.8051 14.7912V17.0426H20.7889C20.5888 19.4466 18.6213 21.3202 16.2108 21.4023H15.9378C13.528 21.3188 11.5616 19.4458 11.3607 17.0426H11.348V16.7886C11.3479 16.7769 11.3471 16.7653 11.3463 16.7537L11.3463 16.7537C11.3454 16.741 11.3445 16.7283 11.3445 16.7156V16.7102H11.348V14.8498C11.3502 14.8279 11.3513 14.8056 11.3513 14.7831C11.3513 14.41 11.0488 14.1074 10.6756 14.1074C10.3025 14.1074 10 14.41 10 14.7831C10 14.8115 10.0018 14.8394 10.0051 14.8668V16.4156C10.0049 16.4279 10.0038 16.4402 10.0027 16.4528C10.0014 16.4678 10 16.4832 10 16.4994C9.99624 19.609 12.3247 22.2272 15.4132 22.5862V24.6403H12.862V24.6491C12.8539 24.6488 12.8458 24.6486 12.8377 24.6486C12.4645 24.6486 12.162 24.9512 12.162 25.3243C12.162 25.6975 12.4645 26.0001 12.8377 26.0001C12.8458 26.0001 12.8539 25.9999 12.862 25.9996V25.9999H19.2968V25.9995C19.3058 25.9999 19.3148 26.0001 19.3238 26.0001C19.697 26.0001 19.9995 25.6975 19.9995 25.3243C19.9995 24.9512 19.697 24.6486 19.3238 24.6486C19.3148 24.6486 19.3058 24.6488 19.2968 24.6492V24.6403H16.751V22.5862C19.833 22.2186 22.1528 19.6035 22.1507 16.4994H22.151H22.1591V14.8409C22.1607 14.8219 22.1615 14.8026 22.1615 14.7831Z" fill="white"/>
<path fill-rule="evenodd" clip-rule="evenodd" d="M19.7252 15.6309V15.6308H19.7257V12.2144C19.7257 12.1085 19.7274 11.9151 19.7294 11.6799C19.7351 11.015 19.7437 10.0158 19.7257 9.7143C19.7015 9.34552 19.6381 8.98038 19.5365 8.62505C19.1039 7.07333 17.6904 6 16.0797 6C14.4689 6 13.0555 7.07333 12.6228 8.62505C12.508 8.97723 12.4443 9.34404 12.4336 9.7143C12.4352 9.93793 12.4345 10.9743 12.434 11.664C12.4338 11.9079 12.4336 12.1085 12.4336 12.2144V15.6308C12.4336 15.6624 12.4336 15.6941 12.4336 15.726C12.4335 16.1054 12.4333 16.5003 12.455 16.8768C12.471 17.2449 12.5271 17.6102 12.6223 17.9661C12.8322 18.7142 13.2837 19.3719 13.9065 19.8365C15.1807 20.8419 16.9781 20.8419 18.2523 19.8365C18.8735 19.3705 19.3245 18.7133 19.536 17.9661C19.6308 17.6101 19.6869 17.2449 19.7035 16.8768C19.7252 16.4687 19.7252 16.039 19.7252 15.6309Z" fill="white"/>
</svg>
