<svg width="32" height="32" viewBox="0 0 32 32" fill="none" xmlns="http://www.w3.org/2000/svg">
<circle cx="16" cy="16" r="16" fill="#1F606C"/>
<path d="M12.7584 10.5785L16.4552 9.07448C16.8654 8.90734 17.2817 8.85643 17.6664 8.9626C18.0361 9.06459 18.3582 9.29961 18.5972 9.69874L20.3293 12.5913L23.3043 12.7356C23.8525 12.7627 24.1915 13.0883 24.3297 13.4905C24.381 13.6399 24.4027 13.7968 24.3951 13.9492C24.3876 14.1016 24.3508 14.2554 24.2852 14.3986C24.108 14.7856 23.7385 15.0767 23.1903 15.0497L19.6153 14.8763L19.6154 14.8748C19.508 14.8669 19.2651 14.7845 19.0718 14.6721C18.9374 14.594 18.8038 14.4953 18.7119 14.385C18.6927 14.3632 18.6751 14.3394 18.6597 14.3136L18.6609 14.3129L18.6209 14.2462C18.6139 14.2364 18.6073 14.2261 18.601 14.2156L18.601 14.2156L18.155 13.4707L17.6907 16.3713L17.6967 16.3781C17.7117 16.3936 17.7258 16.4103 17.7389 16.4282L17.7372 16.4294L19.9516 19.4635C20.0219 19.5153 20.0796 19.5879 20.1262 19.6769C20.1568 19.7354 20.1836 19.8073 20.2056 19.882C20.2386 19.9938 20.2642 20.1365 20.2754 20.244C20.2814 20.2756 20.2844 20.3083 20.2838 20.3417L20.2816 20.3417L20.2816 20.3418L20.2832 20.3418L20.1995 25.2991C20.194 25.6184 20.0595 25.9055 19.8465 26.1113C19.6413 26.3097 19.3633 26.4326 19.0577 26.4365C19.0351 26.4378 19.0123 26.4374 18.9893 26.4354C18.6835 26.4215 18.4092 26.2891 18.2105 26.0835C18.0122 25.8784 17.8892 25.6004 17.8853 25.2948C17.8843 25.2775 17.8843 25.26 17.8853 25.2424L17.7661 20.7038L15.9687 18.6465L14.9037 20.7886C14.8983 20.8007 14.8923 20.8128 14.8858 20.8247L14.8848 20.8242C14.7794 21.0153 14.6278 21.1649 14.4514 21.2669C14.2808 21.3655 14.0873 21.4194 13.8903 21.423C13.884 21.4234 13.8777 21.4238 13.8713 21.424L13.8713 21.4232L13.8654 21.4232L9.04811 21.5598C9.03608 21.561 9.02392 21.5617 9.01172 21.5619C8.70441 21.5777 8.41699 21.4702 8.19857 21.2817C7.98115 21.0941 7.83321 20.8262 7.80329 20.5201C7.80096 20.5025 7.79961 20.4847 7.7993 20.4667C7.78347 20.1593 7.89094 19.8718 8.07948 19.6533C8.26777 19.4351 8.53688 19.2869 8.84431 19.2577C8.85195 19.2568 8.85967 19.256 8.86743 19.2554L8.86744 19.2558L8.86904 19.2556L8.86916 19.2574L12.9046 18.9516L13.9427 16.7747C13.9365 16.7146 13.9338 16.6534 13.9347 16.5915C13.9365 16.4736 13.9514 16.3555 13.9805 16.2394L13.9806 16.2394C13.9819 16.2343 13.9832 16.2291 13.9847 16.2239L13.9863 16.2244L15.1725 12.0926L14.2019 12.4874L13.6052 15.4069C13.4946 15.9446 13.1224 16.2295 12.7056 16.3043C12.5535 16.3315 12.3953 16.3282 12.2428 16.2969C12.0914 16.2658 11.945 16.2063 11.8157 16.121C11.4616 15.8875 11.2315 15.4788 11.342 14.9416L12.0516 11.47L12.08 11.4759C12.112 11.3091 12.1901 11.1141 12.3073 10.9618C12.408 10.8309 12.5364 10.7014 12.6786 10.6188C12.7033 10.6029 12.7298 10.589 12.758 10.5775L12.7584 10.5785Z" fill="white"/>
<path d="M19.0418 5.42612C19.5107 5.54377 19.8875 5.84041 20.1177 6.22481C20.3479 6.60923 20.4315 7.08147 20.3138 7.55032C20.1962 8.01917 19.8995 8.39601 19.5151 8.6262C19.1307 8.85638 18.6584 8.93993 18.1896 8.82228C17.7207 8.70462 17.3439 8.408 17.1137 8.02358C16.8835 7.63917 16.8 7.16695 16.9176 6.69808C17.0353 6.22924 17.3319 5.8524 17.7163 5.62221C18.1007 5.39203 18.573 5.30846 19.0418 5.42612Z" fill="white"/>
</svg>
