<svg width="42" height="42" viewBox="0 0 42 42" fill="none" xmlns="http://www.w3.org/2000/svg">
    <circle cx="21" cy="21" r="21" fill="#1F606C"/>
    <path d="M21.0265 27.3068C23.8365 27.3068 26.1144 25.0289 26.1144 22.2188C26.1144 19.4088 23.8365 17.1309 21.0265 17.1309C18.2164 17.1309 15.9385 19.4088 15.9385 22.2188C15.9385 25.0289 18.2164 27.3068 21.0265 27.3068Z" stroke="#FFFFFF" stroke-width="2.21887" stroke-miterlimit="10"/>
    <path d="M26.1144 15.0956L24.0771 12.0449H17.9757L15.9384 15.0956H11.8638C11.3234 15.0956 10.8052 15.3102 10.4232 15.6923C10.0411 16.0744 9.82644 16.5926 9.82644 17.1329V28.3329C9.82503 28.6008 9.87676 28.8664 9.97865 29.1142C10.0805 29.362 10.2305 29.5872 10.42 29.7766C10.6095 29.9661 10.8346 30.1161 11.0824 30.218C11.3303 30.3199 11.5958 30.3716 11.8638 30.3702H30.189C30.457 30.3716 30.7225 30.3199 30.9704 30.218C31.2182 30.1161 31.4433 29.9661 31.6328 29.7766C31.8223 29.5872 31.9723 29.362 32.0742 29.1142C32.176 28.8664 32.2278 28.6008 32.2264 28.3329V17.1329C32.2264 16.5926 32.0117 16.0744 31.6296 15.6923C31.2476 15.3102 30.7294 15.0956 30.189 15.0956H26.1144Z" stroke="#FFFFFF" stroke-width="2.21887" stroke-miterlimit="10"/>
    <path d="M12.8772 13.0586V15.0959" stroke="#FFFFFF" stroke-width="2.21887" stroke-miterlimit="10"/>
    <path d="M28.1516 18.1562H30.1889" stroke="#FFFFFF" stroke-width="2.21887" stroke-miterlimit="10"/>
    </svg>
    