<svg xmlns="http://www.w3.org/2000/svg" width="18.977" height="21.036" viewBox="0 0 18.977 21.036">
  <g id="_3I7fwb.tif" data-name="3I7fwb.tif" transform="translate(-860.532 -316.733)">
    <g id="Group_524" data-name="Group 524" transform="translate(861.037 317.269)">
      <path id="Path_490" data-name="Path 490" d="M878.731,332.161q-.619-.9-1.255-1.787a1.712,1.712,0,0,1-.328-1.041c.007-1.606.018-3.211-.005-4.816a8.475,8.475,0,0,0-.182-1.7,7.1,7.1,0,0,0-9.763-4.939,6.91,6.91,0,0,0-4.306,6.548c-.044,1.649-.009,3.3-.006,4.95a1.452,1.452,0,0,1-.229.847c-.419.613-.834,1.23-1.275,1.827a1.418,1.418,0,0,0-.188,1.565,1.381,1.381,0,0,0,1.338.8h3.979a3.578,3.578,0,0,0,7.01,0h.257c1.27,0,2.541.008,3.812,0a1.339,1.339,0,0,0,1.251-.788A1.365,1.365,0,0,0,878.731,332.161Zm-8.592,3.673a2.119,2.119,0,0,1-2.116-1.418H872A2.074,2.074,0,0,1,870.139,335.834Zm-7.646-2.859c.05-.077.087-.138.127-.2q.572-.824,1.144-1.647a2.982,2.982,0,0,0,.547-1.757c0-1.657-.008-3.314,0-4.971a5.7,5.7,0,0,1,11.374-.6c.024.244.036.489.037.734,0,1.6.007,3.2,0,4.793a3.058,3.058,0,0,0,.575,1.837c.416.586.821,1.181,1.252,1.8Z" transform="translate(-861.037 -317.269)" fill="#006370" stroke="#006472" stroke-width="1"/>
    </g>
  </g>
</svg>
