<svg width="32" height="32" viewBox="0 0 32 32" fill="none" xmlns="http://www.w3.org/2000/svg">
<circle cx="16" cy="16" r="16" fill="#1F606C"/>
<path d="M8.37179 21.8548H17.5201C17.4474 23.031 16.6661 23.7803 15.5669 23.7803C14.4767 23.7803 13.6863 23.031 13.6228 21.8548H12.2055C12.2782 23.5276 13.65 25 15.5669 25C17.4928 25 18.8646 23.5276 18.9373 21.8548H22.7711C23.625 21.8548 24.1429 21.4279 24.1429 20.8006C24.1429 19.9293 23.2162 19.1452 22.4349 18.3698C21.8353 17.7686 21.6718 16.5315 21.5991 15.5295C21.5901 14.9458 21.5446 14.4143 21.4901 13.9003C21.0631 14.0397 20.4999 14.1181 20.0547 14.092C20.1092 14.5537 20.1456 15.0591 20.1547 15.6341C20.2364 17.3417 20.5453 18.4569 21.1903 19.1539C21.6718 19.668 22.2078 20.1733 22.3713 20.4347V20.5392H8.76243V20.4347C8.92596 20.1733 9.47104 19.668 9.94345 19.1539C10.5975 18.4569 10.9064 17.3417 10.9882 15.6341C11.0609 11.8354 12.2419 10.6157 13.7954 10.2149C14.0225 10.1626 14.1497 10.0494 14.1588 9.83156C14.186 8.91675 14.7311 8.28074 15.5669 8.28074C15.7304 8.28074 15.8849 8.30687 16.012 8.35044C16.1846 7.94966 16.4118 7.57502 16.7025 7.24395C16.3663 7.09584 15.9848 7 15.5669 7C14.2314 7 13.2503 7.9061 12.9505 9.03872C10.534 9.87512 9.60731 12.0968 9.54372 15.5295C9.47104 16.5315 9.30752 17.7686 8.70793 18.3698C7.91756 19.1452 7 19.9293 7 20.8006C7 21.4279 7.50874 21.8548 8.37179 21.8548Z" fill="white"/>
<ellipse cx="19.4297" cy="10" rx="3" ry="3" fill="white"/>
</svg>
