<svg width="126" height="133" viewBox="0 0 126 133" fill="none" xmlns="http://www.w3.org/2000/svg">
<path d="M2 83.5603C2 55.9289 17.3301 37.0859 49.275 37.0859C81.2198 37.0859 96.5499 55.9289 96.5499 83.5603C96.5499 111.192 81.2198 130.035 49.275 130.035C17.3301 130.035 2 111.192 2 83.5603Z" stroke="#B7C8CC" stroke-width="4"/>
<path d="M28.1211 83.5621C28.0496 79.3653 29.2288 75.2423 31.5084 71.7179C33.7881 68.1935 37.065 65.4273 40.922 63.7715C44.779 62.1157 49.0415 61.6452 53.1668 62.42C57.2921 63.1948 61.0933 65.1797 64.0867 68.1221C67.0801 71.0646 69.13 74.8313 69.9756 78.9426C70.8211 83.054 70.4239 87.324 68.8346 91.2088C67.2452 95.0937 64.5358 98.4176 61.0511 100.757C57.5663 103.097 53.4639 104.347 49.2665 104.348C46.443 104.669 43.5835 104.355 40.8968 103.429C38.2101 102.503 35.7641 100.989 33.7376 98.9971C31.711 97.005 30.155 94.5853 29.1833 91.9149C28.2115 89.2445 27.8487 86.3907 28.1211 83.5621Z" stroke="#B7C8CC" stroke-width="4"/>
<path d="M92.8375 29.9962C91.8089 32.6774 91.0133 35.4412 90.4589 38.257C89.9253 35.4888 89.1543 32.7711 88.1528 30.1346L88.1528 30.1346L88.1514 30.131C87.4864 28.4198 86.4698 26.8671 85.1683 25.5725C83.8667 24.2777 82.3081 23.27 80.5935 22.614L80.5935 22.614L80.5885 22.6122C77.8697 21.6049 75.0745 20.8245 72.229 20.2786C72.5837 20.1957 72.9391 20.1134 73.2949 20.031C75.1278 19.6065 76.9698 19.1798 78.7834 18.6673C80.9582 18.0847 82.9737 17.0187 84.6791 15.5487L84.6851 15.5435L84.6909 15.5381C86.1901 14.1605 87.3586 12.4613 88.1075 10.5678L88.1075 10.5678L88.1094 10.563C89.1323 7.89601 89.9182 5.14552 90.4603 2.34314C90.6465 3.23066 90.8378 4.11973 91.0469 5.016C91.5485 7.35866 92.3248 9.63386 93.3593 11.7947L93.3591 11.7948L93.3647 11.8057C94.7914 14.6082 97.1969 16.7902 100.125 17.938L100.128 17.9393C102.864 18.9885 105.687 19.7912 108.563 20.3382C107.519 20.5586 106.468 20.7806 105.438 21.0254C103.245 21.502 101.114 22.23 99.0884 23.1944L99.0884 23.1943L99.0812 23.1979C96.2313 24.6113 94.006 27.0322 92.8391 29.9919L92.8375 29.9962ZM112.951 31.2256C112.962 31.1813 112.972 31.1371 112.982 31.0929C113.036 31.3349 113.095 31.5752 113.161 31.8118C113.523 33.223 113.964 34.6134 114.477 35.9764L114.48 35.9857L114.484 35.9949C115.004 37.2234 115.806 38.3117 116.826 39.1713C117.841 40.0277 119.043 40.6331 120.337 40.9383C121.476 41.2735 122.647 41.5398 123.799 41.8018C123.551 41.8569 123.305 41.9166 123.062 41.9835C121.659 42.3413 120.275 42.7746 118.919 43.2814L118.911 43.2843L118.904 43.2874C117.68 43.7915 116.594 44.5764 115.73 45.5787C114.87 46.5779 114.253 47.7655 113.935 49.0461C113.604 50.1646 113.317 51.3045 113.034 52.4485C112.996 52.2886 112.955 52.1296 112.912 51.9718C112.562 50.5784 112.14 49.2043 111.648 47.8546L111.645 47.8468L111.642 47.8392C111.137 46.5828 110.337 45.4657 109.313 44.5805C108.292 43.6979 107.076 43.0711 105.765 42.7516C104.626 42.4124 103.461 42.1244 102.287 41.8392C102.465 41.7945 102.641 41.7462 102.814 41.693C104.23 41.3362 105.629 40.9078 107.002 40.4094L107.009 40.4067L107.016 40.4038C108.273 39.9019 109.39 39.1068 110.276 38.0855C111.16 37.0674 111.79 35.8535 112.111 34.5438C112.433 33.4557 112.695 32.3278 112.951 31.2256Z" fill="#B7C8CC" stroke="#B7C8CC"/>
<path d="M92.8326 30.2243C91.8042 32.9257 91.0088 35.7091 90.4545 38.544C89.9212 35.7567 89.1503 33.0197 88.1489 30.3631L88.1476 30.3599C87.4862 28.6409 86.4718 27.0792 85.1705 25.7759C83.869 24.4725 82.3085 23.4564 80.5907 22.7924L80.5907 22.7924L80.5855 22.7905C77.8649 21.7735 75.0665 20.9857 72.2168 20.4349C72.5391 20.3591 72.8619 20.2837 73.1851 20.2082C75.0506 19.7725 76.9275 19.3341 78.7792 18.8119C80.9569 18.2237 82.9732 17.1498 84.6761 15.6703L84.6822 15.6651L84.688 15.6596C86.1892 14.2687 87.3573 12.5564 88.1038 10.6507L88.1055 10.6462C89.1293 7.95684 89.9154 5.1843 90.4572 2.36016C90.6444 3.25574 90.8361 4.15345 91.0422 5.05013C91.5434 7.40867 92.3195 9.70004 93.3543 11.8778L93.3541 11.8779L93.3593 11.8881C94.7789 14.7074 97.1843 16.9077 100.119 18.0712L100.123 18.0728C102.856 19.129 105.677 19.9379 108.552 20.4903C107.511 20.7138 106.467 20.9413 105.43 21.1869C103.236 21.6672 101.107 22.4006 99.0826 23.3726L99.0826 23.3725L99.0751 23.3762C96.2195 24.8062 93.9948 27.2451 92.8341 30.2205L92.8326 30.2243Z" fill="#B7C8CC" stroke="#B7C8CC"/>
<path d="M112.135 34.4363C112.473 33.296 112.745 32.1209 113.01 30.9612C113.064 31.1978 113.122 31.4336 113.187 31.6662C113.543 33.0875 113.979 34.4876 114.496 35.8592L114.499 35.8674L114.502 35.8756C115.018 37.1115 115.82 38.2074 116.84 39.074C117.857 39.9374 119.061 40.5489 120.359 40.8588C121.495 41.1988 122.669 41.4669 123.824 41.7299C123.575 41.786 123.327 41.8472 123.084 41.9159C121.68 42.2733 120.297 42.7084 118.942 43.2192L118.934 43.2222L118.926 43.2255C117.697 43.7371 116.608 44.5317 115.745 45.544C114.885 46.5526 114.271 47.7498 113.959 49.039C113.62 50.1705 113.334 51.3225 113.052 52.4777C113.016 52.3139 112.978 52.1514 112.937 51.9913C112.586 50.5854 112.162 49.1988 111.667 47.8367L111.665 47.8298L111.662 47.8229C111.161 46.5612 110.367 45.4368 109.344 44.544C108.325 43.6551 107.109 43.0214 105.796 42.6955C104.654 42.3356 103.497 42.039 102.334 41.7518C102.499 41.7145 102.663 41.6752 102.825 41.633C104.247 41.2751 105.649 40.844 107.026 40.3411L107.034 40.3383L107.042 40.3352C108.302 39.8278 109.42 39.0265 110.307 37.9981C111.19 36.9732 111.818 35.7521 112.135 34.4363Z" fill="#B7C8CC" stroke="#B7C8CC"/>
</svg>
