<svg xmlns="http://www.w3.org/2000/svg" width="21.344" height="21" viewBox="0 0 21.344 21">
  <g id="Group_1184" data-name="Group 1184" transform="translate(-459.176 -1872.472)">
    <path id="Path_506" data-name="Path 506" d="M279.966,390.124c0-5.945,3.3-10,10.172-10s10.172,4.055,10.172,10-3.3,10-10.172,10S279.966,396.069,279.966,390.124Z" transform="translate(179.71 1492.848)" fill="#f28907" stroke="#1f606c" stroke-width="1"/>
    <g id="nRADs6.tif" transform="translate(-536.562 1124.949)">
      <g id="Group_514" data-name="Group 514" transform="translate(1001.408 753.022)">
        <path id="Path_479" data-name="Path 479" d="M1011.01,754.179q-.366-.371-.737-.736a1.371,1.371,0,0,0-1.985.008q-2.812,2.809-5.619,5.622a.51.51,0,0,0-.117.191c-.194.571-.384,1.144-.574,1.716q-.277.834-.553,1.668a.269.269,0,0,0,.235.376.552.552,0,0,0,.192-.039q1.647-.548,3.293-1.1a.612.612,0,0,0,.226-.139q1-.986,1.983-1.98,1.812-1.812,3.624-3.624a1.413,1.413,0,0,0,.43-1A1.372,1.372,0,0,0,1011.01,754.179Zm-8.9,8.139.834-2.494,1.662,1.662Zm3.03-1.133-1.894-1.893,4.762-4.763,1.892,1.895Zm5.485-5.467c-.095.1-.2.2-.294.293l-1.91-1.911c.212-.206.395-.467.736-.514a.78.78,0,0,1,.674.2c.277.262.55.53.809.81A.813.813,0,0,1,1010.626,755.717Z" transform="translate(-1001.408 -753.022)" fill="#fff"/>
        <path id="Path_480" data-name="Path 480" d="M1096.225,827.1l-4.777,4.777-1.9-1.9,4.778-4.779Z" transform="translate(-1087.72 -823.7)" fill="#f28907"/>
        <path id="Path_481" data-name="Path 481" d="M1339.255,781.926l-1.9-1.9c.21-.2.392-.464.731-.511a.774.774,0,0,1,.669.2c.275.26.546.527.8.8a.808.808,0,0,1-.015,1.116C1339.454,781.736,1339.353,781.829,1339.255,781.926Z" transform="translate(-1330.324 -778.958)" fill="#f28907"/>
        <path id="Path_482" data-name="Path 482" d="M1035.944,1078.817l1.651,1.651-2.479.826Z" transform="translate(-1034.417 -1071.993)" fill="#f28907"/>
      </g>
    </g>
  </g>
</svg>
