<svg width="53" height="54" viewBox="0 0 53 54" fill="none" xmlns="http://www.w3.org/2000/svg">
    <circle cx="26.5" cy="26.5" r="26.5" fill="#1F606C"/>
    <path d="M20.1328 17.8748C20.1328 13.7875 22.4381 11 27.2404 11C32.0427 11 34.3492 13.7878 34.3492 17.8748C34.3492 21.9618 32.044 24.7499 27.2416 24.7499C22.4393 24.7499 20.1328 21.9621 20.1328 17.8748Z" fill="#fff"/>
    <path d="M14.9591 40.2444L39.522 40.2444C39.7973 40.2447 40.0696 40.1884 40.3215 40.0792C40.5734 39.97 40.7994 39.8103 40.985 39.6103C41.1706 39.4103 41.3118 39.1744 41.3995 38.9177C41.4871 38.6609 41.5194 38.389 41.4942 38.1193C40.6933 29.8576 35.1252 25.8799 27.2406 25.8801C19.356 25.8803 13.7889 29.8587 12.9863 38.1187C12.961 38.3885 12.9932 38.6605 13.0809 38.9174C13.1686 39.1743 13.3098 39.4103 13.4955 39.6104C13.6811 39.8104 13.9072 39.9702 14.1593 40.0794C14.4113 40.1885 14.6837 40.2448 14.9591 40.2444Z" fill="#fff"/>
    </svg>
    