<svg width="32" height="32" viewBox="0 0 30 31" fill="none" xmlns="http://www.w3.org/2000/svg">
    <circle cx="15" cy="15" r="15" fill="#1F606C"/>
    <path d="M10.1719 9.18688C10.1719 6.69764 11.5758 5 14.5005 5C17.4253 5 18.83 6.69782 18.83 9.18688C18.83 11.676 17.426 13.3739 14.5013 13.3739C11.5766 13.3739 10.1719 11.6761 10.1719 9.18688Z" fill="#fff"/>
    <path d="M7.02056 22.8104L21.9799 22.8104C22.1475 22.8106 22.3133 22.7763 22.4668 22.7098C22.6202 22.6433 22.7578 22.5461 22.8709 22.4243C22.9839 22.3025 23.0699 22.1588 23.1233 22.0024C23.1767 21.8461 23.1963 21.6805 23.181 21.5162C22.6932 16.4847 19.3021 14.0621 14.5002 14.0623C9.69835 14.0624 6.30786 16.4853 5.81908 21.5158C5.80367 21.6801 5.82328 21.8458 5.87667 22.0023C5.93007 22.1587 6.01606 22.3024 6.12915 22.4243C6.24224 22.5461 6.37994 22.6434 6.53343 22.7099C6.68693 22.7764 6.85284 22.8106 7.02056 22.8104Z" fill="#fff"/>
    </svg>
    