<svg xmlns="http://www.w3.org/2000/svg" xmlns:xlink="http://www.w3.org/1999/xlink" width="275" height="275" viewBox="0 0 275 275">
  <defs>
    <filter id="Ellipse_2" x="0" y="0" width="275" height="275" filterUnits="userSpaceOnUse">
      <feOffset dy="10" input="SourceAlpha"/>
      <feGaussianBlur stdDeviation="12.5" result="blur"/>
      <feFlood flood-color="#1f606c"/>
      <feComposite operator="in" in2="blur"/>
      <feComposite in="SourceGraphic"/>
    </filter>
  </defs>
  <g id="Group_2" data-name="Group 2" transform="translate(258.5 -438.24)">
    <g transform="matrix(1, 0, 0, 1, -258.5, 438.24)" filter="url(#Ellipse_2)">
      <circle id="Ellipse_2-2" data-name="Ellipse 2" cx="100" cy="100" r="100" transform="translate(37.5 27.5)" fill="#1f606c" opacity="0.33"/>
    </g>
    <circle id="Ellipse_1" data-name="Ellipse 1" cx="85" cy="85" r="85" transform="translate(-206 480.74)" fill="#1f606c"/>
    <g id="Group_1" data-name="Group 1" transform="translate(-166.745 526.983)">
      <path id="Path_1" data-name="Path 1" d="M586.968,234.059v66.965a5.394,5.394,0,0,0,5.888,5.376c22.892-2.183,33.914-17.363,33.914-38.858s-11.022-36.676-33.914-38.859A5.394,5.394,0,0,0,586.968,234.059Z" transform="translate(-535.532 -228.659)" fill="#fff"/>
      <path id="Path_2" data-name="Path 2" d="M537.981,252.282v44.2a3.56,3.56,0,0,0,3.886,3.548c15.109-1.441,22.383-11.46,22.383-25.646s-7.275-24.206-22.383-25.647A3.561,3.561,0,0,0,537.981,252.282Z" transform="translate(-518.831 -235.497)" fill="#fff"/>
      <path id="Path_3" data-name="Path 3" d="M508.924,269.969v22.1a1.78,1.78,0,0,0,1.943,1.774c7.555-.72,11.192-5.73,11.192-12.823s-3.637-12.1-11.192-12.823A1.78,1.78,0,0,0,508.924,269.969Z" transform="translate(-508.924 -242.135)" fill="#fff"/>
    </g>
  </g>
</svg>
