<svg width="133" height="37" viewBox="0 0 133 37" fill="none" xmlns="http://www.w3.org/2000/svg">
<g clip-path="url(#clip0_2051_7305)">
<path d="M24.6641 2.5698V34.4302C24.6638 34.7873 24.7386 35.1405 24.8837 35.4672C25.0289 35.794 25.2411 36.0871 25.5069 36.3278C25.7727 36.5686 26.0862 36.7516 26.4273 36.8653C26.7684 36.979 27.1297 37.0209 27.4881 36.9882C38.4653 35.9529 43.7504 28.7271 43.7504 18.5004C43.7504 8.27365 38.4653 1.04788 27.4881 0.0125653C27.1298 -0.0201426 26.7686 0.0216706 26.4275 0.13533C26.0864 0.24899 25.7729 0.431998 25.5072 0.67266C25.2414 0.913322 25.0291 1.20635 24.884 1.53301C24.7388 1.85967 24.6639 2.21279 24.6641 2.5698Z" fill="#1F606C"/>
<path d="M9.18359 7.98524V29.0133C9.18343 29.2489 9.2328 29.4819 9.32855 29.6976C9.4243 29.9132 9.56433 30.1066 9.73968 30.2655C9.91503 30.4244 10.1219 30.5452 10.347 30.6203C10.572 30.6954 10.8104 30.7231 11.0469 30.7016C18.2915 30.016 21.7796 25.2491 21.7796 18.4996C21.7796 11.7501 18.2915 6.98321 11.0469 6.29768C10.8105 6.27607 10.5721 6.30366 10.347 6.37866C10.1219 6.45366 9.91509 6.57443 9.73972 6.73326C9.56436 6.89209 9.42431 7.08547 9.32855 7.30105C9.23279 7.51663 9.18342 7.74966 9.18359 7.98524Z" fill="#1F606C"/>
<path d="M1.0834e-06 13.2432V23.7568C-0.000188213 23.8747 0.0244303 23.9913 0.0722638 24.0991C0.120097 24.207 0.190098 24.3038 0.277793 24.3833C0.365488 24.4628 0.468944 24.5232 0.581538 24.5608C0.694132 24.5983 0.813378 24.6121 0.931661 24.6013C4.55395 24.2589 6.29803 21.8755 6.29803 18.5004C6.29803 15.1252 4.55395 12.7425 0.931661 12.3994C0.813465 12.3887 0.694326 12.4026 0.581833 12.4401C0.469341 12.4777 0.365975 12.5381 0.278316 12.6174C0.190658 12.6968 0.120636 12.7935 0.0727187 12.9012C0.0248011 13.009 2.91722e-05 13.1254 1.0834e-06 13.2432Z" fill="#1F606C"/>
<path d="M50.1759 10.5514H51.9133C52.0442 10.5514 52.1704 10.5996 52.2676 10.6866C52.3648 10.7736 52.4261 10.8932 52.4395 11.0224L52.6541 13.0931C53.0205 12.2138 53.6491 11.4667 54.4556 10.952C55.2622 10.4372 56.208 10.1795 57.1664 10.2134C57.4776 10.2195 57.7877 10.2534 58.0928 10.3147C58.2116 10.3394 58.3182 10.404 58.3945 10.4977C58.4708 10.5913 58.5122 10.7082 58.5117 10.8287V13.116C58.5119 13.1926 58.4951 13.2684 58.4626 13.338C58.4301 13.4075 58.3826 13.4691 58.3234 13.5185C58.2643 13.5678 58.195 13.6037 58.1204 13.6236C58.0458 13.6435 57.9677 13.6469 57.8916 13.6336C57.4169 13.5495 56.9353 13.5089 56.4531 13.5124C54.1836 13.5124 52.8644 15.2665 52.8644 17.8844V24.6376C52.8644 24.7768 52.8086 24.9104 52.7093 25.0088C52.6101 25.1073 52.4755 25.1626 52.3352 25.1626H50.1737C50.1042 25.1626 50.0354 25.149 49.9712 25.1227C49.907 25.0963 49.8487 25.0576 49.7995 25.0088C49.7504 24.9601 49.7114 24.9022 49.6848 24.8385C49.6582 24.7748 49.6445 24.7065 49.6445 24.6376V11.0764C49.6445 11.0073 49.6583 10.9388 49.685 10.875C49.7118 10.8111 49.7509 10.7531 49.8003 10.7044C49.8497 10.6556 49.9083 10.6169 49.9728 10.5907C50.0372 10.5644 50.1062 10.5511 50.1759 10.5514Z" fill="#1F606C"/>
<path d="M59.7266 17.8555C59.7266 13.431 62.4179 10.2385 67.0613 10.2385C71.6526 10.2385 74.054 13.3275 74.054 17.8555C74.0544 18.1753 74.0329 18.4948 73.9899 18.8117C73.9733 18.9376 73.9113 19.0533 73.8154 19.1373C73.7195 19.2213 73.5961 19.268 73.4682 19.2687H63.2095C63.4473 21.468 65.3993 22.5965 67.6688 22.5965C69.0962 22.6376 70.5107 22.3169 71.7785 21.6647C71.8415 21.6335 71.9102 21.615 71.9805 21.6103C72.0508 21.6057 72.1213 21.615 72.1879 21.6377C72.2545 21.6604 72.3159 21.6961 72.3685 21.7427C72.421 21.7892 72.4637 21.8457 72.494 21.9088L73.2662 23.5239C73.3238 23.6442 73.3333 23.7818 73.2926 23.9088C73.2519 24.0357 73.1641 24.1427 73.0471 24.2079C71.3214 25.1169 69.3833 25.5549 67.431 25.4769C62.4701 25.474 59.7266 22.385 59.7266 17.8555ZM70.182 16.7063C70.2572 16.7063 70.3315 16.6903 70.4001 16.6596C70.4686 16.6289 70.5298 16.5841 70.5795 16.5282C70.6293 16.4722 70.6665 16.4065 70.6887 16.3352C70.7109 16.2639 70.7175 16.1887 70.7082 16.1147C70.4571 14.2045 69.2921 13.1212 67.0621 13.1212C64.9528 13.1212 63.559 14.2445 63.325 16.1184C63.3157 16.1925 63.3224 16.2677 63.3447 16.339C63.3669 16.4104 63.4041 16.4762 63.454 16.5322C63.5038 16.5881 63.5651 16.6329 63.6337 16.6636C63.7023 16.6942 63.7767 16.7101 63.852 16.71L70.182 16.7063Z" fill="#1F606C"/>
<path d="M76.9023 21.7039V6.83161C76.9023 6.69363 76.9571 6.56119 77.0547 6.46293C77.1523 6.36468 77.285 6.3085 77.4241 6.30656L79.5855 6.29029C79.6554 6.2897 79.7247 6.30285 79.7894 6.32897C79.8541 6.3551 79.913 6.39368 79.9626 6.4425C80.0122 6.49131 80.0516 6.54939 80.0784 6.61338C80.1053 6.67738 80.1192 6.74601 80.1192 6.81534V20.8661C80.1192 22.0441 80.541 22.385 81.4645 22.385C81.7149 22.3842 81.9619 22.3268 82.1867 22.2172C82.2673 22.1794 82.3562 22.1625 82.4451 22.1679C82.5341 22.1734 82.6202 22.201 82.6955 22.2483C82.7708 22.2956 82.8328 22.361 82.8759 22.4384C82.9189 22.5158 82.9416 22.6028 82.9417 22.6912V24.341C82.942 24.4176 82.9253 24.4932 82.893 24.5627C82.8607 24.6322 82.8135 24.6939 82.7546 24.7433C82.076 25.2387 81.2506 25.496 80.4083 25.4747C79.0131 25.4754 76.9023 24.7145 76.9023 21.7039Z" fill="#1F606C"/>
<path d="M95.2685 10.5514H97.43C97.5704 10.5514 97.7049 10.6067 97.8042 10.7051C97.9034 10.8036 97.9592 10.9372 97.9592 11.0764V23.5631C97.9592 27.83 96.0862 30.7104 90.0431 30.7104C89.0468 30.7062 88.0565 30.559 87.1027 30.2734C86.9982 30.2381 86.9074 30.1712 86.8433 30.082C86.7791 29.9929 86.7447 29.886 86.745 29.7764V27.8951C86.745 27.8142 86.7638 27.7344 86.8001 27.6619C86.8363 27.5894 86.889 27.5262 86.954 27.4773C87.019 27.4284 87.0945 27.3951 87.1746 27.3799C87.2547 27.3648 87.3372 27.3682 87.4158 27.39C88.2744 27.6095 89.1588 27.7138 90.0453 27.6999C93.6601 27.6999 94.7409 25.9724 94.7409 23.5638V22.0715C93.9754 23.5897 92.3133 24.4276 90.0177 24.4276C86.35 24.4276 84.582 22.124 84.582 18.0397V11.0764C84.582 10.9372 84.6378 10.8036 84.7371 10.7051C84.8363 10.6067 84.9709 10.5514 85.1112 10.5514H87.2727C87.413 10.5514 87.5476 10.6067 87.6469 10.7051C87.7461 10.8036 87.8019 10.9372 87.8019 11.0764V17.5412C87.8019 20.1857 88.8833 21.3371 91.1558 21.3371C93.5304 21.3371 94.7446 19.688 94.7446 17.2794V11.0764C94.7446 10.9381 94.7996 10.8053 94.8977 10.707C94.9959 10.6086 95.1291 10.5527 95.2685 10.5514Z" fill="#1F606C"/>
<path d="M100.809 17.8555C100.809 13.326 103.343 10.2385 108.619 10.2385C113.895 10.2385 116.429 13.3275 116.429 17.8555C116.429 22.3835 113.895 25.4725 108.619 25.4725C103.343 25.4725 100.809 22.385 100.809 17.8555ZM113.051 17.8555C113.051 15.1068 111.838 13.326 108.618 13.326C105.398 13.326 104.186 15.1068 104.186 17.8555C104.186 20.6043 105.399 22.385 108.618 22.385C111.837 22.385 113.051 20.6043 113.051 17.8555Z" fill="#1F606C"/>
<path d="M119.808 10.5514H121.597C121.728 10.5512 121.854 10.5993 121.951 10.6863C122.049 10.7733 122.11 10.8931 122.124 11.0224L122.338 13.0931C122.789 12.166 123.511 11.3954 124.41 10.8817C125.309 10.368 126.344 10.1351 127.378 10.2134C130.756 10.2134 132.999 12.3861 132.999 16.7581V24.6368C132.999 24.7761 132.943 24.9096 132.844 25.0081C132.744 25.1066 132.61 25.1619 132.469 25.1619H130.308C130.168 25.1619 130.033 25.1066 129.934 25.0081C129.835 24.9096 129.779 24.7761 129.779 24.6368V16.7559C129.779 14.4523 128.565 13.326 126.425 13.326C123.839 13.326 122.493 14.8183 122.493 17.7764V24.6346C122.493 24.7739 122.437 24.9074 122.338 25.0059C122.239 25.1044 122.104 25.1597 121.964 25.1597H119.803C119.662 25.1597 119.528 25.1044 119.428 25.0059C119.329 24.9074 119.273 24.7739 119.273 24.6346V11.0764C119.273 11.007 119.287 10.9383 119.314 10.8743C119.341 10.8102 119.381 10.7521 119.43 10.7033C119.48 10.6545 119.539 10.6159 119.604 10.5898C119.669 10.5637 119.738 10.5507 119.808 10.5514Z" fill="#1F606C"/>
</g>
<defs>
<clipPath id="clip0_2051_7305">
<rect width="133" height="37" fill="white"/>
</clipPath>
</defs>
</svg>
