<svg width="27" height="23" viewBox="0 0 27 23" fill="none" xmlns="http://www.w3.org/2000/svg">
    <path d="M17.2896 2.75913V19.4539C19.1849 19.0868 20.6555 18.2854 21.6713 17.0638C22.8598 15.6346 23.4624 13.6302 23.4624 11.1065C23.4624 8.58282 22.8598 6.57852 21.6713 5.14932C20.6555 3.92769 19.1846 3.12628 17.2896 2.75913ZM16.2264 6.87101e-09C16.2749 6.87101e-09 16.324 0.0023093 16.3734 0.00701709C22.9123 0.630586 26.0605 4.9666 26.0605 11.1065C26.0605 17.2464 22.9123 21.5826 16.3734 22.206C15.4704 22.292 14.6914 21.5766 14.6914 20.6703V1.54273C14.6914 0.686079 15.3881 -7.92822e-05 16.2264 6.87101e-09Z" fill="#B4AFAF"/>
    <path d="M8.06787 6.77979V15.4354C8.61346 15.2033 9.05792 14.8824 9.39704 14.4745C10.2053 13.5025 10.375 12.107 10.375 11.1075C10.375 10.1081 10.2053 8.71261 9.39707 7.7406C9.05792 7.33277 8.61354 7.01189 8.06787 6.77979ZM6.48253 3.77734C6.5146 3.77735 6.54707 3.77887 6.57969 3.78199C10.8953 4.19339 12.9731 7.05522 12.9731 11.1075C12.9731 15.1599 10.8953 18.0217 6.57969 18.4333C5.98423 18.4901 5.46969 18.0178 5.46973 17.4197V4.79541C5.46973 4.23009 5.92941 3.77731 6.48253 3.77734Z" fill="#B4AFAF"/>
    <path d="M0.506895 7.44238C0.522832 7.44238 0.538968 7.44314 0.555182 7.44467C2.71288 7.65057 3.7518 9.08147 3.7518 11.1075C3.7518 13.1338 2.71288 14.5647 0.555182 14.7704C0.25761 14.799 -3.964e-05 14.5627 4.57447e-09 14.2636V7.95148C4.57447e-09 7.66881 0.230097 7.44237 0.506895 7.44238Z" fill="#B4AFAF"/>
    </svg>
    