<svg width="24" height="22" viewBox="0 0 24 22" fill="none" xmlns="http://www.w3.org/2000/svg">
    <path d="M20.4902 4.44928V4.4353L20.3296 4.40228C19.7237 4.30489 19.1296 4.14505 18.5566 3.92529C18.0434 3.72408 17.6217 3.34158 17.3716 2.85028C17.1859 2.46235 17.0465 2.05388 16.9565 1.6333C16.8865 1.3333 16.8276 1.03828 16.7646 0.738281C16.7556 0.746281 16.7476 0.749272 16.7466 0.754272C16.7356 0.803272 16.7253 0.85433 16.7153 0.90033C16.6182 1.49209 16.4613 2.07242 16.2466 2.63232C16.115 2.96488 15.9098 3.26333 15.6465 3.50531C15.3457 3.76462 14.9901 3.95262 14.6064 4.0553C14.1394 4.1873 13.6644 4.28731 13.1904 4.40131C13.1374 4.41431 13.0823 4.4243 13.0283 4.4353C13.0698 4.45865 13.1155 4.47426 13.1626 4.48132C13.7649 4.5799 14.3559 4.73627 14.9282 4.9483C15.2291 5.0634 15.5026 5.24023 15.731 5.46741C15.9593 5.69458 16.1377 5.96703 16.2544 6.26727C16.4532 6.79067 16.6017 7.3318 16.6982 7.8833L16.7544 8.1543C16.777 8.11007 16.7921 8.06245 16.7993 8.01331C16.8989 7.40822 17.0597 6.81484 17.2793 6.24231C17.4838 5.7235 17.8739 5.29911 18.3735 5.05133C18.737 4.8783 19.1193 4.74774 19.5127 4.66229C19.8367 4.58529 20.1642 4.52228 20.4902 4.44928ZM18.5054 8.3623C18.8554 8.4513 19.1963 8.52533 19.5283 8.62433C19.7542 8.67901 19.9638 8.78683 20.1396 8.93884C20.3155 9.09086 20.4528 9.28265 20.5396 9.49829C20.6283 9.74185 20.7045 9.98983 20.7676 10.2413C20.8106 10.3973 20.8367 10.5593 20.8677 10.7213C20.9567 10.3773 21.0324 10.0393 21.1304 9.70831C21.1849 9.48792 21.2908 9.28344 21.439 9.11145C21.5872 8.93946 21.7735 8.80479 21.9834 8.71832C22.228 8.62694 22.4774 8.54881 22.7305 8.48431C22.8975 8.43831 23.0693 8.41232 23.2393 8.37732C23.2128 8.35921 23.1829 8.34693 23.1514 8.34131C22.8454 8.26731 22.5354 8.20631 22.2334 8.11731C22.0105 8.06511 21.8034 7.96101 21.6284 7.81348C21.4534 7.66594 21.3157 7.47914 21.2266 7.26831C21.134 7.02246 21.0546 6.77172 20.9893 6.51727C20.9443 6.35527 20.9183 6.18727 20.8833 6.01727C20.8645 6.04299 20.8526 6.07286 20.8477 6.10431C20.7727 6.40431 20.7106 6.71532 20.6216 7.01532C20.5666 7.2409 20.4584 7.45003 20.3062 7.62537C20.1539 7.8007 19.9622 7.93717 19.7466 8.02332C19.4983 8.11343 19.2454 8.19086 18.9893 8.25531C18.8343 8.30331 18.6704 8.3273 18.5054 8.3623Z" fill="#FBA601"/>
    <path d="M20.4902 4.47723C20.1642 4.54823 19.8362 4.61526 19.5112 4.69226C19.1177 4.77836 18.7358 4.90988 18.3726 5.08423C17.8719 5.33496 17.4818 5.76257 17.2783 6.28424C17.0587 6.86123 16.8979 7.45892 16.7983 8.06824C16.7911 8.1177 16.776 8.16569 16.7534 8.21027L16.6973 7.93726C16.6008 7.38184 16.4523 6.83677 16.2534 6.30927C16.1373 6.00761 15.9593 5.73354 15.731 5.50482C15.5026 5.2761 15.2287 5.09779 14.9272 4.98126C14.3552 4.76744 13.7642 4.60969 13.1616 4.51025C13.1145 4.50321 13.0688 4.4876 13.0273 4.46423C13.0813 4.45323 13.1355 4.44324 13.1895 4.43024C13.6625 4.31624 14.1375 4.21421 14.6055 4.08221C14.9896 3.97855 15.3452 3.78918 15.6455 3.52826C15.9093 3.28388 16.1145 2.98305 16.2456 2.64825C16.4604 2.08391 16.6173 1.49927 16.7144 0.903259C16.7244 0.854259 16.7346 0.803226 16.7456 0.756226C16.7456 0.751226 16.7547 0.747234 16.7637 0.740234C16.8267 1.04023 16.8866 1.34026 16.9556 1.64026C17.0455 2.06375 17.1848 2.47518 17.3706 2.86621C17.6195 3.3605 18.0412 3.74627 18.5557 3.95026C19.1284 4.17159 19.7225 4.33275 20.3286 4.43121L20.4893 4.46527L20.4902 4.47723Z" fill="#FBA601"/>
    <path d="M18.5049 8.34424C18.6719 8.31024 18.8352 8.2852 18.9922 8.2442C19.2487 8.17966 19.5015 8.10192 19.75 8.01123C19.9663 7.92413 20.1583 7.78656 20.3105 7.60999C20.4628 7.43341 20.5707 7.22294 20.625 6.99622C20.714 6.69622 20.7771 6.38522 20.8501 6.07922C20.8559 6.04755 20.8686 6.01751 20.8872 5.99121C20.9212 6.15821 20.9472 6.32721 20.9932 6.49121C21.0573 6.74753 21.1359 6.99999 21.229 7.24725C21.3175 7.45937 21.4552 7.64748 21.6304 7.79626C21.8056 7.94504 22.0132 8.05022 22.2368 8.10321C22.5368 8.19321 22.8478 8.25425 23.1538 8.32825C23.1854 8.33366 23.2158 8.3459 23.2422 8.3642C23.0732 8.3992 22.8999 8.42523 22.7339 8.47223C22.4807 8.53665 22.2313 8.61509 21.9868 8.70721C21.776 8.795 21.5891 8.93134 21.4409 9.1051C21.2927 9.27887 21.1872 9.48516 21.1338 9.70721C21.0338 10.0412 20.9601 10.3812 20.8711 10.7282C20.8361 10.5642 20.811 10.4022 20.771 10.2442C20.7076 9.99076 20.6312 9.7408 20.542 9.49524C20.456 9.27854 20.3197 9.0855 20.144 8.93225C19.9684 8.779 19.7586 8.66995 19.5322 8.6142C19.1962 8.5082 18.8559 8.43324 18.5049 8.34424Z" fill="#FBA601"/>
    <path d="M1.03516 13.5114C1.03516 9.05944 3.50516 6.02344 8.65216 6.02344C13.7992 6.02344 16.2692 9.05944 16.2692 13.5114C16.2692 17.9634 13.7992 20.9995 8.65216 20.9995C3.50516 20.9995 1.03516 17.9634 1.03516 13.5114Z" stroke="#FBA601"/>
    <path d="M5.24463 13.5119C5.23311 12.8357 5.4231 12.1714 5.7904 11.6035C6.1577 11.0356 6.68568 10.59 7.30713 10.3232C7.92857 10.0564 8.61536 9.98059 9.28003 10.1054C9.94469 10.2303 10.5572 10.5501 11.0395 11.0242C11.5218 11.4982 11.852 12.1051 11.9883 12.7676C12.1245 13.43 12.0605 14.118 11.8044 14.7439C11.5484 15.3698 11.1118 15.9054 10.5504 16.2824C9.98888 16.6594 9.3279 16.8608 8.65161 16.8609C8.19668 16.9126 7.73595 16.862 7.30307 16.7128C6.87018 16.5637 6.47609 16.3197 6.14956 15.9988C5.82304 15.6778 5.57233 15.2879 5.41577 14.8577C5.2592 14.4274 5.20074 13.9676 5.24463 13.5119Z" stroke="#FBA601"/>
    </svg>
    