<svg width="53" height="53" viewBox="0 0 53 53" fill="none" xmlns="http://www.w3.org/2000/svg">
    <circle cx="26.5" cy="26.5" r="26.5" fill="#1F606C"/>
    <path d="M12 28.4346C12 20.9638 16.1449 15.8691 24.7819 15.8691C33.419 15.8691 37.5638 20.9638 37.5638 28.4346C37.5638 35.9054 33.419 41 24.7819 41C16.1449 41 12 35.9054 12 28.4346Z" stroke="#fff" stroke-width="2"/>
    <path d="M19.0633 28.4361C19.044 27.3014 19.3628 26.1866 19.9792 25.2337C20.5955 24.2808 21.4815 23.5329 22.5243 23.0852C23.5672 22.6375 24.7197 22.5103 25.835 22.7198C26.9504 22.9293 27.9781 23.466 28.7875 24.2615C29.5968 25.0571 30.1511 26.0755 30.3797 27.1871C30.6083 28.2987 30.5009 29.4532 30.0712 30.5036C29.6415 31.5539 28.9089 32.4526 27.9667 33.0853C27.0245 33.7179 25.9153 34.0558 24.7805 34.056C24.0171 34.1427 23.2439 34.0579 22.5175 33.8076C21.7911 33.5573 21.1298 33.1479 20.5819 32.6093C20.0339 32.0707 19.6132 31.4165 19.3505 30.6945C19.0878 29.9725 18.9897 29.2009 19.0633 28.4361Z" stroke="#fff" stroke-width="2"/>
    <path d="M42.0622 11.5008V11.4801L41.8241 11.4311C40.926 11.2868 40.0454 11.0498 39.1961 10.7241C38.4353 10.4258 37.8102 9.85886 37.4395 9.13061C37.1642 8.55558 36.9576 7.9501 36.8243 7.32668C36.7205 6.882 36.6332 6.44469 36.5398 6C36.5265 6.01186 36.5145 6.01629 36.513 6.0237C36.4967 6.09634 36.4815 6.17202 36.4667 6.2402C36.3228 7.11737 36.0902 7.97759 35.7719 8.80753C35.5769 9.30048 35.2727 9.74287 34.8824 10.1016C34.4365 10.4859 33.9094 10.7646 33.3407 10.9168C32.6485 11.1125 31.9444 11.2607 31.2418 11.4297C31.1632 11.449 31.0815 11.4638 31.0015 11.4801C31.063 11.5147 31.1307 11.5378 31.2005 11.5483C32.0933 11.6944 32.9694 11.9262 33.8177 12.2405C34.2636 12.4111 34.6691 12.6732 35.0076 13.01C35.3461 13.3467 35.6105 13.7506 35.7835 14.1956C36.0782 14.9714 36.2983 15.7736 36.4414 16.591L36.5246 16.9927C36.5581 16.9272 36.5805 16.8566 36.5912 16.7837C36.7387 15.8868 36.9771 15.0073 37.3027 14.1586C37.6059 13.3896 38.1841 12.7605 38.9247 12.3932C39.4634 12.1367 40.0302 11.9432 40.6132 11.8166C41.0935 11.7024 41.579 11.609 42.0622 11.5008ZM39.1201 17.3011C39.6389 17.433 40.1443 17.5427 40.6364 17.6895C40.9713 17.7705 41.2819 17.9303 41.5426 18.1557C41.8032 18.381 42.0067 18.6653 42.1353 18.9849C42.267 19.346 42.3798 19.7135 42.4733 20.0863C42.5371 20.3175 42.5758 20.5577 42.6217 20.7978C42.7536 20.2879 42.8658 19.7869 43.0111 19.2963C43.0919 18.9696 43.2489 18.6665 43.4685 18.4115C43.6882 18.1566 43.9644 17.957 44.2756 17.8288C44.6381 17.6933 45.0079 17.5775 45.3829 17.4819C45.6305 17.4137 45.8851 17.3752 46.1371 17.3233C46.0979 17.2965 46.0536 17.2783 46.0068 17.2699C45.5532 17.1603 45.0938 17.0698 44.6461 16.9379C44.3158 16.8605 44.0088 16.7062 43.7494 16.4875C43.49 16.2688 43.2858 15.992 43.1537 15.6794C43.0165 15.315 42.8988 14.9434 42.8019 14.5662C42.7352 14.3261 42.6968 14.077 42.6449 13.825C42.6171 13.8632 42.5993 13.9074 42.592 13.954C42.4809 14.3987 42.3889 14.8597 42.2569 15.3044C42.1754 15.6388 42.015 15.9488 41.7894 16.2087C41.5638 16.4686 41.2795 16.6709 40.9599 16.7986C40.592 16.9322 40.217 17.0469 39.8373 17.1425C39.6076 17.2136 39.3647 17.2492 39.1201 17.3011Z" fill="#fff"/>
    <path d="M42.0622 11.5418C41.579 11.647 41.0928 11.7464 40.611 11.8605C40.0277 11.9881 39.4616 12.1831 38.9232 12.4415C38.181 12.8132 37.6028 13.447 37.3012 14.2203C36.9756 15.0756 36.7373 15.9615 36.5897 16.8647C36.5791 16.938 36.5566 17.0092 36.5231 17.0752L36.4399 16.6706C36.2969 15.8473 36.0768 15.0393 35.782 14.2574C35.61 13.8103 35.3461 13.404 35.0076 13.065C34.669 12.7259 34.2631 12.4616 33.8162 12.2889C32.9683 11.972 32.0922 11.7381 31.199 11.5907C31.1292 11.5803 31.0615 11.5571 31 11.5225C31.08 11.5062 31.1603 11.4914 31.2403 11.4721C31.9414 11.3031 32.6455 11.1519 33.3393 10.9562C33.9086 10.8026 34.4357 10.5219 34.8809 10.1351C35.2719 9.77288 35.576 9.32696 35.7704 8.83069C36.0889 7.99417 36.3214 7.12755 36.4652 6.24409C36.4801 6.17146 36.4953 6.09581 36.5116 6.02615C36.5116 6.01873 36.525 6.01282 36.5383 6.00244C36.6317 6.44713 36.7205 6.89186 36.8228 7.33655C36.9561 7.96428 37.1626 8.57414 37.438 9.15377C37.8069 9.88645 38.4321 10.4583 39.1946 10.7606C40.0436 11.0887 40.9243 11.3276 41.8227 11.4736L42.0608 11.5241L42.0622 11.5418Z" fill="#fff"/>
    <path d="M39.1201 17.274C39.3677 17.2236 39.6097 17.1865 39.8424 17.1257C40.2227 17.0301 40.5974 16.9148 40.9658 16.7804C41.2863 16.6513 41.571 16.4474 41.7966 16.1856C42.0223 15.9239 42.1823 15.6119 42.2628 15.2758C42.3947 14.8312 42.4882 14.3702 42.5964 13.9166C42.605 13.8697 42.6239 13.8251 42.6514 13.7861C42.7018 14.0337 42.7403 14.2842 42.8085 14.5273C42.9035 14.9072 43.0201 15.2814 43.1581 15.648C43.2893 15.9624 43.4933 16.2412 43.753 16.4618C44.0127 16.6823 44.3204 16.8382 44.652 16.9167C45.0966 17.0502 45.5576 17.1406 46.0112 17.2503C46.0581 17.2583 46.1032 17.2765 46.1422 17.3036C45.8917 17.3555 45.6348 17.3941 45.3888 17.4637C45.0135 17.5592 44.6437 17.6755 44.2814 17.8121C43.9688 17.9422 43.6919 18.1443 43.4722 18.4018C43.2525 18.6594 43.0962 18.9652 43.0169 19.2944C42.8687 19.7894 42.7595 20.2934 42.6275 20.8078C42.5757 20.5647 42.5385 20.3245 42.4792 20.0903C42.3852 19.7147 42.2719 19.3441 42.1397 18.9801C42.0123 18.6589 41.8103 18.3728 41.5498 18.1456C41.2894 17.9185 40.9785 17.7568 40.6429 17.6742C40.1449 17.5171 39.6404 17.4059 39.1201 17.274Z" fill="#fff"/>
    </svg>
    