<svg xmlns="http://www.w3.org/2000/svg" width="31.825" height="29.125" viewBox="0 0 31.825 29.125">
  <g id="Group_1471" data-name="Group 1471" transform="translate(3.355 7.363)">
    <g id="soKGJH.tif" transform="translate(14.291 -7.363)">
      <g id="Group_6" data-name="Group 6" transform="translate(0)">
        <path id="Path_8" data-name="Path 8" d="M4794.073,702.467l0-.02-.223-.046a12.338,12.338,0,0,1-2.462-.662,3.123,3.123,0,0,1-1.644-1.493,7.6,7.6,0,0,1-.577-1.689c-.1-.411-.178-.825-.266-1.242-.013.011-.024.016-.025.023-.016.067-.03.135-.043.2a12.27,12.27,0,0,1-.651,2.4,3.281,3.281,0,0,1-.84,1.212,3.654,3.654,0,0,1-1.443.763c-.649.183-1.309.322-1.965.48-.074.018-.15.031-.225.047a.546.546,0,0,0,.186.063,13.213,13.213,0,0,1,2.453.649,3.2,3.2,0,0,1,1.84,1.83,12.379,12.379,0,0,1,.616,2.243q.039.188.077.376a.623.623,0,0,0,.063-.2,12.535,12.535,0,0,1,.666-2.458,3.126,3.126,0,0,1,1.519-1.653,7.269,7.269,0,0,1,1.581-.54C4793.165,702.657,4793.62,702.565,4794.073,702.467Zm-2.756,5.431c.485.123.959.227,1.421.364a2.026,2.026,0,0,1,1.4,1.213,10.439,10.439,0,0,1,.317,1.032c.06.217.1.441.143.666.124-.478.228-.947.365-1.407a2.007,2.007,0,0,1,1.184-1.374,9.985,9.985,0,0,1,1.037-.324c.232-.064.471-.1.707-.148a.32.32,0,0,0-.123-.049c-.425-.1-.854-.187-1.274-.31a2.017,2.017,0,0,1-1.4-1.179,10.086,10.086,0,0,1-.329-1.042c-.063-.225-.1-.458-.147-.688a.282.282,0,0,0-.05.121c-.1.422-.19.849-.313,1.264a2.02,2.02,0,0,1-1.214,1.4,10.811,10.811,0,0,1-1.051.322C4791.773,707.817,4791.547,707.851,4791.317,707.9Z" transform="translate(-4783.713 -697.315)" fill="#1f606c"/>
        <path id="Path_9" data-name="Path 9" d="M4794.073,702.506c-.453.1-.908.191-1.358.3a7.232,7.232,0,0,0-1.581.544,3.14,3.14,0,0,0-1.519,1.665,12.708,12.708,0,0,0-.666,2.477.631.631,0,0,1-.063.2q-.038-.19-.077-.379a12.547,12.547,0,0,0-.616-2.26,3.214,3.214,0,0,0-1.84-1.844,13.127,13.127,0,0,0-2.453-.654.544.544,0,0,1-.186-.064c.075-.016.151-.029.225-.047.656-.159,1.316-.3,1.965-.483a3.646,3.646,0,0,0,1.443-.769,3.308,3.308,0,0,0,.84-1.221,12.434,12.434,0,0,0,.651-2.423c.014-.068.027-.137.043-.2,0-.007.013-.012.025-.023.088.42.169.837.266,1.251a7.7,7.7,0,0,0,.577,1.7,3.133,3.133,0,0,0,1.644,1.5,12.268,12.268,0,0,0,2.462.667l.223.047Z" transform="translate(-4783.713 -697.315)" fill="#1f606c"/>
        <path id="Path_10" data-name="Path 10" d="M5054.944,964.278c.232-.048.458-.082.676-.142a10.623,10.623,0,0,0,1.052-.324,2.029,2.029,0,0,0,1.214-1.409c.123-.419.21-.849.312-1.274a.309.309,0,0,1,.051-.122c.048.231.084.466.148.693a9.672,9.672,0,0,0,.329,1.05,2.022,2.022,0,0,0,1.4,1.188c.419.124.849.21,1.273.313a.3.3,0,0,1,.122.05c-.235.049-.475.085-.706.149a9.88,9.88,0,0,0-1.036.327,2.015,2.015,0,0,0-1.184,1.384c-.137.463-.242.936-.366,1.418-.048-.227-.083-.453-.143-.672a10.7,10.7,0,0,0-.317-1.04,2.031,2.031,0,0,0-1.4-1.222C5055.9,964.507,5055.43,964.4,5054.944,964.278Z" transform="translate(-5047.34 -953.72)" fill="#1f606c"/>
      </g>
    </g>
    <g id="Group_1456" data-name="Group 1456" transform="translate(-2.355 -0.026)">
      <path id="Path_563" data-name="Path 563" d="M279.966,390.518c0-6.179,3.429-10.394,10.573-10.394s10.573,4.215,10.573,10.394-3.429,10.394-10.573,10.394S279.966,396.7,279.966,390.518Z" transform="translate(-279.966 -380.124)" fill="none" stroke="#1f606c" stroke-width="2"/>
      <path id="Path_564" data-name="Path 564" d="M279.966,384.773c0-2.764,1.534-4.649,4.729-4.649s4.729,1.885,4.729,4.649-1.534,4.649-4.729,4.649S279.966,387.536,279.966,384.773Z" transform="translate(-274.123 -374.379)" fill="none" stroke="#1f606c" stroke-width="2"/>
    </g>
  </g>
</svg>
