<svg xmlns="http://www.w3.org/2000/svg" width="23.127" height="27.414" viewBox="0 0 23.127 27.414">
  <g id="Group_1477" data-name="Group 1477" transform="translate(2.617 1.482)">
    <g id="Group_130" data-name="Group 130" transform="translate(-34.717 -137.549)">
      <g id="Group_89" data-name="Group 89" transform="translate(33.617 137.067)">
        <g id="Group_78" data-name="Group 78" transform="translate(5.908)">
          <path id="Path_48" data-name="Path 48" d="M279.966,384.192c0-2.419,1.342-4.068,4.138-4.068s4.138,1.65,4.138,4.068-1.342,4.068-4.138,4.068S279.966,386.611,279.966,384.192Z" transform="translate(-279.966 -380.124)" fill="none" stroke="#00616e" stroke-width="2"/>
        </g>
        <path id="Path_51" data-name="Path 51" d="M10.455.338.338,10.455a1.154,1.154,0,0,0,.079,1.7c3.793,3.134,7.754,2.508,11-.739s3.873-7.208.74-11A1.154,1.154,0,0,0,10.455.338Z" transform="translate(10.046 25) rotate(-135)" fill="none" stroke="#00616e" stroke-width="2"/>
      </g>
    </g>
  </g>
</svg>
