<svg width="30" height="31" viewBox="0 0 30 31" fill="none" xmlns="http://www.w3.org/2000/svg">
<path d="M1 19.0547C1 12.7091 4.52056 8.38184 11.8567 8.38184C19.1929 8.38184 22.7134 12.7091 22.7134 19.0547C22.7134 25.4002 19.1929 29.7275 11.8567 29.7275C4.52056 29.7275 1 25.4002 1 19.0547Z" stroke="currentColor" stroke-width="2"/>
<path d="M7.00065 19.0559C6.98424 18.0921 7.25504 17.1453 7.77856 16.3359C8.30207 15.5265 9.05462 14.8912 9.94038 14.511C10.8261 14.1307 11.805 14.0227 12.7524 14.2006C13.6998 14.3786 14.5727 14.8344 15.2602 15.5101C15.9476 16.1859 16.4184 17.0509 16.6125 17.9951C16.8067 18.9392 16.7155 19.9198 16.3505 20.812C15.9855 21.7042 15.3633 22.4675 14.563 23.0048C13.7628 23.5422 12.8206 23.8292 11.8567 23.8293C11.2083 23.903 10.5516 23.831 9.93459 23.6184C9.31759 23.4058 8.75588 23.058 8.29048 22.6006C7.82507 22.1431 7.46774 21.5874 7.24458 20.9742C7.02143 20.3609 6.93809 19.7055 7.00065 19.0559Z" stroke="currentColor" stroke-width="2"/>
<path d="M26.5315 4.67227V4.65468L26.3293 4.6131C25.5664 4.49048 24.8184 4.28923 24.0971 4.01256C23.4508 3.75923 22.9199 3.27764 22.605 2.65908C22.3712 2.17066 22.1958 1.65638 22.0825 1.12686C21.9944 0.74915 21.9202 0.37771 21.8409 0C21.8296 0.0100723 21.8194 0.0138383 21.8181 0.0201335C21.8043 0.0818261 21.7914 0.146109 21.7788 0.204024C21.6565 0.949075 21.459 1.67972 21.1886 2.38466C21.023 2.80337 20.7646 3.17912 20.4331 3.48378C20.0543 3.81027 19.6067 4.04696 19.1236 4.17624C18.5357 4.34243 17.9376 4.46834 17.3408 4.61187C17.2741 4.62824 17.2047 4.64083 17.1367 4.65468C17.189 4.68407 17.2465 4.70372 17.3058 4.71262C18.0641 4.83673 18.8082 5.0336 19.5288 5.30056C19.9076 5.44547 20.2519 5.66811 20.5394 5.95413C20.827 6.24015 21.0515 6.58317 21.1985 6.96119C21.4488 7.62017 21.6357 8.30146 21.7573 8.99582L21.828 9.33701C21.8564 9.28133 21.8755 9.22137 21.8845 9.1595C22.0099 8.39768 22.2123 7.65059 22.4888 6.92976C22.7464 6.27656 23.2375 5.74223 23.8665 5.43027C24.3241 5.21243 24.8055 5.04804 25.3008 4.94046C25.7087 4.84352 26.1211 4.76418 26.5315 4.67227ZM24.0325 9.5989C24.4732 9.71096 24.9024 9.80416 25.3204 9.9288C25.6049 9.99765 25.8687 10.1334 26.0901 10.3248C26.3115 10.5162 26.4844 10.7576 26.5936 11.0291C26.7054 11.3358 26.8013 11.648 26.8807 11.9646C26.9348 12.161 26.9677 12.365 27.0067 12.569C27.1188 12.1359 27.2141 11.7103 27.3375 11.2936C27.4061 11.0161 27.5394 10.7586 27.726 10.5421C27.9126 10.3256 28.1472 10.156 28.4115 10.0471C28.7194 9.93208 29.0335 9.83372 29.3521 9.75252C29.5623 9.6946 29.7786 9.66187 29.9926 9.61781C29.9593 9.59501 29.9217 9.57955 29.882 9.57247C29.4967 9.4793 29.1065 9.4025 28.7262 9.29045C28.4456 9.22473 28.1849 9.09366 27.9645 8.90791C27.7442 8.72216 27.5708 8.48697 27.4586 8.22153C27.342 7.912 27.242 7.59631 27.1598 7.27595C27.1032 7.07198 27.0705 6.86046 27.0264 6.64643C27.0028 6.67881 26.9877 6.71641 26.9815 6.75601C26.8871 7.13372 26.8089 7.52529 26.6969 7.903C26.6277 8.18702 26.4914 8.45032 26.2998 8.67107C26.1081 8.89183 25.8667 9.06365 25.5952 9.1721C25.2827 9.28556 24.9642 9.38305 24.6417 9.46419C24.4466 9.52463 24.2403 9.55484 24.0325 9.5989Z" fill="currentColor"/>
<path d="M26.5328 4.70794C26.1223 4.79733 25.7093 4.88172 25.3002 4.97866C24.8046 5.08707 24.3238 5.25265 23.8665 5.47216C23.2362 5.78784 22.745 6.32622 22.4888 6.98302C22.2123 7.70947 22.0098 8.46199 21.8845 9.22913C21.8755 9.2914 21.8564 9.35182 21.828 9.40795L21.7573 9.06422C21.6358 8.36493 21.4488 7.67867 21.1985 7.01453C21.0523 6.63473 20.8282 6.28967 20.5407 6.00171C20.2531 5.71374 19.9083 5.48923 19.5288 5.34253C18.8086 5.07331 18.0644 4.8747 17.3058 4.74951C17.2465 4.74064 17.189 4.72099 17.1367 4.69157C17.2047 4.67772 17.2728 4.66513 17.3408 4.64877C17.9363 4.50524 18.5344 4.37679 19.1236 4.2106C19.6072 4.08008 20.055 3.84166 20.4331 3.51315C20.7651 3.20547 21.0235 2.82671 21.1886 2.40519C21.4591 1.69466 21.6566 0.958577 21.7788 0.208184C21.7914 0.146491 21.8043 0.0822377 21.8181 0.0230632C21.8181 0.016768 21.8296 0.0117429 21.8409 0.00292969C21.9202 0.38064 21.9956 0.758381 22.0825 1.13609C22.1957 1.66928 22.3711 2.18728 22.605 2.67961C22.9184 3.30193 23.4494 3.78763 24.0971 4.04446C24.8182 4.32313 25.5662 4.52603 26.3293 4.65L26.5315 4.69288L26.5328 4.70794Z" fill="currentColor"/>
<path d="M24.0352 9.57582C24.2454 9.53302 24.451 9.50149 24.6487 9.44987C24.9717 9.36861 25.29 9.27073 25.6028 9.15655C25.8751 9.04689 26.1169 8.87369 26.3085 8.65137C26.5002 8.42906 26.6361 8.16407 26.7045 7.87862C26.8165 7.50091 26.896 7.10936 26.9879 6.72409C26.9952 6.68422 27.0112 6.6464 27.0346 6.61328C27.0774 6.82354 27.1101 7.03632 27.168 7.2428C27.2487 7.56551 27.3477 7.88336 27.4649 8.19468C27.5764 8.46174 27.7497 8.69859 27.9703 8.8859C28.1908 9.07322 28.4522 9.20564 28.7338 9.27236C29.1115 9.38567 29.503 9.46252 29.8883 9.55569C29.9281 9.5625 29.9664 9.57791 29.9996 9.60095C29.7868 9.64502 29.5686 9.67779 29.3596 9.73697C29.0409 9.81808 28.7268 9.91683 28.419 10.0328C28.1536 10.1433 27.9183 10.315 27.7317 10.5338C27.5451 10.7526 27.4123 11.0123 27.345 11.2919C27.2191 11.7124 27.1263 12.1404 27.0143 12.5773C26.9702 12.3708 26.9386 12.1669 26.8883 11.9679C26.8085 11.6489 26.7122 11.3341 26.5999 11.025C26.4917 10.7521 26.3201 10.5091 26.0989 10.3161C25.8777 10.1232 25.6136 9.9859 25.3286 9.91571C24.9056 9.78225 24.4771 9.68788 24.0352 9.57582Z" fill="currentColor"/>
</svg>
