<svg width="100" height="100" viewBox="0 0 100 100" fill="none" xmlns="http://www.w3.org/2000/svg">
    <g clip-path="url(#clip0_57_3773)">
    <path opacity="0.66" d="M14.3817 62.0011L85.6163 62.0011C86.4147 62.0018 87.2044 61.836 87.9349 61.5141C88.6655 61.1923 89.3209 60.7215 89.8592 60.132C90.3974 59.5424 90.8068 58.847 91.061 58.0903C91.3152 57.3335 91.4088 56.532 91.3356 55.737C89.014 31.3851 72.8646 19.6623 49.9993 19.6607C27.1341 19.6591 10.9847 31.3851 8.66244 55.737C8.58928 56.532 8.6828 57.3335 8.93703 58.0903C9.19126 58.847 9.60059 59.5424 10.1389 60.132C10.6772 60.7215 11.3325 61.1923 12.0631 61.5141C12.7937 61.836 13.5834 62.0018 14.3817 62.0011Z" fill="#FFD6BA"/>
    <path d="M53.7833 85.8492L51.9137 83.9796C50.86 82.9259 49.1517 82.9259 48.098 83.9796L46.2285 85.8492C45.1748 86.9028 45.1748 88.6112 46.2285 89.6648L48.098 91.5344C49.1517 92.5881 50.86 92.5881 51.9137 91.5344L53.7833 89.6648C54.8369 88.6112 54.8369 86.9028 53.7833 85.8492Z" fill="#1F606C"/>
    <path d="M21.8467 51.3105V49.9786C21.892 49.9261 21.9303 49.8679 21.9607 49.8055C22.1246 49.2017 22.4748 48.6651 22.9614 48.272C23.448 47.879 24.0463 47.6495 24.671 47.6162C26.9711 47.395 29.273 47.1896 31.5763 46.9802C34.5777 46.7076 37.5792 46.4381 40.5809 46.1716C40.7163 46.1706 40.848 46.1264 40.9566 46.0454C41.0652 45.9645 41.1451 45.8509 41.1847 45.7214C41.9116 43.9832 42.657 42.2546 43.398 40.5233C44.7563 37.3487 46.107 34.1714 47.4767 31.0022C47.7497 30.3046 48.2748 29.7351 48.9479 29.4064C49.6211 29.0778 50.3931 29.014 51.111 29.2277C51.5821 29.3693 52.0133 29.6196 52.3698 29.9585C52.7263 30.2973 52.9982 30.7152 53.1635 31.1785C55.2172 36.0034 57.275 40.8265 59.3369 45.6478C59.3759 45.796 59.4616 45.9278 59.5813 46.0235C59.701 46.1192 59.8484 46.1739 60.0016 46.1793C62.6177 46.3973 65.2328 46.628 67.8468 46.8712C70.5899 47.1215 73.3334 47.3709 76.0737 47.6435C76.5561 47.688 77.0187 47.8565 77.4168 48.1326C77.8148 48.4087 78.1346 48.7832 78.3451 49.2194C78.6788 49.8466 78.7803 50.5714 78.6316 51.266C78.4829 51.9606 78.0936 52.5804 77.5324 53.016C73.6139 56.458 69.6896 59.8934 65.7594 63.3221C65.5854 63.445 65.4559 63.6209 65.3904 63.8236C65.3249 64.0262 65.3268 64.2446 65.3959 64.446C66.5546 69.4663 67.699 74.4899 68.829 79.5169C69.3042 81.6157 68.5169 82.9305 66.4399 83.5397C66.4121 83.5478 66.3944 83.5914 66.3726 83.6187H65.4845C64.9848 83.3575 64.4519 83.1762 63.9621 82.8814C59.5455 80.2233 55.1152 77.5884 50.6967 74.9312C50.5755 74.8389 50.4275 74.789 50.2751 74.789C50.1228 74.789 49.9747 74.8389 49.8535 74.9312C46.5313 76.9346 43.2108 78.9426 39.859 80.9007C38.2444 81.8442 36.7389 82.9927 34.9463 83.616H34.0581C34.0195 83.581 33.9863 83.5292 33.9409 83.5138C31.9756 82.8373 31.2511 81.5498 31.7104 79.5214C32.8531 74.4772 34.0008 69.4345 35.1535 64.3934C35.2193 64.209 35.2233 64.0081 35.1648 63.8213C35.1064 63.6344 34.9887 63.4716 34.8295 63.3576C31.1952 60.2043 27.5912 57.0211 23.9682 53.8578C23.1223 53.12 22.2378 52.4231 21.8467 51.3105Z" fill="#FF9501"/>
    </g>
    <defs>
    <clipPath id="clip0_57_3773">
    <rect width="100" height="100" fill="white"/>
    </clipPath>
    </defs>
    </svg>
    