<svg width="57" height="66" viewBox="0 0 57 66" fill="none" xmlns="http://www.w3.org/2000/svg">
<path d="M28.6814 65.4545C25.3208 65.4564 19.6692 61.2701 17.1903 59.2418C4.84411 49.1398 0.564487 37.5581 0.141795 22.2037C0.107792 20.9701 0.159713 19.7327 0.122047 18.4997L0.0353374 15.6306C-0.0299234 13.7371 -0.14449 12.3946 1.15458 10.8234C3.72931 7.70945 7.40053 8.31177 10.971 7.90477C15.637 7.37275 21.1489 5.64786 24.6408 2.47052C25.905 1.32006 26.602 0.185286 28.4426 0.0163186C30.0323 -0.177757 31.2426 1.40404 32.2512 2.3807C35.3842 5.41458 40.0073 6.88563 44.194 7.64256C47.6828 8.27329 52.3795 7.72621 54.9954 9.95824C57.4366 12.0412 57.0002 13.9298 56.9169 16.7159C56.7776 21.3716 56.8064 26.0704 56.1899 30.6935C54.3202 44.7133 45.6082 56.7465 33.3903 63.6196C31.8805 64.4688 30.4503 65.3194 28.6814 65.4545ZM28.3693 2.17612C27.6262 2.34122 27.1875 2.99338 26.6717 3.50433C22.1925 7.94143 15.2576 9.74957 9.14086 10.1623C5.3777 10.4164 1.86382 10.3982 2.12591 15.2503C2.18751 16.393 2.11165 17.5466 2.14474 18.6916C2.34745 25.6931 2.5057 32.1297 4.85731 38.791C8.0394 47.8049 14.8949 55.8055 23.0134 60.8347C24.5149 61.7649 26.8396 63.3688 28.6774 63.3214C30.1297 63.1587 31.4973 62.3062 32.7411 61.5826C43.1104 55.5508 51.1542 45.5031 53.5746 33.6194C54.5101 29.0262 54.7804 23.9596 54.7775 19.2701C54.776 16.7401 55.702 13.1635 53.5483 11.4629C51.5936 9.91975 47.2077 10.2512 44.6124 9.83924C39.2712 8.9912 33.8696 7.03251 30.0038 3.12285C29.5175 2.63102 29.1241 2.1345 28.3693 2.17612Z" fill="#1F606C"/>
<path d="M6.58103 14.7808C6.53238 15.7543 6.62275 16.7248 6.6701 17.6963L6.97875 23.0422C7.18133 26.1764 7.34585 29.2697 7.98198 32.3575C10.0485 42.3883 16.3056 50.4356 24.6256 56.1057C25.1227 56.4443 25.698 56.7633 26.1346 57.1738C26.6852 57.6914 26.5808 58.7719 25.7863 58.9901C24.9192 59.2283 22.8121 57.4089 22.1391 56.9261C14.1778 51.2132 8.38453 43.2126 6.13232 33.6181C4.96625 28.6502 4.69645 21.8486 4.53297 16.5523C4.42481 13.0491 4.90034 12.6409 8.53297 12.7157C13.4792 12.8174 19.1769 11.5642 23.3886 9.01576C24.8707 8.11915 26.384 6.31834 28.002 5.98333C30.0294 5.82415 30.7014 6.99763 32.188 8.06246C36.03 10.8146 42.2714 12.6807 46.981 12.7734C48.5084 12.8034 50.4897 12.2639 51.7876 13.3445C52.9071 14.2763 52.4735 16.3408 52.4038 17.612L52.1082 22.4598C51.9359 25.2947 51.8252 28.1097 51.3995 30.9231C49.6664 42.3744 42.9042 51.4045 33.594 57.8568C33.0678 58.2216 32.2302 58.9701 31.5829 59.0049C31.017 59.0353 30.5055 58.5581 30.5184 57.9855C30.5352 57.2403 31.4469 56.7925 31.9757 56.4247C41.3025 49.9387 47.6196 41.7929 49.405 30.1733C49.8212 27.4637 49.9248 24.6755 50.0657 21.9398L50.2702 17.9355C50.3276 16.8853 50.4023 15.8314 50.407 14.7794C49.6844 14.6623 48.8682 14.8333 48.136 14.8577C42.5694 15.042 34.6344 12.944 30.5272 9.38414C30.0318 8.95475 29.5853 8.48648 29.0088 8.1651C27.7289 7.8085 26.997 9.01105 26.1051 9.70789C21.9985 12.9168 15.5483 14.5983 10.4815 14.8146C9.17956 14.8701 7.88089 14.7358 6.58103 14.7808Z" fill="#1F606C"/>
<path d="M18.9469 33.4211C19.0396 33.4211 19.1196 33.4547 19.1869 33.5221C19.2543 33.5895 19.288 33.6695 19.288 33.7621V34.6589C19.288 34.7516 19.2543 34.8316 19.1869 34.8989C19.1196 34.9663 19.0396 35 18.9469 35H13.4143C13.3217 35 13.2417 34.9663 13.1743 34.8989C13.1069 34.8316 13.0733 34.7516 13.0733 34.6589V26.4989C13.0733 26.4063 13.1069 26.3263 13.1743 26.2589C13.2417 26.1916 13.3217 26.1579 13.4143 26.1579H14.4375C14.5301 26.1579 14.6101 26.1916 14.6775 26.2589C14.7448 26.3263 14.7785 26.4063 14.7785 26.4989V33.4211H18.9469ZM23.7741 26.0316C24.953 26.0316 25.8541 26.3474 26.4772 26.9789C27.1004 27.6105 27.4372 28.4358 27.4878 29.4547C27.5046 29.8421 27.513 30.1789 27.513 30.4653C27.513 30.8442 27.5046 31.2611 27.4878 31.7158C27.4372 32.7263 27.1004 33.5474 26.4772 34.1789C25.8541 34.8105 24.953 35.1263 23.7741 35.1263C22.5951 35.1263 21.6941 34.8105 21.0709 34.1789C20.4478 33.5474 20.1109 32.7263 20.0604 31.7158C20.0436 31.2611 20.0351 30.8442 20.0351 30.4653C20.0351 30.1789 20.0436 29.8421 20.0604 29.4547C20.1109 28.4442 20.4478 27.6232 21.0709 26.9916C21.6941 26.3516 22.5951 26.0316 23.7741 26.0316ZM23.7741 27.6105C23.1846 27.6105 22.7088 27.7789 22.3467 28.1158C21.993 28.4526 21.7993 28.92 21.7657 29.5179C21.7488 29.9389 21.7404 30.2926 21.7404 30.5789C21.7404 30.8737 21.7488 31.2316 21.7657 31.6526C21.7993 32.2505 21.993 32.7179 22.3467 33.0547C22.7088 33.3832 23.1846 33.5474 23.7741 33.5474C24.3636 33.5474 24.8351 33.3832 25.1888 33.0547C25.5509 32.7179 25.7488 32.2505 25.7825 31.6526C25.7993 31.4421 25.8078 31.0842 25.8078 30.5789C25.8078 30.0821 25.7993 29.7284 25.7825 29.5179C25.7488 28.92 25.5509 28.4526 25.1888 28.1158C24.8351 27.7789 24.3636 27.6105 23.7741 27.6105ZM32.6704 26.0316C33.563 26.0316 34.283 26.1747 34.8304 26.4611C35.3862 26.7474 35.7819 27.0842 36.0177 27.4716C36.2535 27.8505 36.384 28.2042 36.4093 28.5326C36.4177 28.6337 36.3883 28.7179 36.3209 28.7853C36.2535 28.8442 36.1693 28.8737 36.0683 28.8737H35.0451C34.8935 28.8737 34.7798 28.8021 34.704 28.6589C34.3251 27.96 33.6472 27.6105 32.6704 27.6105C32.0472 27.6105 31.5419 27.7832 31.1546 28.1284C30.7756 28.4653 30.5735 28.92 30.5483 29.4926C30.5398 29.7032 30.5356 30.0442 30.5356 30.5158C30.5356 30.9958 30.5398 31.3411 30.5483 31.5516C30.5735 32.2253 30.7714 32.7263 31.1419 33.0547C31.5125 33.3832 32.0219 33.5474 32.6704 33.5474C34.0935 33.5474 34.8051 32.8989 34.8051 31.6021V31.5011H33.264C33.1714 31.5011 33.0914 31.4674 33.024 31.4C32.9567 31.3326 32.923 31.2526 32.923 31.16V30.2632C32.923 30.1705 32.9567 30.0905 33.024 30.0232C33.0914 29.9558 33.1714 29.9221 33.264 29.9221H36.1693C36.2619 29.9221 36.3419 29.9558 36.4093 30.0232C36.4767 30.0905 36.5104 30.1705 36.5104 30.2632V31.6526C36.5104 32.3347 36.363 32.9368 36.0683 33.4589C35.7819 33.9811 35.3483 34.3895 34.7672 34.6842C34.1946 34.9789 33.4956 35.1263 32.6704 35.1263C31.4409 35.1263 30.5062 34.8189 29.8662 34.2042C29.2262 33.5811 28.8851 32.7389 28.843 31.6779C28.8346 31.4674 28.8304 31.0926 28.8304 30.5537C28.8304 30.0147 28.8346 29.64 28.843 29.4295C28.8851 28.3937 29.2304 27.5684 29.8788 26.9537C30.5272 26.3389 31.4577 26.0316 32.6704 26.0316ZM41.5126 26.0316C42.6915 26.0316 43.5926 26.3474 44.2157 26.9789C44.8389 27.6105 45.1757 28.4358 45.2262 29.4547C45.2431 29.8421 45.2515 30.1789 45.2515 30.4653C45.2515 30.8442 45.2431 31.2611 45.2262 31.7158C45.1757 32.7263 44.8389 33.5474 44.2157 34.1789C43.5926 34.8105 42.6915 35.1263 41.5126 35.1263C40.3336 35.1263 39.4326 34.8105 38.8094 34.1789C38.1862 33.5474 37.8494 32.7263 37.7989 31.7158C37.782 31.2611 37.7736 30.8442 37.7736 30.4653C37.7736 30.1789 37.782 29.8421 37.7989 29.4547C37.8494 28.4442 38.1862 27.6232 38.8094 26.9916C39.4326 26.3516 40.3336 26.0316 41.5126 26.0316ZM41.5126 27.6105C40.9231 27.6105 40.4473 27.7789 40.0852 28.1158C39.7315 28.4526 39.5378 28.92 39.5041 29.5179C39.4873 29.9389 39.4789 30.2926 39.4789 30.5789C39.4789 30.8737 39.4873 31.2316 39.5041 31.6526C39.5378 32.2505 39.7315 32.7179 40.0852 33.0547C40.4473 33.3832 40.9231 33.5474 41.5126 33.5474C42.102 33.5474 42.5736 33.3832 42.9273 33.0547C43.2894 32.7179 43.4873 32.2505 43.521 31.6526C43.5378 31.4421 43.5462 31.0842 43.5462 30.5789C43.5462 30.0821 43.5378 29.7284 43.521 29.5179C43.4873 28.92 43.2894 28.4526 42.9273 28.1158C42.5736 27.7789 42.102 27.6105 41.5126 27.6105Z" fill="#1F606C"/>
</svg>
