<svg xmlns="http://www.w3.org/2000/svg" width="18.426" height="21.01" viewBox="0 0 18.426 21.01">
  <g id="_7XV6l2.tif" data-name="7XV6l2.tif" transform="translate(-838.94 -284.61)">
    <g id="Group_1178" data-name="Group 1178" transform="translate(839.44 285.11)">
      <path id="Path_505" data-name="Path 505" d="M855.2,299a3.255,3.255,0,0,0-3.736.329c-.113.095-.219.2-.329.3l-5.373-3.329a3.322,3.322,0,0,0,0-2.375l5.378-3.332c.067.064.122.119.18.171a3.2,3.2,0,0,0,2.712.862,3.271,3.271,0,0,0,.326-6.413c-.143-.036-.289-.065-.433-.1h-.7a.52.52,0,0,1-.091.032,3.262,3.262,0,0,0-2.666,4.271c.046.143,0,.192-.105.258q-2.24,1.382-4.475,2.771c-.247.153-.5.305-.747.459l-.137-.13a3.272,3.272,0,0,0-5.459,1.532c-.039.15-.068.3-.1.454v.7a.8.8,0,0,1,.034.11A3.274,3.274,0,0,0,845,297.439a.2.2,0,0,1,.292-.034q2.507,1.564,5.024,3.112a.248.248,0,0,1,.131.351A3.268,3.268,0,1,0,855.2,299Zm-1.639-12.693a2.077,2.077,0,1,1-2.07,2.07A2.074,2.074,0,0,1,853.563,286.308ZM842.7,297.184a2.075,2.075,0,1,1,2.087-2.056A2.071,2.071,0,0,1,842.7,297.184Zm10.87,6.725a2.077,2.077,0,1,1,2.072-2.09A2.07,2.07,0,0,1,853.571,303.908Z" transform="translate(-839.44 -285.11)" fill="#006774" stroke="#006976" stroke-width="1"/>
    </g>
  </g>
</svg>
