<svg width="79" height="79" viewBox="0 0 79 79" fill="none" xmlns="http://www.w3.org/2000/svg">
<path d="M62.6214 12.0453C63.9044 10.5219 63.7178 8.23154 62.0838 7.0928C55.7934 2.70908 48.3384 0.235309 40.6225 0.0159524C31.7006 -0.237688 22.9558 2.53781 15.8131 7.89015C8.67051 13.2425 3.55115 20.8561 1.28933 29.4903C-0.972491 38.1244 -0.243425 47.2701 3.35772 55.4369C6.95886 63.6037 13.2198 70.3101 21.1201 74.4633C29.0205 78.6164 38.0946 79.9715 46.8637 78.3076C55.6327 76.6437 63.5797 72.0589 69.4096 65.3004C74.4516 59.4555 77.6529 52.2828 78.6587 44.6819C78.9199 42.7074 77.3547 41.025 75.3647 40.9449C73.3746 40.8647 71.717 42.4189 71.4155 44.3876C70.5012 50.3583 67.9252 55.9792 63.9483 60.5894C59.1829 66.1138 52.687 69.8614 45.5191 71.2215C38.3512 72.5816 30.934 71.474 24.4762 68.0792C18.0184 64.6844 12.9007 59.2025 9.9571 52.5269C7.01351 45.8513 6.41757 38.3756 8.26639 31.318C10.1152 24.2604 14.2998 18.037 20.1382 13.6619C25.9767 9.28691 33.1247 7.0182 40.4175 7.22553C46.5036 7.39855 52.391 9.28745 57.4161 12.6392C59.073 13.7444 61.3384 13.5687 62.6214 12.0453Z" fill="#FFD6BA"/>
<path d="M76.0183 18.5535C76.0183 21.0547 74.8853 23.4918 72.6193 25.8647L72.2665 26.2175L52.4492 47.093C48.2378 51.5182 44.6463 54.9387 41.6748 57.3544C38.7246 59.7701 36.6403 60.9779 35.4217 60.9779C34.139 60.9779 32.5464 60.3793 30.6438 59.1822C28.7411 57.9636 27.5119 56.713 26.9561 55.4304C26.4858 54.3615 26.0368 52.0954 25.6093 48.6322C25.2031 45.169 25 41.4171 25 37.3767C25 35.1748 25.9192 33.1439 27.7577 31.284C29.5962 29.4028 31.6271 28.4621 33.8504 28.4621C35.9669 28.4621 37.2282 30.3968 37.6343 34.2662C37.6771 34.7152 37.7092 35.0465 37.7305 35.2603C38.0726 38.2318 38.4681 40.3055 38.917 41.4813C39.3659 42.6571 39.9752 43.245 40.7448 43.245C41.0655 43.245 41.6641 42.9029 42.5406 42.2188C43.4171 41.5133 44.4646 40.562 45.6831 39.3649L66.0456 19.1948C67.7558 17.4846 69.2843 16.1912 70.6311 15.3147C71.9779 14.4382 73.1216 14 74.0623 14C74.7677 14 75.2701 14.2672 75.5694 14.8017C75.8687 15.3361 76.0183 16.234 76.0183 17.4953V18.5535Z" fill="#FF9501"/>
</svg>
