<svg xmlns="http://www.w3.org/2000/svg" width="239.822" height="239.822" viewBox="0 0 239.822 239.822">
  <g id="Group_85" data-name="Group 85" transform="translate(-128.353 -232.62)">
    <path id="Path_48" data-name="Path 48" d="M279.966,428.722c0-28.892,16.033-48.6,49.434-48.6s49.434,19.706,49.434,48.6-16.033,48.6-49.434,48.6S279.966,457.614,279.966,428.722Z" transform="translate(-81.136 -101)" fill="#fdb07f"/>
    <path id="Path_49" data-name="Path 49" d="M288.312,311.78l-120.8,120.8a13.762,13.762,0,0,0,.924,20.321c45.233,37.359,92.5,29.856,131.276-8.92s46.279-86.043,8.921-131.277A13.762,13.762,0,0,0,288.312,311.78Z" transform="translate(350.276 -100.579) rotate(45)" fill="#b4cace" opacity="0.66"/>
    <rect id="Rectangle_25" data-name="Rectangle 25" width="17.698" height="17.698" rx="5.939" transform="translate(248.263 240.227) rotate(45)" fill="#fba601"/>
  </g>
</svg>
