<svg xmlns="http://www.w3.org/2000/svg" width="107.23" height="26" viewBox="0 0 107.23 26">
  <g id="Group_122" data-name="Group 122" transform="translate(-129.6 -477.5)">
    <path id="Path_62" data-name="Path 62" d="M279.966,392.624c0-7.431,4.124-12.5,12.715-12.5s12.715,5.069,12.715,12.5-4.124,12.5-12.715,12.5S279.966,400.055,279.966,392.624Z" transform="translate(-149.866 97.876)" fill="#1f606c" stroke="#1f606c" stroke-width="1"/>
    <text id="_" data-name="✔" transform="translate(135.065 496.5)" fill="#fff" font-size="19" font-family="ZapfDingbatsITC, '\.Apple Symbols Fallback'"><tspan x="0" y="0">✔</tspan></text>
    <path id="Path_63" data-name="Path 63" d="M279.966,392.624c0-7.431,4.124-12.5,12.715-12.5s12.715,5.069,12.715,12.5-4.124,12.5-12.715,12.5S279.966,400.055,279.966,392.624Z" transform="translate(-109.466 97.876)" fill="#1f606c" stroke="#1f606c" stroke-width="1"/>
    <text id="_2" data-name="✔" transform="translate(175 496.5)" fill="#fff" font-size="19" font-family="ZapfDingbatsITC, '\.Apple Symbols Fallback'"><tspan x="0" y="0">✔</tspan></text>
    <path id="Path_64" data-name="Path 64" d="M279.966,392.624c0-7.431,4.124-12.5,12.715-12.5s12.715,5.069,12.715,12.5-4.124,12.5-12.715,12.5S279.966,400.055,279.966,392.624Z" transform="translate(-69.066 97.876)" fill="none" stroke="#1f606c" stroke-width="1"/>
  </g>
</svg>
