<svg width="30" height="30" viewBox="0 0 30 30" fill="none" xmlns="http://www.w3.org/2000/svg">
    <ellipse cx="15.0003" cy="14.9617" rx="15.0003" ry="14.9617" fill="#1F606C"/>
    <path d="M10.5574 10.0924C10.5574 7.78473 11.8623 6.21094 14.5806 6.21094C17.299 6.21094 18.6046 7.7849 18.6046 10.0924C18.6046 12.3999 17.2997 13.974 14.5813 13.974C11.8629 13.974 10.5574 12.4 10.5574 10.0924Z" fill="#FDA774"/>
    <path d="M7.62911 22.7211L21.5329 22.7211C21.6887 22.7213 21.8429 22.6895 21.9855 22.6278C22.1281 22.5662 22.256 22.476 22.361 22.3631C22.4661 22.2502 22.546 22.117 22.5956 21.9721C22.6453 21.8271 22.6635 21.6736 22.6492 21.5213C22.1959 16.8568 19.0441 14.611 14.581 14.6111C10.118 14.6113 6.96669 16.8574 6.51241 21.521C6.49808 21.6733 6.51631 21.8269 6.56594 21.9719C6.61556 22.1169 6.69548 22.2502 6.8006 22.3631C6.90571 22.4761 7.03369 22.5663 7.17635 22.6279C7.31902 22.6896 7.47323 22.7213 7.62911 22.7211Z" fill="#FFD6BA"/>
    </svg>
    