<svg xmlns="http://www.w3.org/2000/svg" width="220.121" height="220.121" viewBox="0 0 220.121 220.121">
  <g id="Group_481" data-name="Group 481" transform="translate(-105 -339.829)">
    <path id="Path_67" data-name="Path 67" d="M114.583,3.707,3.707,114.583a12.631,12.631,0,0,0,.848,18.652c41.517,34.29,84.9,27.4,120.492-8.187s42.477-78.975,8.188-120.493A12.631,12.631,0,0,0,114.583,3.707Z" transform="translate(215.061 559.95) rotate(-135)" fill="#cddcde" opacity="0.66"/>
    <g id="Group_480" data-name="Group 480" transform="translate(0 -216)">
      <g id="Group_478" data-name="Group 478">
        <g id="Group_78" data-name="Group 78" transform="translate(-33.353 358.26)">
          <path id="Path_48" data-name="Path 48" d="M279.966,428.722c0-28.892,16.033-48.6,49.434-48.6s49.434,19.706,49.434,48.6-16.033,48.6-49.434,48.6S279.966,457.614,279.966,428.722Z" transform="translate(-81.136 -101)" fill="#fdb07f"/>
        </g>
        <path id="Path_485" data-name="Path 485" d="M815.971,596.222a24.4,24.4,0,0,1-8.3-1.844,60.779,60.779,0,0,1-18.405-11.557,66.5,66.5,0,0,1-13.573-17.013,40.122,40.122,0,0,1-4.478-11.537,10.5,10.5,0,0,1,.212-6.3,9.245,9.245,0,0,1,1.717-2.586c1.472-1.6,3.046-3.109,4.6-4.631,1.008-.986,2.164-1.626,3.6-.978a4.939,4.939,0,0,1,1.387,1c2.558,2.524,5.091,5.073,7.632,7.615l.043.044c1.714,1.8,1.73,3.243-.011,5.017-1.466,1.495-2.971,2.953-4.479,4.407a2.81,2.81,0,0,0-.739,3.8,37.242,37.242,0,0,0,6.775,9.772,47.989,47.989,0,0,0,10.773,9.023c.86.516,1.756.977,2.652,1.431a2.607,2.607,0,0,0,3.316-.526c1.534-1.515,3.052-3.047,4.58-4.568a9.055,9.055,0,0,1,.819-.746,2.765,2.765,0,0,1,3.856.144c2.815,2.76,5.613,5.539,8.363,8.363a2.893,2.893,0,0,1,.072,4.392q-2.605,2.831-5.374,5.509A6.758,6.758,0,0,1,815.971,596.222Z" transform="translate(-584.096 118.115)" fill="none" stroke="#fff" stroke-width="5"/>
      </g>
      <rect id="Rectangle_25" data-name="Rectangle 25" width="17.698" height="17.698" rx="5.939" transform="translate(214.911 749.6) rotate(45)" fill="#1f606c"/>
    </g>
  </g>
</svg>
