<svg xmlns="http://www.w3.org/2000/svg" width="20.015" height="20.071" viewBox="0 0 20.015 20.071">
  <g id="nf7JAE.tif" transform="translate(-933.82 -412.094)">
    <g id="Group_1177" data-name="Group 1177" transform="translate(933.82 412.094)">
      <path id="Path_502" data-name="Path 502" d="M953.666,420.23a9.964,9.964,0,1,0-18.609,6.47.966.966,0,0,1,.072.615c-.195.806-.429,1.6-.647,2.4s-.425,1.57-.662,2.446c.2-.037.3-.048.4-.073,1.506-.391,3.009-.8,4.519-1.167a1.177,1.177,0,0,1,.731.066,9.973,9.973,0,0,0,14.2-10.76Zm-8.284,9.832a7.972,7.972,0,0,1-5.552-.939,1.077,1.077,0,0,0-.911-.124c-.817.239-1.647.435-2.553.67.253-.928.5-1.76.7-2.6a.932.932,0,0,0-.1-.642,8.01,8.01,0,0,1-1.194-5.33,7.845,7.845,0,0,1,4.306-6.251,8.149,8.149,0,1,1,5.3,15.22Z" transform="translate(-933.82 -412.094)" fill="#006572"/>
      <path id="Path_504" data-name="Path 504" d="M1004.9,489.239a7.88,7.88,0,0,1-3.767-1.445,11.7,11.7,0,0,1-3.2-3.472,3.35,3.35,0,0,1-.5-3.071,3.5,3.5,0,0,1,.729-1.129,1.115,1.115,0,0,1,1.849.365c.194.468.358.951.593,1.4a.964.964,0,0,1-.154,1.144c-.583.76-.583.763-.012,1.545a6.548,6.548,0,0,0,2.784,2.186.5.5,0,0,0,.681-.162c.2-.258.417-.5.611-.758a.471.471,0,0,1,.637-.2c.669.315,1.344.619,2,.961a.606.606,0,0,1,.245.433,2.166,2.166,0,0,1-2.144,2.2A3.408,3.408,0,0,1,1004.9,489.239Z" transform="translate(-992.284 -474.484)" fill="#006774"/>
    </g>
  </g>
</svg>
