<svg xmlns="http://www.w3.org/2000/svg" width="20.062" height="17.099" viewBox="0 0 20.062 17.099">
  <g id="Group_1182" data-name="Group 1182" transform="translate(50.5 -494.958)">
    <g id="Group_522" data-name="Group 522" transform="translate(-50.5 494.958)">
      <g id="Path_18" data-name="Path 18" transform="translate(-497.625 -53.381)" fill="none">
        <path d="M508.935,54.569V69.293a1.186,1.186,0,0,0,1.295,1.182c5.033-.48,7.457-3.818,7.457-8.544s-2.423-8.064-7.457-8.544A1.186,1.186,0,0,0,508.935,54.569Z" stroke="none"/>
        <path d="M 510.9349365234375 55.50510406494141 L 510.9349365234375 68.35641479492188 C 512.3939208984375 68.07380676269531 513.5259399414062 67.45694732666016 514.3079223632812 66.51655578613281 C 515.2227783203125 65.41635131835938 515.6866455078125 63.87347030639648 515.6866455078125 61.93075180053711 C 515.6866455078125 59.98805999755859 515.2227783203125 58.4451904296875 514.3079223632812 57.34502410888672 C 513.5259399414062 56.40463256835938 512.3937377929688 55.78772735595703 510.9349365234375 55.50510406494141 M 510.1165161132812 53.38117980957031 C 510.1538696289062 53.38117980957031 510.1917114257812 53.38295745849609 510.229736328125 53.38658142089844 C 515.26318359375 53.86659240722656 517.6866455078125 57.20436859130859 517.6866455078125 61.93075180053711 C 517.6866455078125 66.65714263916016 515.26318359375 69.99505615234375 510.229736328125 70.47492980957031 C 509.5346069335938 70.54107666015625 508.9349365234375 69.99038696289062 508.9349365234375 69.29277038574219 L 508.9349365234375 54.56874084472656 C 508.9349365234375 53.90930938720703 509.4712524414062 53.38111877441406 510.1165161132812 53.38117980957031 Z" stroke="none" fill="#00606e"/>
      </g>
      <g id="Path_19" data-name="Path 19" transform="translate(-457.651 -69.75)" fill="none">
        <path d="M461.862,73.441v9.718a.783.783,0,0,0,.854.78c3.322-.317,4.922-2.52,4.922-5.639s-1.6-5.322-4.922-5.639A.783.783,0,0,0,461.862,73.441Z" stroke="none"/>
        <path d="M 463.8620300292969 74.96853637695312 L 463.8620300292969 81.63144683837891 C 464.2820129394531 81.4527587890625 464.6241455078125 81.20573425292969 464.8851928710938 80.89177703857422 C 465.5073852539062 80.14352416992188 465.6380004882812 79.06932830810547 465.6380004882812 78.29994964599609 C 465.6380004882812 77.53056335449219 465.5073852539062 76.45637512207031 464.8852233886719 75.70814514160156 C 464.6241455078125 75.39420318603516 464.2820739746094 75.14720153808594 463.8620300292969 74.96853637695312 M 462.6416625976562 72.65731048583984 C 462.6663513183594 72.65731811523438 462.6913452148438 72.65848541259766 462.7164611816406 72.660888671875 C 466.0385131835938 72.97757720947266 467.6380004882812 75.18054962158203 467.6380004882812 78.29994964599609 C 467.6380004882812 81.41935729980469 466.0385131835938 83.622314453125 462.7164611816406 83.93915557861328 C 462.2580871582031 83.98290252685547 461.8619995117188 83.61929321289062 461.8620300292969 83.15888214111328 L 461.8620300292969 73.44099426269531 C 461.8620300292969 73.00582885742188 462.2158813476562 72.65728759765625 462.6416625976562 72.65731048583984 Z" stroke="none" fill="#00606e"/>
      </g>
      <g id="Path_20" data-name="Path 20" transform="translate(-433.939 -85.637)" fill="none">
        <path d="M433.939,91.757v4.859a.391.391,0,0,0,.427.39,2.846,2.846,0,0,0,0-5.639A.392.392,0,0,0,433.939,91.757Z" stroke="none"/>
        <path d="M 434.3292236328125 91.36531066894531 C 434.3414916992188 91.36531066894531 434.3539123535156 91.36589050292969 434.3663940429688 91.36707305908203 C 436.02734375 91.52556610107422 436.8270874023438 92.62704467773438 436.8270874023438 94.18667602539062 C 436.8270874023438 95.74644470214844 436.02734375 96.84793090820312 434.3663940429688 97.00627899169922 C 434.1373291015625 97.02827453613281 433.9389953613281 96.84642028808594 433.9390258789062 96.61614990234375 L 433.9390258789062 91.7572021484375 C 433.9390258789062 91.53961181640625 434.1161499023438 91.36530303955078 434.3292236328125 91.36531066894531 Z" stroke="none" fill="#00606e"/>
      </g>
    </g>
  </g>
</svg>
