<svg width="35" height="28" viewBox="0 0 35 28" fill="none" xmlns="http://www.w3.org/2000/svg">
<g clip-path="url(#clip0_7219_14087)">
<path d="M6.24609 21.46H24.668C26.6719 21.46 28.3594 21.2725 29.5547 20.0772C30.75 18.8819 30.9258 17.2178 30.9258 15.2139V11.8507C30.9258 9.84674 30.75 8.18268 29.5547 6.98737C28.3594 5.79205 26.6719 5.60455 24.668 5.60455H6.22266C4.25391 5.60455 2.56641 5.79205 1.37109 6.98737C0.175781 8.18268 0 9.85846 0 11.8155V15.2139C0 17.2178 0.175781 18.8819 1.37109 20.0772C2.56641 21.2725 4.25391 21.46 6.24609 21.46ZM5.92969 19.5733C4.72266 19.5733 3.45703 19.4092 2.74219 18.7061C2.03906 17.9913 1.88672 16.7374 1.88672 15.5303V11.5577C1.88672 10.3272 2.03906 9.0733 2.74219 8.35846C3.45703 7.64362 4.73438 7.49127 5.96484 7.49127H24.9961C26.2031 7.49127 27.4688 7.65534 28.1719 8.35846C28.8867 9.0733 29.0391 10.3155 29.0391 11.5225V15.5303C29.0391 16.7374 28.8867 17.9913 28.1719 18.7061C27.4688 19.4092 26.2031 19.5733 24.9961 19.5733H5.92969ZM32.5195 16.5616C33.4453 16.503 34.6875 15.3194 34.6875 13.5264C34.6875 11.7452 33.4453 10.5616 32.5195 10.503V16.5616Z" fill="black" fill-opacity="0.85"/>
<path d="M5.30859 18.2139H25.6172C26.4258 18.2139 26.8945 18.0967 27.2227 17.7686C27.5391 17.4405 27.668 16.9717 27.668 16.1631V10.9014C27.668 10.0928 27.5391 9.62409 27.2227 9.29596C26.8945 8.96784 26.4141 8.85065 25.6172 8.85065H5.34375C4.5 8.85065 4.01953 8.96784 3.70312 9.29596C3.375 9.62409 3.25781 10.1045 3.25781 10.9249V16.1631C3.25781 16.9717 3.375 17.4405 3.70312 17.7686C4.03125 18.0967 4.51172 18.2139 5.30859 18.2139Z" fill="black" fill-opacity="0.85"/>
<path d="M8.98828 14.4171C8.98828 15.5889 9.94922 16.5264 11.1328 16.5264H12.7969L11.4844 20.0655C10.582 22.503 13.6406 24.1788 15.2461 22.1749L21.6797 14.0889C22.0195 13.6671 22.2188 13.1749 22.2188 12.6475C22.2188 11.4757 21.2578 10.5382 20.0742 10.5382H18.4102L19.7227 6.99909C20.625 4.56159 17.5664 2.8858 15.9609 4.88971L9.52734 12.9757C9.1875 13.3975 8.98828 13.8897 8.98828 14.4171Z" fill="white"/>
<path d="M10.582 14.4171C10.582 14.71 10.8164 14.921 11.1211 14.921H15.0938L12.9727 20.6163C12.7031 21.3663 13.5 21.7764 13.9805 21.1788L20.4023 13.1046C20.5195 12.9522 20.6016 12.7999 20.6016 12.6475C20.6016 12.3546 20.3672 12.1436 20.0625 12.1436H16.0898L18.2109 6.44831C18.4805 5.69831 17.6836 5.28816 17.2031 5.88581L10.7812 13.9483C10.6523 14.1124 10.582 14.2647 10.582 14.4171Z" fill="black" fill-opacity="0.85"/>
</g>
<defs>
<clipPath id="clip0_7219_14087">
<rect width="34.6875" height="19.0646" fill="white" transform="translate(0 4)"/>
</clipPath>
</defs>
</svg>
