<svg width="46" height="46" viewBox="0 0 46 46" fill="none" xmlns="http://www.w3.org/2000/svg">
<path d="M12.8358 45.8538C13.8585 45.8538 14.5681 45.3112 15.8412 44.1841L23.0418 37.7766H36.441C42.6606 37.7766 46 34.3329 46 28.2178V12.2304C46 6.11512 42.6606 2.67139 36.441 2.67139H9.559C3.33939 2.67139 0 6.09427 0 12.2304V28.2178C0 34.3539 3.33939 37.7766 9.559 37.7766H10.5608V43.2032C10.5608 44.8103 11.3748 45.8538 12.8358 45.8538ZM13.6915 42.0345V35.9817C13.6915 34.8547 13.2532 34.4164 12.1261 34.4164H9.559C5.34302 34.4164 3.36026 32.2667 3.36026 28.1968V12.2304C3.36026 8.1605 5.34302 6.03165 9.559 6.03165H36.441C40.6361 6.03165 42.6398 8.1605 42.6398 12.2304V28.1968C42.6398 32.2667 40.6361 34.4164 36.441 34.4164H22.9166C21.7477 34.4164 21.1633 34.5835 20.3703 35.3974L13.6915 42.0345Z" fill="#FF9501"/>
<path d="M14.2755 28.6562H25.3163C27.4035 28.6562 28.6349 27.4458 28.6349 25.3795V15.1109C28.6349 13.0446 27.5078 11.855 25.4207 11.855H14.2755C12.2928 11.855 10.957 13.0446 10.957 15.1109V25.3795C10.957 27.4458 12.2093 28.6562 14.2755 28.6562ZM29.8037 23.1046L33.8735 26.5482C34.2493 26.8613 34.6458 27.07 35.0216 27.07C35.8146 27.07 36.3573 26.4857 36.3573 25.6299V14.8604C36.3573 14.0047 35.8146 13.4203 35.0216 13.4203C34.6458 13.4203 34.2285 13.629 33.8735 13.9212L29.8037 17.4067V23.1046Z" fill="#FF9501"/>
</svg>
